<?xml version="1.0" standalone="no"?>
<!DOCTYPE svg PUBLIC "-//W3C//DTD SVG 1.1//EN" "http://www.w3.org/Graphics/SVG/1.1/DTD/svg11.dtd" >
<svg xmlns="http://www.w3.org/2000/svg">
<metadata>
Created by FontPrep 20130207 at Mon Oct  7 04:00:17 2013
 By Nuno
Copyright (c) House Industries/Brand Design Co. Inc,, 2003. All rights reserved.
</metadata>
<defs>
<font id="1f22a7ff26562554f5409afd9c01c2d2" horiz-adv-x='1024' >
  <font-face 
    font-family="ChaletBook"
    font-weight="400"
    font-stretch="normal"
    units-per-em="2048"
    panose-1="2 0 0 0 0 0 0 0 0 0"
    ascent="1638"
    descent="-410"
    x-height="1055"
    cap-height="1393"
    bbox="-164 -584 3029 2339"
    underline-thickness="16"
    underline-position="-104"
    unicode-range="U+0020-FB04"
  />
<missing-glyph horiz-adv-x="1024" 
 />
    <glyph glyph-name="ff" unicode="ff" horiz-adv-x="1255" 
d="M956 1126v-71h263v-156h-263v-899h-168v899h-415v-899h-168v899h-154v156h154v45q0 195 102 297t268 102l64 -6v-150q-12 0 -21 3l-36 2q-109 0 -159 -59.5t-50 -188.5v-45h415v71q0 197 102.5 298.5t272.5 101.5l70 -6v-150q-12 0 -23 2l-41 2q-111 0 -162 -59.5
t-51 -188.5z" />
    <glyph glyph-name="fi" unicode="fi" 
d="M780 1462h185v-207h-185v207zM373 1126v-71h583v-1055h-168v899h-415v-899h-168v899h-154v156h154v71q0 195 99.5 297.5t262.5 102.5l62 -6v-150q-10 0 -19 2l-37 2q-104 0 -152 -59.5t-48 -188.5z" />
    <glyph glyph-name="fl" unicode="fl" horiz-adv-x="1120" 
d="M788 1524h168v-1524h-168v1524zM373 1126v-71h248v-156h-248v-899h-168v899h-154v156h154v71q0 197 98.5 298.5t259.5 101.5l58 -6v-150q-8 0 -17 2l-35 2q-104 0 -150 -59.5t-46 -188.5z" />
    <glyph glyph-name="ffi" unicode="ffi" horiz-adv-x="1701" 
d="M1364 1462h184v-207h-184v207zM956 1126v-71h584v-1055h-168v899h-416v-899h-168v899h-415v-899h-168v899h-154v156h154v45q0 195 102 297t268 102l64 -6v-150q-12 0 -21 3l-36 2q-109 0 -159 -59.5t-50 -188.5v-45h415v71q0 194 100 297t263 103l61 -6v-150q-10 0 -18 2
l-37 2q-104 0 -152.5 -59.5t-48.5 -188.5z" />
    <glyph glyph-name="ffl" unicode="ffl" horiz-adv-x="1703" 
d="M1372 1524h168v-1524h-168v1524zM956 1126v-71h248v-156h-248v-899h-168v899h-415v-899h-168v899h-154v156h154v45q0 195 102 297t268 102l64 -6v-150q-12 0 -21 3l-36 2q-109 0 -159 -59.5t-50 -188.5v-45h415v71q0 196 99 298t260 102l57 -6v-150q-8 0 -16 2l-35 2
q-104 0 -150.5 -59.5t-46.5 -188.5z" />
    <glyph glyph-name=".notdef" horiz-adv-x="1024" 
 />
    <glyph glyph-name=".null" horiz-adv-x="0" 
 />
    <glyph glyph-name="nonmarkingreturn" horiz-adv-x="604" 
 />
    <glyph glyph-name="space" unicode=" " horiz-adv-x="604" 
 />
    <glyph glyph-name="space" unicode="&#xa0;" horiz-adv-x="604" 
 />
    <glyph glyph-name="exclam" unicode="!" horiz-adv-x="555" 
d="M184 219h187v-219h-187v219zM180 1393h195l-25 -977h-145z" />
    <glyph glyph-name="quotedbl" unicode="&#x22;" horiz-adv-x="751" 
d="M106 1393h195l-27 -490h-141zM451 1393h194l-27 -490h-141z" />
    <glyph glyph-name="numbersign" unicode="#" horiz-adv-x="1142" 
d="M438 686h224l38 281h-223zM225 266l37 264h-205l21 156h207l39 281h-203l20 155h205l39 271h154l-39 -271h223l39 271h153l-38 -271h208l-20 -155h-211l-39 -281h207l-21 -156h-208l-37 -264h-154l37 264h-223l-37 -264h-154z" />
    <glyph glyph-name="dollar" unicode="$" horiz-adv-x="1081" 
d="M285 1023q0 -77 32.5 -109.5t73.5 -51t107 -37.5v375q-104 -6 -158.5 -53t-54.5 -124zM825 408q0 82 -47.5 129.5t-169.5 80.5v-415q104 12 160.5 67.5t56.5 137.5zM498 1468h110v-120q170 -23 259 -124.5t100 -244.5h-172q-6 76 -51.5 134t-135.5 79v-393
q204 -50 296.5 -133t92.5 -249q0 -167 -107.5 -258t-281.5 -106v-221h-110v221q-183 12 -303.5 127t-124.5 285h172q4 -109 74.5 -178.5t181.5 -83.5v442q-202 50 -294.5 130t-92.5 237q0 158 106.5 247t280.5 95v114z" />
    <glyph glyph-name="percent" unicode="%" horiz-adv-x="1609" 
d="M1040 317q0 -79 53.5 -136.5t128.5 -57.5t126 57t51 137t-52 138.5t-126.5 58.5t-127.5 -59.5t-53 -137.5zM569 1076q0 81 -51.5 138.5t-126 57.5t-127.5 -59.5t-53 -137.5t52.5 -136t128.5 -58q75 0 126 57t51 138zM1116 1393h160l-784 -1393h-158zM1220.5 -18
q-67.5 0 -128 26.5t-104.5 71.5t-70.5 106.5t-26.5 131t26.5 132t70.5 107.5t104.5 71.5t128 26.5t127 -26.5t103.5 -71.5t70.5 -107.5t26.5 -132t-26.5 -131t-70.5 -106.5t-103.5 -71.5t-127 -26.5zM391.5 739q-67.5 0 -128 27t-104.5 72t-71 106.5t-27 131t27 132
t71 107.5t104.5 71.5t128 26.5t127 -26.5t103.5 -71.5t70.5 -107.5t26.5 -132t-26.5 -131t-70.5 -106.5t-103.5 -72t-127 -27z" />
    <glyph glyph-name="ampersand" unicode="&#x26;" horiz-adv-x="1286" 
d="M436 1111q0 -75 62 -150l53 -68q150 79 163 142t13 87q0 66 -39 107t-102 41t-106.5 -42t-43.5 -117zM580 131q175 0 282 113l-373 463q-175 -106 -190.5 -189.5t-15.5 -122.5q0 -123 81 -193.5t216 -70.5zM96 395q0 135 87 242.5t216 181.5l-26 33q-109 133 -109 265
t93 217t230 85t224.5 -81.5t87.5 -200.5q0 -120 -60.5 -201.5t-199.5 -153.5l311 -389q27 88 27 172v156h162v-156q0 -172 -78 -309l207 -256h-207l-100 123q-152 -148 -366 -148t-356.5 115.5t-142.5 304.5z" />
    <glyph glyph-name="quotesingle" unicode="'" horiz-adv-x="407" 
d="M106 1393h195l-27 -490h-141z" />
    <glyph glyph-name="parenleft" unicode="(" horiz-adv-x="653" 
d="M317 806.5q0 -392.5 78 -629t219 -427.5h-149q-151 159 -243.5 413.5t-92.5 514.5t92.5 514.5t243.5 413.5h149q-297 -407 -297 -799.5z" />
    <glyph glyph-name="parenright" unicode=")" horiz-adv-x="653" 
d="M336 806.5q0 392.5 -297 799.5h149q151 -159 243.5 -413.5t92.5 -514.5t-92.5 -514.5t-243.5 -413.5h-149q141 190 219 427t78 629.5z" />
    <glyph glyph-name="asterisk" unicode="*" horiz-adv-x="718" 
d="M164 911l102 176l-200 -4v119l200 -4l-102 178l98 58l96 -181l97 181l102 -58l-106 -178l200 4v-117l-200 2l106 -176l-102 -59l-95 182l-98 -182z" />
    <glyph glyph-name="plus" unicode="+" horiz-adv-x="1019" 
d="M432 543h-338v147h338v344h156v-344h338v-147h-338v-344h-156v344z" />
    <glyph glyph-name="comma" unicode="," horiz-adv-x="452" 
d="M223 -66v66h-102v223h211v-289q0 -107 -67.5 -163t-153.5 -60v107q112 9 112 116z" />
    <glyph glyph-name="hyphen" unicode="-" horiz-adv-x="700" 
d="M102 649h498v-168h-498v168z" />
    <glyph glyph-name="hyphen" unicode="&#xad;" horiz-adv-x="700" 
d="M102 649h498v-168h-498v168z" />
    <glyph glyph-name="period" unicode="." horiz-adv-x="452" 
d="M121 223h211v-223h-211v223z" />
    <glyph glyph-name="slash" unicode="/" horiz-adv-x="718" 
d="M547 1606h168l-551 -1856h-168z" />
    <glyph glyph-name="zero" unicode="0" horiz-adv-x="1288" 
d="M646 133q173 0 264 146.5t91 421.5t-91 418t-264 143t-266 -142t-93 -418t93 -422.5t266 -146.5zM645 -25q-113 0 -212 45.5t-173 136.5t-117 227t-43 318.5t43 316.5t117 223t173 133t212 44t211 -44t172 -133t117 -223t43 -316.5t-43 -318.5t-117 -227t-172 -136.5
t-211 -45.5z" />
    <glyph glyph-name="one" unicode="1" horiz-adv-x="686" 
d="M299 1112h-229v133q115 0 174 33t69 115h166v-1393h-180v1112z" />
    <glyph glyph-name="two" unicode="2" horiz-adv-x="1136" 
d="M90 82q0 291 173 408.5t265 168.5q180 100 245 178t65 189q0 162 -91 199t-167 37q-140 0 -214.5 -84.5t-78.5 -225.5h-170q0 204 123 335.5t334 131.5t330.5 -111.5t119.5 -285.5t-101.5 -278t-296.5 -214q-196 -110 -251.5 -165.5t-79 -101.5t-27.5 -101h744v-162h-922
v82z" />
    <glyph glyph-name="three" unicode="3" horiz-adv-x="1142" 
d="M1047 393q0 -174 -132.5 -296t-352.5 -122t-346.5 122.5t-139.5 301.5h172q40 -266 323 -266q137 0 213 76t76 194t-68.5 190.5t-254.5 72.5h-60v157h21q256 0 284.5 87t28.5 137q0 100 -61.5 157.5t-192.5 57.5t-200 -71.5t-74 -189.5h-168q0 185 124.5 301.5
t321.5 116.5t314.5 -103.5t117.5 -264.5q0 -211 -205 -293q259 -93 259 -365z" />
    <glyph glyph-name="four" unicode="4" horiz-adv-x="1163" 
d="M752 483v666l-492 -666h492zM752 328h-684v141l673 924h187v-910h151v-155h-151v-328h-176v328z" />
    <glyph glyph-name="five" unicode="5" horiz-adv-x="1114" 
d="M553 770q-170 0 -270 -162l-146 58l90 727h715v-162h-573l-54 -418q43 47 113 81t160 34q179 0 304.5 -135t125.5 -344q0 -208 -135 -341t-333 -133t-323.5 113.5t-138.5 271.5h172q13 -93 90.5 -160t204.5 -67t201.5 89t74.5 230t-77.5 229.5t-200.5 88.5z" />
    <glyph glyph-name="six" unicode="6" horiz-adv-x="1175" 
d="M301 449q0 -139 85 -227.5t221 -88.5t217 89t81 225q0 135 -78.5 229t-219.5 94t-223.5 -91t-82.5 -230zM613 926q211 0 340.5 -135.5t129.5 -337.5t-138 -340t-339 -138q-232 0 -369 175.5t-137 480.5q0 372 146 580t390 208t321 -132t90 -218h-175q-42 193 -243 193
q-152 0 -243 -136.5t-116 -402.5q47 92 141.5 147.5t201.5 55.5z" />
    <glyph glyph-name="seven" unicode="7" horiz-adv-x="1030" 
d="M57 1231v162h899v-150q-230 -198 -356 -524.5t-139 -718.5h-185q26 552 193.5 835t275.5 396h-688z" />
    <glyph glyph-name="eight" unicode="8" horiz-adv-x="1181" 
d="M590 836q102 0 170.5 55t68.5 157t-60 162t-178 60t-179.5 -60.5t-61.5 -158.5t69 -156.5t171 -58.5zM589.5 133q135.5 0 223.5 71.5t88 197.5q0 127 -80.5 203.5t-230.5 76.5t-229.5 -77t-79.5 -203t86.5 -197.5t222 -71.5zM1087 401q0 -180 -135.5 -303t-360.5 -123
t-361 123.5t-136 302.5q0 256 266 363q-193 94 -192 297q0 154 117.5 260t305.5 106t304.5 -106t116.5 -260q0 -203 -189 -297q264 -105 264 -363z" />
    <glyph glyph-name="nine" unicode="9" horiz-adv-x="1175" 
d="M571 625q138 0 219.5 89t81.5 228t-83 229.5t-220 90.5t-218 -90t-81 -267.5t114.5 -228.5t186.5 -51zM511 469q-159 0 -289 136t-130 336t139 339t354 139t352.5 -172.5t137.5 -482.5q0 -395 -139 -592t-389 -197q-162 0 -278.5 84t-139.5 244h174q41 -170 244 -170
q328 0 358 539q-47 -92 -141 -147.5t-253 -55.5z" />
    <glyph glyph-name="colon" unicode=":" horiz-adv-x="473" 
d="M131 223h211v-223h-211v223zM131 862h211v-223h-211v223z" />
    <glyph glyph-name="semicolon" unicode=";" horiz-adv-x="473" 
d="M131 862h211v-223h-211v223zM233 -66v66h-102v223h211v-289q0 -107 -66.5 -162.5t-154.5 -60.5v107q112 9 112 116z" />
    <glyph glyph-name="semicolon" unicode="&#x37e;" horiz-adv-x="473" 
d="M131 862h211v-223h-211v223zM233 -66v66h-102v223h211v-289q0 -107 -66.5 -162.5t-154.5 -60.5v107q112 9 112 116z" />
    <glyph glyph-name="less" unicode="&#x3c;" horiz-adv-x="911" 
d="M74 461v186l753 348v-172l-602 -270v-2l602 -268v-172z" />
    <glyph glyph-name="equal" unicode="=" horiz-adv-x="985" 
d="M94 479h797v-147h-797v147zM94 856h797v-147h-797v147z" />
    <glyph glyph-name="greater" unicode="&#x3e;" horiz-adv-x="911" 
d="M838 645v-186l-754 -348v172l602 270v2l-602 268v172z" />
    <glyph glyph-name="question" unicode="?" horiz-adv-x="1044" 
d="M383 219h186v-219h-186v219zM770 1063q0 203 -244 203q-129 0 -200.5 -71t-75.5 -179h-168q0 168 121.5 285.5t316.5 117.5t311.5 -94t116.5 -266q0 -171 -99 -257t-159.5 -130.5t-97.5 -87t-37 -133.5v-35h-156v35q0 147 48.5 209.5t91.5 95t103 77.5t94 98.5t34 131.5z
" />
    <glyph glyph-name="at" unicode="@" horiz-adv-x="1529" 
d="M659 498q85 0 135.5 64t71.5 138q33 117 17.5 184.5t-83.5 67.5t-130.5 -68.5t-86.5 -168.5t0 -158.5t76 -58.5zM1087.5 492q67.5 0 137 89.5t69.5 241.5q0 207 -134 347.5t-365 140.5q-117 0 -218.5 -49.5t-176 -133.5t-117.5 -194t-43 -232q0 -257 154 -420t399 -163
q137 0 244.5 47t176.5 113h183q-92 -141 -244.5 -222.5t-332.5 -81.5t-309.5 53.5t-222.5 150.5t-145.5 231.5t-52.5 296t57.5 299t154.5 237.5t224.5 156.5t269.5 56.5q284 0 465 -177t181 -462q0 -211 -119 -337t-267 -126q-68 0 -119.5 37t-68.5 90q-103 -125 -227 -125
t-186.5 115t-20.5 270q42 154 151.5 252.5t220.5 98.5t157 -103l22 76h143q-6 -18 -15 -48t-20.5 -67t-23.5 -76.5t-32 -105.5t-50 -168q-16 -55 8.5 -81.5t92 -26.5z" />
    <glyph glyph-name="A" unicode="A" horiz-adv-x="1263" 
d="M403 530h455l-176 504l-49 168q-9 -32 -17 -58t-15 -55.5t-17 -54.5zM545 1393h184l500 -1393h-185l-131 371h-567l-131 -371h-180z" />
    <glyph glyph-name="B" unicode="B" horiz-adv-x="1298" 
d="M977 1022q0 211 -217 211h-406v-420h410q144 0 178.5 75t34.5 134zM1030 408q0 245 -250 245h-426v-491h432q111 0 177.5 65.5t66.5 180.5zM176 1393h584q177 0 289 -100.5t112 -272.5q0 -78 -43 -153.5t-141 -121.5q114 -37 177 -130t63 -193q0 -191 -124.5 -306.5
t-314.5 -115.5h-602v1393z" />
    <glyph glyph-name="C" unicode="C" horiz-adv-x="1425" 
d="M760 1262q-208 0 -344.5 -154.5t-136.5 -410t137.5 -410t347.5 -154.5q156 0 267.5 84t152.5 225h182q-59 -217 -212.5 -342t-389.5 -125q-137 0 -259 53.5t-214 148.5t-145.5 228.5t-53.5 369t195 440t473 204.5q242 0 392.5 -124t205.5 -332h-176q-104 299 -422 299z
" />
    <glyph glyph-name="D" unicode="D" horiz-adv-x="1390" 
d="M637 160q217 0 346 133t129 405q0 271 -127 403t-348 132h-281v-1073h281zM176 1393h461q301 0 481 -186t180 -507t-178 -510.5t-483 -189.5h-461v1393z" />
    <glyph glyph-name="E" unicode="E" horiz-adv-x="1202" 
d="M176 1393h918v-162h-738v-418h627v-162h-627v-489h748v-162h-928v1393z" />
    <glyph glyph-name="F" unicode="F" horiz-adv-x="1155" 
d="M176 1393h903v-162h-723v-418h631v-162h-631v-651h-180v1393z" />
    <glyph glyph-name="G" unicode="G" horiz-adv-x="1503" 
d="M1174 977q-86 285 -434 285q-86 0 -174.5 -40t-152 -113t-99 -177.5t-35.5 -297t133.5 -347t336.5 -154.5t333.5 120.5t138.5 297.5h-387v164h557v-715h-168v231q-156 -256 -465 -256q-139 0 -260 53.5t-211 148.5t-142.5 228.5t-52.5 370t194 440t472 203.5
q334 0 450.5 -164.5t145.5 -277.5h-180z" />
    <glyph glyph-name="H" unicode="H" horiz-adv-x="1425" 
d="M176 1393h180v-580h713v580h180v-1393h-180v649h-713v-649h-180v1393z" />
    <glyph glyph-name="I" unicode="I" horiz-adv-x="544" 
d="M182 1393h180v-1393h-180v1393z" />
    <glyph glyph-name="J" unicode="J" 
d="M516 -25q-203 0 -325.5 128.5t-122.5 338.5h178q0 -211 96 -260t168 -49q145 0 204.5 87t59.5 247v926h180v-926q0 -351 -166 -421.5t-272 -70.5z" />
    <glyph glyph-name="K" unicode="K" horiz-adv-x="1286" 
d="M342 0h-166v1393h166v-717l686 717h201l-539 -562l555 -831h-196l-474 713l-233 -244v-469z" />
    <glyph glyph-name="L" unicode="L" horiz-adv-x="1089" 
d="M176 1393h180v-1231h672v-162h-852v1393z" />
    <glyph glyph-name="M" unicode="M" horiz-adv-x="1658" 
d="M344 0h-168v1393h258l354 -1028q16 -47 27.5 -100.5t15.5 -63.5q0 2 4.5 19.5t15.5 61.5t23 83l353 1028h256v-1393h-172v979q0 109 4 154t4 49q-2 -4 -7 -22.5t-13.5 -44t-16.5 -53.5t-16 -52l-351 -1010h-176l-350 1010q-8 23 -16 50t-16.5 52t-13.5 44.5t-7 25.5
l8 -203v-979z" />
    <glyph glyph-name="N" unicode="N" horiz-adv-x="1404" 
d="M176 1393h199l690 -1112v1112h164v-1393h-182l-707 1137v-1137h-164v1393z" />
    <glyph glyph-name="O" unicode="O" horiz-adv-x="1531" 
d="M1253 700q0 258 -134.5 410t-349.5 152t-352.5 -153.5t-137.5 -410t137.5 -411t349.5 -154.5t349.5 154.5t137.5 412.5zM766 -25q-139 0 -262 53.5t-214 148.5t-144.5 228.5t-53.5 293t53.5 291.5t144.5 227.5t214 148.5t263 53q289 0 481 -201.5t192 -519.5
q0 -160 -53.5 -293t-144.5 -228t-214 -148.5t-262 -53.5z" />
    <glyph glyph-name="P" unicode="P" horiz-adv-x="1251" 
d="M741 713q117 0 190 60.5t73 197.5t-73 198.5t-190 61.5h-385v-518h385zM176 1393h565q209 0 327 -118t118 -303.5t-119 -303t-326 -117.5h-385v-551h-180v1393z" />
    <glyph glyph-name="Q" unicode="Q" horiz-adv-x="1531" 
d="M1253 698q0 260 -134.5 412t-349.5 152t-352.5 -153.5t-137.5 -410t137.5 -411t349.5 -154.5q152 0 266 80l-252 270h224l143 -155q106 156 106 370zM766 -25q-139 0 -262 53.5t-214 148.5t-144.5 228.5t-53.5 293t53.5 291.5t144.5 227.5t214 148.5t263 53
q289 0 481 -201.5t192 -507.5t-176 -507l190 -203h-223l-88 92q-164 -117 -377 -117z" />
    <glyph glyph-name="R" unicode="R" horiz-adv-x="1331" 
d="M1024 983q0 248 -266 248h-408v-492h424q123 0 186.5 64.5t63.5 179.5zM1198 983q0 -223 -213 -317q90 -31 129 -96.5t51 -182.5l19 -170q13 -123 49 -217h-170q-35 73 -45 199l-14 166q-10 111 -59.5 160.5t-166.5 49.5h-428v-575h-174v1393h582q200 0 320 -112.5
t120 -297.5z" />
    <glyph glyph-name="S" unicode="S" horiz-adv-x="1214" 
d="M627 133q164 0 245.5 66.5t81.5 171.5t-69 163t-238 95q-168 37 -256 70.5t-175 103.5t-87 245t127 273t344 98t346 -108.5t148 -290.5h-176q-10 102 -90 172t-232 70t-222.5 -55.5t-70.5 -151.5t64 -146t228 -89q163 -38 254 -69.5t184 -105.5t93 -268t-138.5 -298
t-368.5 -104q-234 0 -383.5 130.5t-157.5 322.5h180q6 -135 105.5 -215t263.5 -80z" />
    <glyph glyph-name="T" unicode="T" horiz-adv-x="1122" 
d="M471 1231h-420v162h1020v-162h-420v-1231h-180v1231z" />
    <glyph glyph-name="U" unicode="U" horiz-adv-x="1366" 
d="M150 518v875h180v-875q0 -188 92 -286.5t263 -98.5t261 98.5t90 286.5v875h181v-875q0 -254 -148 -398.5t-386 -144.5q-235 0 -384 143.5t-149 399.5z" />
    <glyph glyph-name="V" unicode="V" horiz-adv-x="1232" 
d="M31 1393h188l352 -1022q15 -50 27 -98t23 -83q8 35 16 67t15 61.5t16 52.5l350 1022h184l-493 -1393h-185z" />
    <glyph glyph-name="W" unicode="W" horiz-adv-x="1792" 
d="M502 264q0 2 4 19.5t9 41t12.5 51t13.5 50.5l274 967h172l277 -967q10 -38 22.5 -97.5t16.5 -64.5q0 18 7 51t12 60.5t11 50.5l258 967h170l-377 -1393h-172l-272 973q-13 57 -27 117t-14 75q0 -4 -4 -24.5t-12 -66.5t-25 -101l-276 -973h-176l-375 1393h180l260 -969
q12 -48 21.5 -102t9.5 -58z" />
    <glyph glyph-name="X" unicode="X" horiz-adv-x="1169" 
d="M469 721l-422 672h195l346 -557l346 557h188l-424 -672l447 -721h-195l-370 606l-367 -606h-188z" />
    <glyph glyph-name="Y" unicode="Y" horiz-adv-x="1148" 
d="M664 0h-181v578l-460 815h188l364 -650l367 650h184l-462 -815v-578z" />
    <glyph glyph-name="Z" unicode="Z" horiz-adv-x="1124" 
d="M92 1231v162h963v-156l-768 -1075h772v-162h-993v141l778 1090h-752z" />
    <glyph glyph-name="bracketleft" unicode="[" horiz-adv-x="661" 
d="M168 1606h428v-150h-252v-1556h252v-150h-428v1856z" />
    <glyph glyph-name="backslash" unicode="\" horiz-adv-x="718" 
d="M4 1606h168l551 -1856h-168z" />
    <glyph glyph-name="bracketright" unicode="]" horiz-adv-x="661" 
d="M66 -100h251v1556h-251v150h428v-1856h-428v150z" />
    <glyph glyph-name="asciicircum" unicode="^" horiz-adv-x="1048" 
d="M436 1393h178l355 -893h-183l-262 698l-264 -698h-180z" />
    <glyph glyph-name="underscore" unicode="_" horiz-adv-x="1067" 
d="M-4 -141h1075v-168h-1075v168z" />
    <glyph glyph-name="grave" unicode="`" horiz-adv-x="1024" 
d="M233 1516h224l131 -302h-156z" />
    <glyph glyph-name="a" unicode="a" 
d="M436 123q162 0 260.5 70t98.5 192v176q-71 -62 -320 -108q-121 -23 -172 -63t-51 -116t52 -113.5t132 -37.5zM963 213q0 -115 41 -213h-166q-33 77 -39 143q-47 -72 -141 -120t-194 -48q-181 0 -279.5 74.5t-98.5 220.5q0 267 383 322q176 26 229.5 49t75 49.5t21.5 67.5
q0 92 -57.5 131t-163.5 39t-178 -43t-83 -133h-176q10 147 124.5 238t312.5 91t293.5 -88t95.5 -235v-545z" />
    <glyph glyph-name="b" unicode="b" horiz-adv-x="1251" 
d="M659.5 129q67.5 0 129 25.5t106.5 77t71.5 124t26.5 169t-26.5 172t-71.5 126.5t-106.5 78t-129 27t-128 -27t-105.5 -78t-71.5 -126.5t-26.5 -172t26.5 -169t71.5 -124t105.5 -77t128 -25.5zM322 0h-162v1524h168v-658q47 88 140.5 151.5t207.5 63.5q219 0 354 -160.5
t135 -391.5t-135.5 -392.5t-353.5 -161.5q-114 0 -209.5 62.5t-144.5 161.5v-199z" />
    <glyph glyph-name="c" unicode="c" horiz-adv-x="1116" 
d="M594 -25q-215 0 -361.5 158t-146.5 393t147 395t361 160q174 0 293 -93t160 -255h-179q-35 92 -104.5 143.5t-155.5 51.5t-146.5 -27t-105.5 -78t-70.5 -126.5t-25.5 -215.5t93 -246t241 -106q102 0 173 52t101 143h179q-37 -156 -157 -252.5t-296 -96.5z" />
    <glyph glyph-name="d" unicode="d" horiz-adv-x="1251" 
d="M591.5 129q67.5 0 128 25.5t105.5 77t72 124t27 169t-27 172t-72 126.5t-105.5 78t-128 27t-129 -27t-106.5 -78t-71.5 -126.5t-26.5 -172t26.5 -169t71.5 -124t106.5 -77t129 -25.5zM574 -25q-218 0 -353 162t-135 392t135.5 391t343.5 161q125 0 218.5 -63.5
t140.5 -151.5v658h168v-1524h-162v199q-49 -98 -145.5 -161t-210.5 -63z" />
    <glyph glyph-name="e" unicode="e" horiz-adv-x="1167" 
d="M387.5 851q-93.5 -79 -121.5 -230h635q-15 150 -98.5 229.5t-202.5 79.5t-212.5 -79zM604 -25q-223 0 -370.5 155t-147.5 395t149 398t362 158t357 -161.5t136 -444.5h-830q11 -165 111 -256.5t233 -91.5q216 0 283 168h178q-36 -140 -160.5 -230t-300.5 -90z" />
    <glyph glyph-name="f" unicode="f" horiz-adv-x="671" 
d="M373 1126v-71h262v-156h-262v-899h-168v899h-154v156h154v71q0 198 102 299t273 101l69 -6v-150q-12 0 -22 2l-41 2q-111 0 -162 -59.5t-51 -188.5z" />
    <glyph glyph-name="g" unicode="g" horiz-adv-x="1247" 
d="M829.5 257q94.5 103 94.5 281t-94.5 284t-239 106t-238.5 -105.5t-94 -284.5t94 -281.5t238.5 -102.5t239 103zM600 -293q179 0 251.5 98t72.5 271v139q-47 -94 -141.5 -154.5t-208.5 -60.5q-217 0 -352.5 157t-135.5 383t136 383.5t343 157.5q125 0 220.5 -65.5
t144.5 -157.5v197h162v-979q0 -262 -128 -393.5t-364 -131.5q-184 0 -318 91t-169 245h184q68 -180 303 -180z" />
    <glyph glyph-name="h" unicode="h" horiz-adv-x="1169" 
d="M641 1081q170 0 271.5 -117.5t101.5 -316.5v-647h-168v653q0 123 -60.5 197t-181.5 74t-198.5 -74t-77.5 -193v-657h-168v1524h168v-615q111 172 313 172z" />
    <glyph glyph-name="i" unicode="i" horiz-adv-x="491" 
d="M154 1462h184v-207h-184v207zM162 1055h168v-1055h-168v1055z" />
    <glyph glyph-name="j" unicode="j" horiz-adv-x="491" 
d="M154 1462h184v-207h-184v207zM-29 -276h33q78 0 118 36.5t40 126.5v1168h168v-1170q0 -154 -88 -233.5t-238 -79.5h-33v152z" />
    <glyph glyph-name="k" unicode="k" horiz-adv-x="1079" 
d="M328 0h-168v1524h168v-981l479 512h207l-391 -414l428 -641h-205l-344 514l-174 -184v-330z" />
    <glyph glyph-name="l" unicode="l" horiz-adv-x="495" 
d="M164 1524h168v-1524h-168v1524z" />
    <glyph glyph-name="m" unicode="m" horiz-adv-x="1763" 
d="M322 913q101 168 289 168q95 0 175 -48t123 -144q111 192 322 192q162 0 257 -101t95 -296v-684h-168v682q0 125 -60.5 183.5t-162.5 58.5t-169 -65.5t-67 -182.5v-676h-168v682q0 125 -60 183.5t-162.5 58.5t-170 -66.5t-67.5 -181.5v-676h-168v1055h162v-142z" />
    <glyph glyph-name="n" unicode="n" horiz-adv-x="1169" 
d="M641 1081q170 0 271.5 -117.5t101.5 -316.5v-647h-168v653q0 123 -60.5 197t-181.5 74t-198.5 -74t-77.5 -193v-657h-168v1055h162v-152q119 178 319 178z" />
    <glyph glyph-name="o" unicode="o" horiz-adv-x="1183" 
d="M828.5 820q-97.5 108 -235.5 108t-235.5 -107t-97.5 -293t96 -292.5t237 -106.5t237 107t96 291.5t-97.5 292.5zM591.5 -25q-106.5 0 -198.5 41t-160.5 115t-107.5 174.5t-39 219t39 221t107.5 177t160.5 116.5t198.5 42t200 -42t161 -116.5t106.5 -177t39 -221t-39 -219
t-106.5 -174.5t-161 -115t-200 -41z" />
    <glyph glyph-name="p" unicode="p" horiz-adv-x="1251" 
d="M659.5 129q67.5 0 129 25.5t106.5 77t71.5 124t26.5 169t-26.5 172t-71.5 126.5t-106.5 78t-129 27t-128 -27t-105.5 -78t-71.5 -126.5t-26.5 -172t26.5 -169t71.5 -124t105.5 -77t128 -25.5zM160 1055h162v-197q49 92 144.5 157.5t209.5 65.5q219 0 354 -160.5
t135 -391.5t-135 -392.5t-344 -161.5q-123 0 -217 60.5t-141 154.5v-618h-168v1483z" />
    <glyph glyph-name="q" unicode="q" horiz-adv-x="1251" 
d="M591.5 129q67.5 0 128 25.5t105.5 77t72 124t27 169t-27 172t-72 126.5t-105.5 78t-128 27t-129 -27t-106.5 -78t-71.5 -126.5t-26.5 -172t26.5 -169t71.5 -124t106.5 -77t129 -25.5zM574 -25q-218 0 -353 162t-135 392t135.5 391t343.5 161q125 0 220.5 -65.5
t144.5 -157.5v197h162v-1483h-168v618q-47 -94 -141.5 -154.5t-208.5 -60.5z" />
    <glyph glyph-name="r" unicode="r" horiz-adv-x="739" 
d="M160 1055h162v-178q90 159 197.5 176.5t150.5 11.5v-170q-233 20 -287.5 -92.5t-54.5 -192.5v-610h-168v1055z" />
    <glyph glyph-name="s" unicode="s" horiz-adv-x="1034" 
d="M534 127q122 0 189.5 47t67.5 119t-56.5 109t-185.5 54t-281.5 61.5t-152.5 256.5q0 127 98.5 217t286.5 90t296.5 -84t129.5 -225h-170q-20 74 -86 115t-170 41t-160.5 -44t-56.5 -107t55 -96t173 -51q118 -19 193.5 -38t162.5 -71.5t87 -214.5t-116 -247.5
t-302.5 -85.5t-312 92.5t-145.5 243.5h170q20 -78 92 -130t194 -52z" />
    <glyph glyph-name="t" unicode="t" horiz-adv-x="692" 
d="M587 -18h-28q-166 0 -262 96t-96 291v530h-154v156h154v301h168v-301h239v-156h-239v-530q0 -131 56 -181.5t150 -50.5q36 0 50 4v-153q-24 -6 -38 -6z" />
    <glyph glyph-name="u" unicode="u" horiz-adv-x="1169" 
d="M156 408v647h168v-654q0 -123 60 -195.5t180 -72.5t199 75t79 189v658h168v-1055h-162v152q-119 -177 -320 -177q-169 0 -270.5 117t-101.5 316z" />
    <glyph glyph-name="v" unicode="v" horiz-adv-x="1011" 
d="M31 1055h180l254 -717q10 -27 16.5 -56.5t14.5 -56.5t12 -55q4 30 11 56t14.5 55.5t17.5 56.5l254 717h176l-385 -1055h-180z" />
    <glyph glyph-name="w" unicode="w" horiz-adv-x="1503" 
d="M1071 229q0 8 8 41t13.5 56.5t11.5 44.5l188 684h176l-311 -1055h-174l-192 662q-18 57 -25.5 94t-11.5 55t-4 25q0 -4 -4.5 -22.5t-11 -51t-23.5 -100.5l-191 -662h-176l-309 1055h176l192 -684q11 -33 20 -80t13 -60q2 8 10.5 54.5t20.5 85.5l197 684h176l198 -684
q11 -36 18 -72.5t11 -52t4 -17.5z" />
    <glyph glyph-name="x" unicode="x" horiz-adv-x="987" 
d="M389 545l-342 510h201l246 -385l249 385h195l-344 -510l369 -545h-201l-268 422l-275 -422h-194z" />
    <glyph glyph-name="y" unicode="y" horiz-adv-x="1011" 
d="M117 -276h20q98 0 153.5 35.5t84.5 117.5l47 129l-391 1049h182l258 -725q32 -87 43 -168q4 32 11 58t14.5 54.5t17.5 55.5l248 725h176l-446 -1223q-53 -145 -156 -202.5t-240 -57.5h-22v152z" />
    <glyph glyph-name="z" unicode="z" horiz-adv-x="948" 
d="M96 899v156h766v-148l-575 -751h594v-156h-813v137l583 762h-555z" />
    <glyph glyph-name="braceleft" unicode="{" horiz-adv-x="722" 
d="M449 924q0 -197 -168 -248q86 -29 127 -88.5t41 -163.5v-350q0 -92 49 -135t159 -39v-150q-258 -21 -321.5 103t-63.5 221v356q0 104 -55 138t-147 34v143q92 0 147 34t55 139v360q0 178 111.5 257.5t273.5 66.5v-150q-109 4 -158.5 -39t-49.5 -135v-354z" />
    <glyph glyph-name="bar" unicode="|" horiz-adv-x="468" 
d="M152 1524h165v-1852h-165v1852z" />
    <glyph glyph-name="braceright" unicode="}" horiz-adv-x="706" 
d="M258 74v354q0 102 41 161.5t127 86.5q-86 29 -127 88t-41 164v350q0 92 -49 135t-160 39v150q162 13 273.5 -66t111.5 -258v-356q0 -104 55.5 -138t147.5 -34v-144q-92 0 -147.5 -33.5t-55.5 -138.5v-360q0 -180 -111.5 -258.5t-273.5 -65.5v150q109 -4 159 39t50 135z
" />
    <glyph glyph-name="asciitilde" unicode="~" horiz-adv-x="782" 
d="M415 626q90 -40 127 -40q36 0 58.5 26.5t26.5 63.5h94q-14 -145 -84 -180t-115 -35q-62 0 -154.5 39t-128.5 39t-57.5 -26t-25.5 -62h-97q14 143 84 179t126 36t146 -40z" />
    <glyph glyph-name="exclamdown" unicode="&#xa1;" horiz-adv-x="555" 
d="M184 1178h187v-220h-187v220zM205 762h145l25 -977h-195z" />
    <glyph glyph-name="cent" unicode="&#xa2;" horiz-adv-x="1116" 
d="M260 524q0 -221 148 -319l219 696l-39 2q-145 0 -236.5 -102t-91.5 -277zM86 502q0 244 146 399.5t356 155.5q45 0 86 -6l74 229h124l-81 -260q197 -80 256 -293h-179q-41 102 -125 143l-225 -710q33 -6 70 -6q104 0 177 49t103 135h179q-37 -150 -161 -244t-298 -94
q-59 0 -115 12l-76 -237h-125l88 280q-123 66 -198.5 190t-75.5 257z" />
    <glyph glyph-name="sterling" unicode="&#xa3;" horiz-adv-x="1099" 
d="M293 477q0 58 -29 135h-190v140h123q-70 133 -70 243q0 194 122.5 309t310.5 115t302.5 -110.5t122.5 -284.5h-168q-8 104 -71.5 171t-185.5 67t-187.5 -66t-65.5 -176q0 -72 24.5 -137.5t53.5 -130.5h350v-140h-301q41 -150 -2 -268.5t-133 -196.5q84 46 153 46
q68 0 108 -9.5t112 -29t135 -19.5q62 0 129 53l86 -129q-98 -84 -210 -84t-189.5 28t-118.5 41t-120.5 13t-190.5 -82l-93 144q96 68 144.5 152.5t48.5 205.5z" />
    <glyph glyph-name="yen" unicode="&#xa5;" horiz-adv-x="1095" 
d="M80 688h321l-378 705h190l340 -666l340 666h180l-381 -705h322v-115h-377v-180h377v-114h-377v-279h-180v279h-377v114h377v180h-377v115z" />
    <glyph glyph-name="brokenbar" unicode="&#xa6;" horiz-adv-x="468" 
d="M152 1524h165v-826h-165v826zM152 535h165v-863h-165v863z" />
    <glyph glyph-name="section" unicode="&#xa7;" horiz-adv-x="1089" 
d="M260 701q0 -75 55 -117t200 -79q145 -38 226 -81q97 51 97 127t-54 117t-205 81t-227 78q-92 -51 -92 -126zM565 -16q180 0 180 155q0 73 -49 115t-172 75q-122 34 -197 62.5t-154 89t-79 207.5q0 74 40 134.5t106 97.5q-58 74 -58 165q-1 158 100.5 246t264.5 88
t265.5 -88t102.5 -235h-163q-8 68 -55.5 118t-141.5 50q-203 0 -203 -158q0 -69 52 -112t174 -73q122 -31 274 -85.5t152 -270.5q0 -76 -42 -137t-108 -96q61 -78 61 -205t-91 -212t-254 -85t-270 88t-107 225h165q27 -159 207 -159z" />
    <glyph glyph-name="dieresis" unicode="&#xa8;" horiz-adv-x="1024" 
d="M227 1409h189v-195h-189v195zM606 1409h191v-195h-191v195z" />
    <glyph glyph-name="copyright" unicode="&#xa9;" horiz-adv-x="1585" 
d="M477 431q-86 95 -86 271t117 304.5t285 128.5q204 0 283 -116t98 -179h-156q-29 68 -89.5 106.5t-124.5 38.5q-119 0 -187 -84.5t-68 -198.5q0 -115 68 -199.5t176 -84.5q74 0 134 40t91 107h153q-35 -130 -142.5 -213.5t-244.5 -83.5q-75 0 -148 34t-159 129zM792.5 76
q122.5 0 230 49t233.5 183t126 394q0 129 -46 244t-126 199t-187.5 133t-230 49t-230 -49t-187.5 -133t-126 -199t-46 -245t46 -243.5t126 -198.5t187.5 -134t230 -49zM792.5 -25q-145.5 0 -274.5 57.5t-224 156t-150.5 231t-55.5 282.5t55.5 282t150.5 230.5t224 155.5
t274.5 57t274.5 -57t224 -155.5t150.5 -230.5t55.5 -283t-55.5 -282.5t-150.5 -230t-224 -156t-274.5 -57.5z" />
    <glyph glyph-name="ordfeminine" unicode="&#xaa;" horiz-adv-x="888" 
d="M223 776q0 -112 139 -112q114 0 191.5 53.5t77.5 152.5v123q-52 -42 -136 -59q-162 -34 -217 -64t-55 -94zM633 666q-90 -131 -280 -131q-191 0 -237 87.5t-46 151.5q0 122 90.5 178.5t236.5 81.5q146 26 189 48t43 79q0 125 -176 125q-78 0 -125 -36t-56 -97h-161
q6 119 99 192.5t252 73.5t241.5 -68.5t82.5 -189.5v-436q0 -88 33 -170h-155q-25 57 -31 111z" />
    <glyph glyph-name="guillemotleft" unicode="&#xab;" horiz-adv-x="968" 
d="M518 449v159l379 344v-221l-242 -199l242 -202v-219zM61 449v165l381 338v-221l-237 -199l237 -202v-219z" />
    <glyph glyph-name="logicalnot" unicode="&#xac;" horiz-adv-x="473" 
d="M131 801h211v-223h-211v223z" />
    <glyph glyph-name="registered" unicode="&#xae;" horiz-adv-x="1110" 
d="M586 954q35 0 56.5 18.5t21.5 53.5q0 70 -78 70h-121v-142h121zM780 782v-125h-112v125q0 74 -74 74h-129v-197h-113v531h240q80 0 135 -42t55 -124t-82 -113q80 -26 80 -129zM554 500q171 0 280.5 120.5t109.5 295.5t-109 297t-281 122t-281 -122t-109 -297
t109.5 -295.5t280.5 -120.5zM555 410q-102 0 -192.5 38.5t-157 106.5t-105.5 161t-39 201.5t39 201.5t105.5 161t157 106.5t192.5 38.5t192.5 -38.5t157 -106.5t105.5 -161t39 -201.5t-39 -201.5t-105.5 -161t-157 -106.5t-192.5 -38.5z" />
    <glyph glyph-name="macron" unicode="&#xaf;" horiz-adv-x="1024" 
d="M244 1417h536v-143h-536v143z" />
    <glyph glyph-name="macron" unicode="&#x2c9;" horiz-adv-x="1024" 
d="M244 1417h536v-143h-536v143z" />
    <glyph glyph-name="degree" unicode="&#xb0;" horiz-adv-x="763" 
d="M382 897q77 0 125 54.5t48 132.5t-48 134t-125 56t-126 -55.5t-49 -134.5t49 -133t126 -54zM380.5 776q-61.5 0 -116.5 24.5t-97 66.5t-66.5 98.5t-24.5 120t24.5 119t66.5 97t97 66.5t116.5 25t118 -25t98.5 -66.5t66.5 -97t24.5 -119t-24.5 -120t-66.5 -98.5
t-98.5 -66.5t-118 -24.5z" />
    <glyph glyph-name="plusminus" unicode="&#xb1;" horiz-adv-x="473" 
d="M131 801h211v-223h-211v223z" />
    <glyph glyph-name="twosuperior" unicode="&#xb2;" horiz-adv-x="706" 
d="M59 621q0 181 102.5 249t156.5 98q107 60 140.5 98.5t33.5 87.5q0 48 -29 85t-103 37t-111.5 -46t-39.5 -118h-137q0 120 75 204.5t208 84.5q134 0 206 -72t72 -176t-57 -161t-164 -117t-153 -100t-50 -89h418v-129h-568v64z" />
    <glyph glyph-name="threesuperior" unicode="&#xb3;" horiz-adv-x="704" 
d="M645 801q0 -108 -80.5 -183t-218.5 -75t-215.5 76t-81.5 194h137q9 -143 162 -143q74 0 116 37.5t42 95t-34 93.5t-126 36h-47v121h25q92 0 123.5 30.5t31.5 81.5t-32.5 81t-101.5 30t-101.5 -42t-34.5 -95h-135q0 113 76 187.5t201 74.5q126 0 195.5 -65.5t69.5 -159.5
q0 -123 -112 -172q141 -48 141 -203z" />
    <glyph glyph-name="acute" unicode="&#xb4;" horiz-adv-x="1024" 
d="M567 1516h224l-199 -302h-156z" />
    <glyph glyph-name="mu" unicode="&#xb5;" horiz-adv-x="473" 
d="M131 801h211v-223h-211v223z" />
    <glyph glyph-name="mu" unicode="&#x3bc;" horiz-adv-x="473" 
d="M131 801h211v-223h-211v223z" />
    <glyph glyph-name="paragraph" unicode="&#xb6;" horiz-adv-x="1099" 
d="M179 1277q116 116 321 116h463v-1680h-156v1530h-189v-1530h-155v838q-188 12 -294 126t-106 299t116 301z" />
    <glyph glyph-name="periodcentered" unicode="&#xb7;" horiz-adv-x="473" 
d="M131 801h211v-223h-211v223z" />
    <glyph glyph-name="periodcentered" unicode="&#x2219;" horiz-adv-x="473" 
d="M131 801h211v-223h-211v223z" />
    <glyph glyph-name="cedilla" unicode="&#xb8;" horiz-adv-x="1024" 
d="M522 -207q-39 0 -78 -33l-71 58l104 182h131l-73 -113q8 2 28 2q76 0 132.5 -48t56.5 -136t-65.5 -138t-155.5 -50q-91 0 -158.5 44t-79.5 117h129q23 -57 98 -57q41 0 67.5 23.5t26.5 61.5t-26.5 62.5t-65.5 24.5z" />
    <glyph glyph-name="onesuperior" unicode="&#xb9;" horiz-adv-x="495" 
d="M195 1174h-134v94q61 2 106.5 30.5t49.5 94.5h117v-836h-139v617z" />
    <glyph glyph-name="ordmasculine" unicode="&#xba;" horiz-adv-x="950" 
d="M476 670q108 0 178.5 77.5t70.5 226.5t-70.5 229.5t-178.5 80.5t-179.5 -81t-71.5 -229t71.5 -226t179.5 -78zM66 974q0 189 119 317t292 128q172 0 290 -127.5t118 -317.5q0 -189 -117.5 -314t-291.5 -125q-172 0 -291 125t-119 314z" />
    <glyph glyph-name="guillemotright" unicode="&#xbb;" horiz-adv-x="968" 
d="M72 332l241 198l-241 203v219l379 -338v-159l-379 -344v221zM526 332l238 198l-238 203v219l381 -338v-165l-381 -338v221z" />
    <glyph glyph-name="onequarter" unicode="&#xbc;" horiz-adv-x="1597" 
d="M1307 303v359l-242 -359h242zM207 1174h-133v94q61 2 106 30.5t49 94.5h117v-836h-139v617zM1055 1393h159l-784 -1393h-158zM1307 180h-383v119l358 537h158v-533h88v-123h-88v-180h-133v180z" />
    <glyph glyph-name="onehalf" unicode="&#xbd;" horiz-adv-x="1667" 
d="M207 1174h-133v94q61 2 106 30.5t49 94.5h117v-836h-139v617zM1055 1393h159l-784 -1393h-158zM1008 63q0 181 102 249.5t156 98.5q110 60 142 98.5t32 86.5q0 49 -29 86t-103 37t-111.5 -46t-39.5 -118h-137q0 120 75 204.5t209 84.5t205.5 -72.5t71.5 -171.5
q0 -151 -99.5 -210.5t-163.5 -95.5t-110.5 -76t-50.5 -89h418v-129h-567v63z" />
    <glyph glyph-name="threequarters" unicode="&#xbe;" horiz-adv-x="1806" 
d="M1516 303v359l-242 -359h242zM1264 1393h159l-784 -1393h-158zM657 801q0 -107 -79.5 -182.5t-218.5 -75.5t-216.5 76t-81.5 194h138q4 -66 43.5 -104.5t115.5 -38.5t118 37.5t42 95t-33.5 93.5t-126.5 36h-47v121h25q92 0 124 30.5t32 81.5t-33 81t-101 30t-101.5 -42
t-35.5 -95h-135q0 113 76.5 187.5t201.5 74.5t195 -66t70 -159q0 -123 -113 -172q141 -48 141 -203zM1516 180h-383v119l358 537h158v-533h88v-123h-88v-180h-133v180z" />
    <glyph glyph-name="questiondown" unicode="&#xbf;" horiz-adv-x="1044" 
d="M475 1178h187v-220h-187v220zM274 115q0 -203 244 -203q129 0 201 70.5t76 179.5h168q0 -169 -123 -286.5t-319 -117.5t-310.5 95t-114.5 266t98 256t160 130.5t98.5 86.5t36.5 135v35h156v-35q0 -146 -48 -209t-91.5 -96t-103.5 -78t-94 -98t-34 -131z" />
    <glyph glyph-name="Agrave" unicode="&#xc0;" horiz-adv-x="1263" 
d="M344 1796h223l131 -301h-155zM403 530h455l-176 504l-49 168q-9 -32 -17 -58t-15 -55.5t-17 -54.5zM545 1393h184l500 -1393h-185l-131 371h-567l-131 -371h-180z" />
    <glyph glyph-name="Aacute" unicode="&#xc1;" horiz-adv-x="1263" 
d="M698 1796h224l-199 -301h-156zM403 530h455l-176 504l-49 168q-9 -32 -17 -58t-15 -55.5t-17 -54.5zM545 1393h184l500 -1393h-185l-131 371h-567l-131 -371h-180z" />
    <glyph glyph-name="Acircumflex" unicode="&#xc2;" horiz-adv-x="1263" 
d="M567 1810h131l234 -315h-152l-147 162l-148 -162h-149zM403 530h455l-176 504l-49 168q-9 -32 -17 -58t-15 -55.5t-17 -54.5zM545 1393h184l500 -1393h-185l-131 371h-567l-131 -371h-180z" />
    <glyph glyph-name="Atilde" unicode="&#xc3;" horiz-adv-x="1263" 
d="M512 1735q61 0 118.5 -33t85 -48.5t59.5 -15.5t52.5 28t24.5 69h115q-10 -104 -66.5 -175t-146.5 -71q-59 0 -117.5 32.5t-86.5 48t-58 15.5t-52 -27.5t-26 -68.5h-115q10 104 66.5 175t146.5 71zM403 530h455l-176 504l-49 168q-9 -32 -17 -58t-15 -55.5t-17 -54.5z
M545 1393h184l500 -1393h-185l-131 371h-567l-131 -371h-180z" />
    <glyph glyph-name="Adieresis" unicode="&#xc4;" horiz-adv-x="1263" 
d="M348 1690h189v-195h-189v195zM727 1690h191v-195h-191v195zM403 530h455l-176 504l-49 168q-9 -32 -17 -58t-15 -55.5t-17 -54.5zM545 1393h184l500 -1393h-185l-131 371h-567l-131 -371h-180z" />
    <glyph glyph-name="Aring" unicode="&#xc5;" horiz-adv-x="1263" 
d="M631 1563q53 0 89 37.5t36 95t-36 96.5t-89 39t-89 -39t-36 -96.5t36 -95t89 -37.5zM466 1535q-67 67 -67 162t67.5 161.5t163.5 66.5t164 -66t68 -162t-68 -162.5t-164 -66.5q-97 0 -164 67zM403 530h455l-176 504l-49 168q-9 -32 -17 -58t-15 -55.5t-17 -54.5z
M545 1393h184l500 -1393h-185l-131 371h-567l-131 -371h-180z" />
    <glyph glyph-name="AE" unicode="&#xc6;" horiz-adv-x="1900" 
d="M932 565v666h-156l-311 -666h467zM1792 1393v-162h-680v-418h569v-162h-569v-489h690v-162h-870v406h-541l-188 -406h-180l649 1393h1120z" />
    <glyph glyph-name="Ccedilla" unicode="&#xc7;" horiz-adv-x="1425" 
d="M737 -207q-39 0 -78 -33l-71 58l92 164q-248 28 -418 226t-170 500t195 506.5t473 204.5q242 0 392.5 -124t205.5 -332h-176q-104 299 -422 299q-208 0 -344.5 -154.5t-136.5 -410t137.5 -410t347.5 -154.5q156 0 267.5 84t152.5 225h182q-57 -209 -199.5 -330.5
t-359.5 -134.5l-57 -90q8 2 28 2q76 0 132.5 -48t56.5 -136t-65.5 -138t-155.5 -50q-91 0 -158.5 44t-79.5 117h129q23 -57 98 -57q41 0 67.5 23.5t26.5 61.5t-26.5 62.5t-65.5 24.5z" />
    <glyph glyph-name="Egrave" unicode="&#xc8;" horiz-adv-x="1202" 
d="M358 1796h224l131 -301h-156zM176 1393h918v-162h-738v-418h627v-162h-627v-489h748v-162h-928v1393z" />
    <glyph glyph-name="Eacute" unicode="&#xc9;" horiz-adv-x="1202" 
d="M672 1796h223l-199 -301h-155zM176 1393h918v-162h-738v-418h627v-162h-627v-489h748v-162h-928v1393z" />
    <glyph glyph-name="Ecircumflex" unicode="&#xca;" horiz-adv-x="1202" 
d="M569 1810h131l234 -315h-152l-147 162l-148 -162h-149zM176 1393h918v-162h-738v-418h627v-162h-627v-489h748v-162h-928v1393z" />
    <glyph glyph-name="Edieresis" unicode="&#xcb;" horiz-adv-x="1202" 
d="M362 1690h189v-195h-189v195zM741 1690h191v-195h-191v195zM176 1393h918v-162h-738v-418h627v-162h-627v-489h748v-162h-928v1393z" />
    <glyph glyph-name="Igrave" unicode="&#xcc;" horiz-adv-x="544" 
d="M-16 1796h223l131 -301h-156zM182 1393h180v-1393h-180v1393z" />
    <glyph glyph-name="Iacute" unicode="&#xcd;" horiz-adv-x="544" 
d="M338 1796h223l-199 -301h-155zM182 1393h180v-1393h-180v1393z" />
    <glyph glyph-name="Icircumflex" unicode="&#xce;" horiz-adv-x="544" 
d="M207 1810h131l233 -315h-151l-148 162l-147 -162h-150zM182 1393h180v-1393h-180v1393z" />
    <glyph glyph-name="Idieresis" unicode="&#xcf;" horiz-adv-x="544" 
d="M-12 1690h188v-195h-188v195zM367 1690h190v-195h-190v195zM182 1393h180v-1393h-180v1393z" />
    <glyph glyph-name="Eth" unicode="&#xd0;" horiz-adv-x="1390" 
d="M637 160q217 0 346 133t129 405q0 271 -127 403t-348 132h-281v-428h385v-156h-385v-489h281zM47 805h129v588h461q301 0 481 -186t180 -507t-178 -510.5t-483 -189.5h-461v649h-129v156z" />
    <glyph glyph-name="Ntilde" unicode="&#xd1;" horiz-adv-x="1404" 
d="M598 1735q61 0 118.5 -33t85 -48.5t59.5 -15.5t52.5 28t24.5 69h115q-10 -104 -66.5 -175t-146.5 -71q-59 0 -117.5 32.5t-86.5 48t-58 15.5t-52 -27.5t-26 -68.5h-115q10 104 66.5 175t146.5 71zM176 1393h199l690 -1112v1112h164v-1393h-182l-707 1137v-1137h-164v1393
z" />
    <glyph glyph-name="Ograve" unicode="&#xd2;" horiz-adv-x="1531" 
d="M475 1796h223l131 -301h-155zM1253 700q0 258 -134.5 410t-349.5 152t-352.5 -153.5t-137.5 -410t137.5 -411t349.5 -154.5t349.5 154.5t137.5 412.5zM766 -25q-139 0 -262 53.5t-214 148.5t-144.5 228.5t-53.5 293t53.5 291.5t144.5 227.5t214 148.5t263 53
q289 0 481 -201.5t192 -519.5q0 -160 -53.5 -293t-144.5 -228t-214 -148.5t-262 -53.5z" />
    <glyph glyph-name="Oacute" unicode="&#xd3;" horiz-adv-x="1531" 
d="M829 1796h224l-199 -301h-156zM1253 700q0 258 -134.5 410t-349.5 152t-352.5 -153.5t-137.5 -410t137.5 -411t349.5 -154.5t349.5 154.5t137.5 412.5zM766 -25q-139 0 -262 53.5t-214 148.5t-144.5 228.5t-53.5 293t53.5 291.5t144.5 227.5t214 148.5t263 53
q289 0 481 -201.5t192 -519.5q0 -160 -53.5 -293t-144.5 -228t-214 -148.5t-262 -53.5z" />
    <glyph glyph-name="Ocircumflex" unicode="&#xd4;" horiz-adv-x="1531" 
d="M698 1810h131l234 -315h-152l-147 162l-148 -162h-149zM1253 700q0 258 -134.5 410t-349.5 152t-352.5 -153.5t-137.5 -410t137.5 -411t349.5 -154.5t349.5 154.5t137.5 412.5zM766 -25q-139 0 -262 53.5t-214 148.5t-144.5 228.5t-53.5 293t53.5 291.5t144.5 227.5
t214 148.5t263 53q289 0 481 -201.5t192 -519.5q0 -160 -53.5 -293t-144.5 -228t-214 -148.5t-262 -53.5z" />
    <glyph glyph-name="Otilde" unicode="&#xd5;" horiz-adv-x="1531" 
d="M643 1735q61 0 118.5 -33t85 -48.5t59.5 -15.5t52.5 28t24.5 69h115q-10 -104 -66.5 -175t-146.5 -71q-59 0 -117.5 32.5t-87 48t-58.5 15.5t-51.5 -27.5t-25.5 -68.5h-115q10 104 66.5 175t146.5 71zM1253 700q0 258 -134.5 410t-349.5 152t-352.5 -153.5t-137.5 -410
t137.5 -411t349.5 -154.5t349.5 154.5t137.5 412.5zM766 -25q-139 0 -262 53.5t-214 148.5t-144.5 228.5t-53.5 293t53.5 291.5t144.5 227.5t214 148.5t263 53q289 0 481 -201.5t192 -519.5q0 -160 -53.5 -293t-144.5 -228t-214 -148.5t-262 -53.5z" />
    <glyph glyph-name="Odieresis" unicode="&#xd6;" horiz-adv-x="1531" 
d="M479 1690h189v-195h-189v195zM858 1690h191v-195h-191v195zM1253 700q0 258 -134.5 410t-349.5 152t-352.5 -153.5t-137.5 -410t137.5 -411t349.5 -154.5t349.5 154.5t137.5 412.5zM766 -25q-139 0 -262 53.5t-214 148.5t-144.5 228.5t-53.5 293t53.5 291.5t144.5 227.5
t214 148.5t263 53q289 0 481 -201.5t192 -519.5q0 -160 -53.5 -293t-144.5 -228t-214 -148.5t-262 -53.5z" />
    <glyph glyph-name="multiply" unicode="&#xd7;" horiz-adv-x="1019" 
d="M219 999l291 -290l291 290l100 -100l-291 -291l291 -291l-100 -100l-291 291l-291 -291l-100 100l291 291l-291 291z" />
    <glyph glyph-name="Oslash" unicode="&#xd8;" horiz-adv-x="1531" 
d="M279 668q0 -158 75 -293l727 770q-129 117 -328 117t-336.5 -154t-137.5 -440zM442 258q140 -125 338 -125t335.5 154.5t137.5 410.5q0 199 -82 334zM92 698q0 312 144.5 463.5t267.5 204.5t262 53q248 0 428 -153l164 174l102 -101l-166 -178q146 -198 146 -463
q0 -160 -53.5 -293t-144.5 -228t-214 -148.5t-262 -53.5q-253 0 -436 162l-172 -182l-103 100l178 189q-141 197 -141 454z" />
    <glyph glyph-name="Ugrave" unicode="&#xd9;" horiz-adv-x="1366" 
d="M422 1796h223l131 -301h-155zM150 518v875h180v-875q0 -188 92 -286.5t263 -98.5t261 98.5t90 286.5v875h181v-875q0 -254 -148 -398.5t-386 -144.5q-235 0 -384 143.5t-149 399.5z" />
    <glyph glyph-name="Uacute" unicode="&#xda;" horiz-adv-x="1366" 
d="M750 1796h223l-199 -301h-156zM150 518v875h180v-875q0 -188 92 -286.5t263 -98.5t261 98.5t90 286.5v875h181v-875q0 -254 -148 -398.5t-386 -144.5q-235 0 -384 143.5t-149 399.5z" />
    <glyph glyph-name="Ucircumflex" unicode="&#xdb;" horiz-adv-x="1366" 
d="M618 1810h132l233 -315h-152l-147 162l-147 -162h-150zM150 518v875h180v-875q0 -188 92 -286.5t263 -98.5t261 98.5t90 286.5v875h181v-875q0 -254 -148 -398.5t-386 -144.5q-235 0 -384 143.5t-149 399.5z" />
    <glyph glyph-name="Udieresis" unicode="&#xdc;" horiz-adv-x="1366" 
d="M399 1690h189v-195h-189v195zM778 1690h191v-195h-191v195zM150 518v875h180v-875q0 -188 92 -286.5t263 -98.5t261 98.5t90 286.5v875h181v-875q0 -254 -148 -398.5t-386 -144.5q-235 0 -384 143.5t-149 399.5z" />
    <glyph glyph-name="Yacute" unicode="&#xdd;" horiz-adv-x="1148" 
d="M641 1796h223l-198 -301h-156zM664 0h-181v578l-460 815h188l364 -650l367 650h184l-462 -815v-578z" />
    <glyph glyph-name="Thorn" unicode="&#xde;" horiz-adv-x="1251" 
d="M741 489q117 0 190 60.5t73 198t-73 199t-190 61.5h-385v-519h385zM176 1393h180v-224h385q313 0 379 -164.5t66 -303t-119 -256t-326 -117.5h-385v-328h-180v1393z" />
    <glyph glyph-name="germandbls" unicode="&#xdf;" horiz-adv-x="1222" 
d="M1137 448q0 -228 -133 -350.5t-347 -122.5q-98 0 -194 29v158q97 -33 194 -33q139 0 223.5 77t84.5 223t-91 226t-231 80h-129v156h74q133 0 202.5 69.5t69.5 177.5t-69.5 170t-180.5 62q-193 0 -242 -112.5t-49 -200.5v-1057h-167v1057q0 214 128.5 340.5t321.5 126.5
t308.5 -110t115.5 -279q-4 -207 -180 -297q143 -47 217 -156.5t74 -233.5z" />
    <glyph glyph-name="agrave" unicode="&#xe0;" 
d="M276 1516h224l131 -302h-156zM436 123q162 0 260.5 70t98.5 192v176q-71 -62 -320 -108q-121 -23 -172 -63t-51 -116t52 -113.5t132 -37.5zM963 213q0 -115 41 -213h-166q-33 77 -39 143q-47 -72 -141 -120t-194 -48q-181 0 -279.5 74.5t-98.5 220.5q0 267 383 322
q176 26 229.5 49t75 49.5t21.5 67.5q0 92 -57.5 131t-163.5 39t-178 -43t-83 -133h-176q10 147 124.5 238t312.5 91t293.5 -88t95.5 -235v-545z" />
    <glyph glyph-name="aacute" unicode="&#xe1;" 
d="M631 1516h223l-199 -302h-155zM436 123q162 0 260.5 70t98.5 192v176q-71 -62 -320 -108q-121 -23 -172 -63t-51 -116t52 -113.5t132 -37.5zM963 213q0 -115 41 -213h-166q-33 77 -39 143q-47 -72 -141 -120t-194 -48q-181 0 -279.5 74.5t-98.5 220.5q0 267 383 322
q176 26 229.5 49t75 49.5t21.5 67.5q0 92 -57.5 131t-163.5 39t-178 -43t-83 -133h-176q10 147 124.5 238t312.5 91t293.5 -88t95.5 -235v-545z" />
    <glyph glyph-name="acircumflex" unicode="&#xe2;" 
d="M500 1530h131l233 -316h-151l-148 162l-147 -162h-150zM436 123q162 0 260.5 70t98.5 192v176q-71 -62 -320 -108q-121 -23 -172 -63t-51 -116t52 -113.5t132 -37.5zM963 213q0 -115 41 -213h-166q-33 77 -39 143q-47 -72 -141 -120t-194 -48q-181 0 -279.5 74.5
t-98.5 220.5q0 267 383 322q176 26 229.5 49t75 49.5t21.5 67.5q0 92 -57.5 131t-163.5 39t-178 -43t-83 -133h-176q10 147 124.5 238t312.5 91t293.5 -88t95.5 -235v-545z" />
    <glyph glyph-name="atilde" unicode="&#xe3;" 
d="M444 1454q58 0 117.5 -32.5t87 -48t59.5 -15.5t52 27.5t24 68.5h115q-10 -104 -66.5 -175t-146.5 -71q-61 0 -118.5 33t-85 48.5t-58.5 15.5t-52.5 -28t-25.5 -69h-115q10 104 66.5 175t146.5 71zM436 123q162 0 260.5 70t98.5 192v176q-71 -62 -320 -108
q-121 -23 -172 -63t-51 -116t52 -113.5t132 -37.5zM963 213q0 -115 41 -213h-166q-33 77 -39 143q-47 -72 -141 -120t-194 -48q-181 0 -279.5 74.5t-98.5 220.5q0 267 383 322q176 26 229.5 49t75 49.5t21.5 67.5q0 92 -57.5 131t-163.5 39t-178 -43t-83 -133h-176
q10 147 124.5 238t312.5 91t293.5 -88t95.5 -235v-545z" />
    <glyph glyph-name="adieresis" unicode="&#xe4;" 
d="M281 1409h188v-195h-188v195zM659 1409h191v-195h-191v195zM436 123q162 0 260.5 70t98.5 192v176q-71 -62 -320 -108q-121 -23 -172 -63t-51 -116t52 -113.5t132 -37.5zM963 213q0 -115 41 -213h-166q-33 77 -39 143q-47 -72 -141 -120t-194 -48q-181 0 -279.5 74.5
t-98.5 220.5q0 267 383 322q176 26 229.5 49t75 49.5t21.5 67.5q0 92 -57.5 131t-163.5 39t-178 -43t-83 -133h-176q10 147 124.5 238t312.5 91t293.5 -88t95.5 -235v-545z" />
    <glyph glyph-name="aring" unicode="&#xe5;" 
d="M563 1262q53 0 89 37.5t36 95t-36 96.5t-89 39t-89 -39t-36 -96.5t36 -95t89 -37.5zM398 1234.5q-66 67.5 -66 161.5q0 95 66.5 161.5t162.5 66.5t165 -65.5t69 -162.5q0 -96 -68.5 -162.5t-165.5 -66.5t-163 67.5zM436 123q162 0 260.5 70t98.5 192v176
q-71 -62 -320 -108q-121 -23 -172 -63t-51 -116t52 -113.5t132 -37.5zM963 213q0 -115 41 -213h-166q-33 77 -39 143q-47 -72 -141 -120t-194 -48q-181 0 -279.5 74.5t-98.5 220.5q0 267 383 322q176 26 229.5 49t75 49.5t21.5 67.5q0 92 -57.5 131t-163.5 39t-178 -43
t-83 -133h-176q10 147 124.5 238t312.5 91t293.5 -88t95.5 -235v-545z" />
    <glyph glyph-name="ae" unicode="&#xe6;" horiz-adv-x="1873" 
d="M1093.5 850q-94.5 -80 -120.5 -229h635q-15 149 -99 229t-202 80q-119 0 -213.5 -80zM436 123q161 0 261 70t100 192v176q-70 -62 -322 -108q-121 -23 -172 -63t-51 -116t52 -113.5t132 -37.5zM1311 127q217 0 282 168h179q-36 -139 -161 -229.5t-283 -90.5t-272 64.5
t-179 181.5q-66 -129 -186 -187.5t-224 -58.5q-185 0 -283 74.5t-98 220.5q0 267 383 322q176 26 229.5 49t74 49.5t20.5 67.5q0 92 -56.5 131t-162.5 39t-178 -43t-83 -133h-176q10 147 125 238t303 91q289 0 365 -190q139 190 363 190t367.5 -161.5t135.5 -444.5h-829
q11 -166 110.5 -257t233.5 -91z" />
    <glyph glyph-name="ccedilla" unicode="&#xe7;" horiz-adv-x="1116" 
d="M570 -207q-40 0 -76 -33l-72 58l94 164q-188 29 -309 180.5t-121 374.5q0 224 147 384t361 160q174 0 293 -93t160 -255h-179q-35 92 -104.5 143.5t-155.5 51.5t-146.5 -27t-105.5 -78t-70.5 -126.5t-25.5 -215.5t93 -246t241 -106q102 0 173 52t101 143h179
q-35 -145 -141.5 -238.5t-264.5 -108.5l-57 -90q8 2 28 2q76 0 132.5 -48t56.5 -136t-65.5 -138t-155.5 -50t-158 44t-80 117h129q23 -57 98 -57q41 0 68 23.5t27 61.5t-27 62.5t-67 24.5z" />
    <glyph glyph-name="egrave" unicode="&#xe8;" horiz-adv-x="1167" 
d="M317 1516h224l131 -302h-156zM387.5 851q-93.5 -79 -121.5 -230h635q-15 150 -98.5 229.5t-202.5 79.5t-212.5 -79zM604 -25q-223 0 -370.5 155t-147.5 395t149 398t362 158t357 -161.5t136 -444.5h-830q11 -165 111 -256.5t233 -91.5q216 0 283 168h178
q-36 -140 -160.5 -230t-300.5 -90z" />
    <glyph glyph-name="eacute" unicode="&#xe9;" horiz-adv-x="1167" 
d="M672 1516h223l-199 -302h-155zM387.5 851q-93.5 -79 -121.5 -230h635q-15 150 -98.5 229.5t-202.5 79.5t-212.5 -79zM604 -25q-223 0 -370.5 155t-147.5 395t149 398t362 158t357 -161.5t136 -444.5h-830q11 -165 111 -256.5t233 -91.5q216 0 283 168h178
q-36 -140 -160.5 -230t-300.5 -90z" />
    <glyph glyph-name="ecircumflex" unicode="&#xea;" horiz-adv-x="1167" 
d="M541 1530h131l233 -316h-151l-148 162l-147 -162h-150zM387.5 851q-93.5 -79 -121.5 -230h635q-15 150 -98.5 229.5t-202.5 79.5t-212.5 -79zM604 -25q-223 0 -370.5 155t-147.5 395t149 398t362 158t357 -161.5t136 -444.5h-830q11 -165 111 -256.5t233 -91.5
q216 0 283 168h178q-36 -140 -160.5 -230t-300.5 -90z" />
    <glyph glyph-name="edieresis" unicode="&#xeb;" horiz-adv-x="1167" 
d="M322 1409h188v-195h-188v195zM700 1409h191v-195h-191v195zM387.5 851q-93.5 -79 -121.5 -230h635q-15 150 -98.5 229.5t-202.5 79.5t-212.5 -79zM604 -25q-223 0 -370.5 155t-147.5 395t149 398t362 158t357 -161.5t136 -444.5h-830q11 -165 111 -256.5t233 -91.5
q216 0 283 168h178q-36 -140 -160.5 -230t-300.5 -90z" />
    <glyph glyph-name="igrave" unicode="&#xec;" horiz-adv-x="491" 
d="M-43 1597h223l131 -301h-155zM162 1055h168v-1055h-168v1055z" />
    <glyph glyph-name="iacute" unicode="&#xed;" horiz-adv-x="491" 
d="M311 1597h224l-199 -301h-156zM162 1055h168v-1055h-168v1055z" />
    <glyph glyph-name="icircumflex" unicode="&#xee;" horiz-adv-x="491" 
d="M180 1612h131l234 -316h-152l-147 162l-148 -162h-149zM162 1055h168v-1055h-168v1055z" />
    <glyph glyph-name="idieresis" unicode="&#xef;" horiz-adv-x="491" 
d="M-39 1491h189v-195h-189v195zM340 1491h190v-195h-190v195zM162 1055h168v-1055h-168v1055z" />
    <glyph glyph-name="eth" unicode="&#xf0;" horiz-adv-x="1183" 
d="M830 786q-96 103 -240 103t-237 -105t-93 -281t95 -275t238 -99t238 101.5t95 277t-96 278.5zM1098 547q0 -257 -137.5 -414.5t-359.5 -157.5t-368.5 151.5t-146.5 377.5t142 381t320 155t292 -108q-81 158 -236 305l-137 -104l-74 90l121 92q-66 53 -131 94l86 123
q122 -76 174 -119l139 105l76 -88l-125 -95q365 -345 365 -788z" />
    <glyph glyph-name="ntilde" unicode="&#xf1;" horiz-adv-x="1169" 
d="M459 1454q57 0 116.5 -32.5t87 -48t59.5 -15.5t52.5 27.5t24.5 68.5h114q-10 -104 -66 -175t-147 -71q-59 0 -117.5 33t-86 48.5t-58.5 15.5t-52 -28t-26 -69h-114q10 104 66.5 175t146.5 71zM641 1081q170 0 271.5 -117.5t101.5 -316.5v-647h-168v653q0 123 -60.5 197
t-181.5 74t-198.5 -74t-77.5 -193v-657h-168v1055h162v-152q119 178 319 178z" />
    <glyph glyph-name="ograve" unicode="&#xf2;" horiz-adv-x="1183" 
d="M305 1516h223l131 -302h-155zM828.5 820q-97.5 108 -235.5 108t-235.5 -107t-97.5 -293t96 -292.5t237 -106.5t237 107t96 291.5t-97.5 292.5zM591.5 -25q-106.5 0 -198.5 41t-160.5 115t-107.5 174.5t-39 219t39 221t107.5 177t160.5 116.5t198.5 42t200 -42t161 -116.5
t106.5 -177t39 -221t-39 -219t-106.5 -174.5t-161 -115t-200 -41z" />
    <glyph glyph-name="oacute" unicode="&#xf3;" horiz-adv-x="1183" 
d="M659 1516h224l-199 -302h-156zM828.5 820q-97.5 108 -235.5 108t-235.5 -107t-97.5 -293t96 -292.5t237 -106.5t237 107t96 291.5t-97.5 292.5zM591.5 -25q-106.5 0 -198.5 41t-160.5 115t-107.5 174.5t-39 219t39 221t107.5 177t160.5 116.5t198.5 42t200 -42
t161 -116.5t106.5 -177t39 -221t-39 -219t-106.5 -174.5t-161 -115t-200 -41z" />
    <glyph glyph-name="ocircumflex" unicode="&#xf4;" horiz-adv-x="1183" 
d="M528 1530h131l234 -316h-152l-147 162l-148 -162h-149zM828.5 820q-97.5 108 -235.5 108t-235.5 -107t-97.5 -293t96 -292.5t237 -106.5t237 107t96 291.5t-97.5 292.5zM591.5 -25q-106.5 0 -198.5 41t-160.5 115t-107.5 174.5t-39 219t39 221t107.5 177t160.5 116.5
t198.5 42t200 -42t161 -116.5t106.5 -177t39 -221t-39 -219t-106.5 -174.5t-161 -115t-200 -41z" />
    <glyph glyph-name="otilde" unicode="&#xf5;" horiz-adv-x="1183" 
d="M473 1454q59 0 117.5 -32.5t86 -48t59.5 -15.5t52.5 27.5t24.5 68.5h115q-10 -104 -66.5 -175t-146.5 -71q-61 0 -118.5 33t-86 48.5t-58.5 15.5t-51.5 -28t-25.5 -69h-115q10 104 66.5 175t146.5 71zM828.5 820q-97.5 108 -235.5 108t-235.5 -107t-97.5 -293t96 -292.5
t237 -106.5t237 107t96 291.5t-97.5 292.5zM591.5 -25q-106.5 0 -198.5 41t-160.5 115t-107.5 174.5t-39 219t39 221t107.5 177t160.5 116.5t198.5 42t200 -42t161 -116.5t106.5 -177t39 -221t-39 -219t-106.5 -174.5t-161 -115t-200 -41z" />
    <glyph glyph-name="odieresis" unicode="&#xf6;" horiz-adv-x="1183" 
d="M309 1409h189v-195h-189v195zM688 1409h191v-195h-191v195zM828.5 820q-97.5 108 -235.5 108t-235.5 -107t-97.5 -293t96 -292.5t237 -106.5t237 107t96 291.5t-97.5 292.5zM591.5 -25q-106.5 0 -198.5 41t-160.5 115t-107.5 174.5t-39 219t39 221t107.5 177t160.5 116.5
t198.5 42t200 -42t161 -116.5t106.5 -177t39 -221t-39 -219t-106.5 -174.5t-161 -115t-200 -41z" />
    <glyph glyph-name="divide" unicode="&#xf7;" horiz-adv-x="1019" 
d="M410 1044h200v-196h-200v196zM410 385h200v-197h-200v197zM94 690h832v-147h-832v147z" />
    <glyph glyph-name="oslash" unicode="&#xf8;" horiz-adv-x="1183" 
d="M799 852q-88 76 -216 76t-225.5 -107t-97.5 -312q0 -111 45 -204zM926 524q0 123 -49 228l-496 -547q84 -76 219 -76t230.5 107t95.5 288zM86 524q0 239 146 398t360 159q171 0 311 -114l137 151l97 -80l-150 -164q111 -151 111 -367t-144 -374t-362 -158
q-180 0 -313 115l-138 -151l-94 81l146 162q-107 147 -107 342z" />
    <glyph glyph-name="ugrave" unicode="&#xf9;" horiz-adv-x="1169" 
d="M313 1516h224l131 -302h-156zM156 408v647h168v-654q0 -123 60 -195.5t180 -72.5t199 75t79 189v658h168v-1055h-162v152q-119 -177 -320 -177q-169 0 -270.5 117t-101.5 316z" />
    <glyph glyph-name="uacute" unicode="&#xfa;" horiz-adv-x="1169" 
d="M647 1516h223l-198 -302h-156zM156 408v647h168v-654q0 -123 60 -195.5t180 -72.5t199 75t79 189v658h168v-1055h-162v152q-119 -177 -320 -177q-169 0 -270.5 117t-101.5 316z" />
    <glyph glyph-name="ucircumflex" unicode="&#xfb;" horiz-adv-x="1169" 
d="M516 1530h131l234 -316h-152l-147 162l-148 -162h-149zM156 408v647h168v-654q0 -123 60 -195.5t180 -72.5t199 75t79 189v658h168v-1055h-162v152q-119 -177 -320 -177q-169 0 -270.5 117t-101.5 316z" />
    <glyph glyph-name="udieresis" unicode="&#xfc;" horiz-adv-x="1169" 
d="M297 1409h188v-195h-188v195zM676 1409h190v-195h-190v195zM156 408v647h168v-654q0 -123 60 -195.5t180 -72.5t199 75t79 189v658h168v-1055h-162v152q-119 -177 -320 -177q-169 0 -270.5 117t-101.5 316z" />
    <glyph glyph-name="yacute" unicode="&#xfd;" horiz-adv-x="1011" 
d="M573 1516h224l-199 -302h-156zM117 -276h20q98 0 153.5 35.5t84.5 117.5l47 129l-391 1049h182l258 -725q32 -87 43 -168q4 32 11 58t14.5 54.5t17.5 55.5l248 725h176l-446 -1223q-53 -145 -156 -202.5t-240 -57.5h-22v152z" />
    <glyph glyph-name="thorn" unicode="&#xfe;" horiz-adv-x="1251" 
d="M659.5 129q67.5 0 129 25.5t106.5 77t71.5 124t26.5 169t-26.5 172t-71.5 126.5t-106.5 78t-129 27t-128 -27t-105.5 -78t-71.5 -126.5t-26.5 -172t26.5 -169t71.5 -124t105.5 -77t128 -25.5zM160 1524h168v-658q47 88 140.5 151.5t207.5 63.5q219 0 354 -160.5
t135 -391.5t-135 -392.5t-344 -161.5q-123 0 -217 58.5t-141 150.5v-612h-168v1952z" />
    <glyph glyph-name="ydieresis" unicode="&#xff;" horiz-adv-x="1011" 
d="M223 1409h189v-195h-189v195zM602 1409h191v-195h-191v195zM117 -276h20q98 0 153.5 35.5t84.5 117.5l47 129l-391 1049h182l258 -725q32 -87 43 -168q4 32 11 58t14.5 54.5t17.5 55.5l248 725h176l-446 -1223q-53 -145 -156 -202.5t-240 -57.5h-22v152z" />
    <glyph glyph-name="Amacron" unicode="&#x100;" horiz-adv-x="1263" 
d="M365 1698h536v-144h-536v144zM403 530h455l-176 504l-49 168q-9 -32 -17 -58t-15 -55.5t-17 -54.5zM545 1393h184l500 -1393h-185l-131 371h-567l-131 -371h-180z" />
    <glyph glyph-name="amacron" unicode="&#x101;" 
d="M297 1417h537v-143h-537v143zM436 123q162 0 260.5 70t98.5 192v176q-71 -62 -320 -108q-121 -23 -172 -63t-51 -116t52 -113.5t132 -37.5zM963 213q0 -115 41 -213h-166q-33 77 -39 143q-47 -72 -141 -120t-194 -48q-181 0 -279.5 74.5t-98.5 220.5q0 267 383 322
q176 26 229.5 49t75 49.5t21.5 67.5q0 92 -57.5 131t-163.5 39t-178 -43t-83 -133h-176q10 147 124.5 238t312.5 91t293.5 -88t95.5 -235v-545z" />
    <glyph glyph-name="Abreve" unicode="&#x102;" horiz-adv-x="1263" 
d="M632 1495q-132 0 -211 82t-89 207h125q14 -55 54 -98.5t121 -43.5t122 43.5t53 98.5h125q-10 -125 -89 -207t-211 -82zM403 530h455l-176 504l-49 168q-9 -32 -17 -58t-15 -55.5t-17 -54.5zM545 1393h184l500 -1393h-185l-131 371h-567l-131 -371h-180z" />
    <glyph glyph-name="abreve" unicode="&#x103;" 
d="M564 1214q-132 0 -211 82t-89 207h125q14 -55 54 -98t121 -43t122 43t53 98h125q-10 -125 -89 -207t-211 -82zM436 123q162 0 260.5 70t98.5 192v176q-71 -62 -320 -108q-121 -23 -172 -63t-51 -116t52 -113.5t132 -37.5zM963 213q0 -115 41 -213h-166q-33 77 -39 143
q-47 -72 -141 -120t-194 -48q-181 0 -279.5 74.5t-98.5 220.5q0 267 383 322q176 26 229.5 49t75 49.5t21.5 67.5q0 92 -57.5 131t-163.5 39t-178 -43t-83 -133h-176q10 147 124.5 238t312.5 91t293.5 -88t95.5 -235v-545z" />
    <glyph glyph-name="Aogonek" unicode="&#x104;" horiz-adv-x="1263" 
d="M403 530h455l-176 504l-49 168q-9 -32 -17 -58t-15 -55.5t-17 -54.5zM1087 -379q64 0 93 57h129q-14 -70 -75 -115.5t-151 -45.5t-154.5 50t-64.5 140q0 123 89 198t120 95h-29l-131 371h-567l-131 -371h-180l510 1393h184l500 -1393h-33q-98 -94 -146.5 -160t-48.5 -118
q0 -102 86 -101z" />
    <glyph glyph-name="aogonek" unicode="&#x105;" 
d="M436 123q162 0 260.5 70t98.5 192v176q-71 -62 -320 -108q-121 -23 -172 -63t-51 -116t52 -113.5t132 -37.5zM895 -379q66 0 92 57h129q-14 -70 -74.5 -115.5t-150.5 -45.5t-154.5 50t-64.5 140q0 125 89 199t120 94h-43q-33 77 -39 143q-47 -72 -141 -120t-194 -48
q-181 0 -279.5 74.5t-98.5 220.5q0 267 383 322q176 26 229.5 49t75 49.5t21.5 67.5q0 92 -57.5 131t-163.5 39t-178 -43t-83 -133h-176q10 147 124.5 238t312.5 91t293.5 -88t95.5 -235v-545q0 -115 41 -213q-98 -94 -146.5 -160t-48.5 -118q0 -102 86 -101z" />
    <glyph glyph-name="Cacute" unicode="&#x106;" horiz-adv-x="1425" 
d="M827 1796h224l-199 -301h-156zM760 1262q-208 0 -344.5 -154.5t-136.5 -410t137.5 -410t347.5 -154.5q156 0 267.5 84t152.5 225h182q-59 -217 -212.5 -342t-389.5 -125q-137 0 -259 53.5t-214 148.5t-145.5 228.5t-53.5 369t195 440t473 204.5q242 0 392.5 -124
t205.5 -332h-176q-104 299 -422 299z" />
    <glyph glyph-name="cacute" unicode="&#x107;" horiz-adv-x="1116" 
d="M645 1516h223l-198 -302h-156zM594 -25q-215 0 -361.5 158t-146.5 393t147 395t361 160q174 0 293 -93t160 -255h-179q-35 92 -104.5 143.5t-155.5 51.5t-146.5 -27t-105.5 -78t-70.5 -126.5t-25.5 -215.5t93 -246t241 -106q102 0 173 52t101 143h179
q-37 -156 -157 -252.5t-296 -96.5z" />
    <glyph glyph-name="Ccircumflex" unicode="&#x108;" horiz-adv-x="1425" 
d="M696 1810h131l234 -315h-152l-147 162l-148 -162h-149zM760 1262q-208 0 -344.5 -154.5t-136.5 -410t137.5 -410t347.5 -154.5q156 0 267.5 84t152.5 225h182q-59 -217 -212.5 -342t-389.5 -125q-137 0 -259 53.5t-214 148.5t-145.5 228.5t-53.5 369t195 440t473 204.5
q242 0 392.5 -124t205.5 -332h-176q-104 299 -422 299z" />
    <glyph glyph-name="ccircumflex" unicode="&#x109;" horiz-adv-x="1116" 
d="M520 1530h131l234 -316h-152l-147 162l-148 -162h-149zM594 -25q-215 0 -361.5 158t-146.5 393t147 395t361 160q174 0 293 -93t160 -255h-179q-35 92 -104.5 143.5t-155.5 51.5t-146.5 -27t-105.5 -78t-70.5 -126.5t-25.5 -215.5t93 -246t241 -106q102 0 173 52t101 143
h179q-37 -156 -157 -252.5t-296 -96.5z" />
    <glyph glyph-name="Ccaron" unicode="&#x10c;" horiz-adv-x="1425" 
d="M463 1804h151l148 -162l147 162h150l-232 -315h-131zM760 1262q-208 0 -344.5 -154.5t-136.5 -410t137.5 -410t347.5 -154.5q156 0 267.5 84t152.5 225h182q-59 -217 -212.5 -342t-389.5 -125q-137 0 -259 53.5t-214 148.5t-145.5 228.5t-53.5 369t195 440t473 204.5
q242 0 392.5 -124t205.5 -332h-176q-104 299 -422 299z" />
    <glyph glyph-name="ccaron" unicode="&#x10d;" horiz-adv-x="1116" 
d="M295 1524h151l148 -162l147 162h150l-232 -316h-131zM594 -25q-215 0 -361.5 158t-146.5 393t147 395t361 160q174 0 293 -93t160 -255h-179q-35 92 -104.5 143.5t-155.5 51.5t-146.5 -27t-105.5 -78t-70.5 -126.5t-25.5 -215.5t93 -246t241 -106q102 0 173 52t101 143
h179q-37 -156 -157 -252.5t-296 -96.5z" />
    <glyph glyph-name="Dcaron" unicode="&#x10e;" horiz-adv-x="1390" 
d="M319 1804h152l147 -162l148 162h149l-231 -315h-131zM637 160q217 0 346 133t129 405q0 271 -127 403t-348 132h-281v-1073h281zM176 1393h461q301 0 481 -186t180 -507t-178 -510.5t-483 -189.5h-461v1393z" />
    <glyph glyph-name="dcaron" unicode="&#x10f;" horiz-adv-x="1333" 
d="M1300 1278v31h-106v215h211v-246q0 -152 -85 -184.5t-128 -34.5v94q49 4 78.5 35t29.5 90zM591.5 129q67.5 0 128 25.5t105.5 77t72 124t27 169t-27 172t-72 126.5t-105.5 78t-128 27t-129 -27t-106.5 -78t-71.5 -126.5t-26.5 -172t26.5 -169t71.5 -124t106.5 -77
t129 -25.5zM574 -25q-218 0 -353 162t-135 392t135.5 391t343.5 161q125 0 218.5 -63.5t140.5 -151.5v658h168v-1524h-162v199q-49 -98 -145.5 -161t-210.5 -63z" />
    <glyph glyph-name="Dcroat" unicode="&#x110;" horiz-adv-x="1390" 
d="M637 160q217 0 346 133t129 405q0 271 -127 403t-348 132h-281v-428h385v-156h-385v-489h281zM47 805h129v588h461q301 0 481 -186t180 -507t-178 -510.5t-483 -189.5h-461v649h-129v156z" />
    <glyph glyph-name="dcroat" unicode="&#x111;" horiz-adv-x="1251" 
d="M591.5 129q67.5 0 128 25.5t105.5 77t72 124t27 169t-27 172t-72 126.5t-105.5 78t-128 27t-129 -27t-106.5 -78t-71.5 -126.5t-26.5 -172t26.5 -169t71.5 -124t106.5 -77t129 -25.5zM1223 1227h-131v-1227h-162v199q-49 -98 -145.5 -161t-210.5 -63q-218 0 -353 162
t-135 392t135.5 391t343.5 161q125 0 218.5 -63.5t140.5 -151.5v361h-256v137h256v160h168v-160h131v-137z" />
    <glyph glyph-name="Emacron" unicode="&#x112;" horiz-adv-x="1202" 
d="M367 1698h536v-144h-536v144zM176 1393h918v-162h-738v-418h627v-162h-627v-489h748v-162h-928v1393z" />
    <glyph glyph-name="emacron" unicode="&#x113;" horiz-adv-x="1167" 
d="M338 1417h536v-143h-536v143zM387.5 851q-93.5 -79 -121.5 -230h635q-15 150 -98.5 229.5t-202.5 79.5t-212.5 -79zM604 -25q-223 0 -370.5 155t-147.5 395t149 398t362 158t357 -161.5t136 -444.5h-830q11 -165 111 -256.5t233 -91.5q216 0 283 168h178
q-36 -140 -160.5 -230t-300.5 -90z" />
    <glyph glyph-name="Edotaccent" unicode="&#x116;" horiz-adv-x="1202" 
d="M553 1690h188v-195h-188v195zM176 1393h918v-162h-738v-418h627v-162h-627v-489h748v-162h-928v1393z" />
    <glyph glyph-name="edotaccent" unicode="&#x117;" horiz-adv-x="1167" 
d="M512 1409h188v-195h-188v195zM387.5 851q-93.5 -79 -121.5 -230h635q-15 150 -98.5 229.5t-202.5 79.5t-212.5 -79zM604 -25q-223 0 -370.5 155t-147.5 395t149 398t362 158t357 -161.5t136 -444.5h-830q11 -165 111 -256.5t233 -91.5q216 0 283 168h178
q-36 -140 -160.5 -230t-300.5 -90z" />
    <glyph glyph-name="Eogonek" unicode="&#x118;" horiz-adv-x="1202" 
d="M932 -379q66 0 92 57h129q-14 -70 -74.5 -115.5t-150.5 -45.5t-154.5 50t-64.5 140q0 125 89 199t120 94h-742v1393h918v-162h-738v-418h627v-162h-627v-489h748v-162h-64q-98 -94 -146 -160t-48 -118q0 -102 86 -101z" />
    <glyph glyph-name="eogonek" unicode="&#x119;" horiz-adv-x="1167" 
d="M387.5 851q-93.5 -79 -121.5 -230h635q-15 150 -98.5 229.5t-202.5 79.5t-212.5 -79zM625 -379q66 0 92 57h129q-14 -70 -74.5 -115.5t-150.5 -45.5t-155 50t-65 140q0 133 174 270q-209 12 -349 163t-140 388t149 395t362 158t357 -161.5t136 -444.5h-830
q11 -165 111 -256.5t233 -91.5q216 0 283 168h178q-31 -117 -121 -199t-225 -108q-90 -88 -135 -151t-45 -115q0 -102 86 -101z" />
    <glyph glyph-name="Ecaron" unicode="&#x11a;" horiz-adv-x="1202" 
d="M336 1804h151l148 -162l147 162h150l-232 -315h-131zM176 1393h918v-162h-738v-418h627v-162h-627v-489h748v-162h-928v1393z" />
    <glyph glyph-name="ecaron" unicode="&#x11b;" horiz-adv-x="1167" 
d="M297 1524h152l147 -162l147 162h150l-231 -316h-132zM387.5 851q-93.5 -79 -121.5 -230h635q-15 150 -98.5 229.5t-202.5 79.5t-212.5 -79zM604 -25q-223 0 -370.5 155t-147.5 395t149 398t362 158t357 -161.5t136 -444.5h-830q11 -165 111 -256.5t233 -91.5
q216 0 283 168h178q-36 -140 -160.5 -230t-300.5 -90z" />
    <glyph glyph-name="Gcircumflex" unicode="&#x11c;" horiz-adv-x="1503" 
d="M692 1810h131l234 -315h-152l-147 162l-148 -162h-149zM1174 977q-86 285 -434 285q-86 0 -174.5 -40t-152 -113t-99 -177.5t-35.5 -297t133.5 -347t336.5 -154.5t333.5 120.5t138.5 297.5h-387v164h557v-715h-168v231q-156 -256 -465 -256q-139 0 -260 53.5t-211 148.5
t-142.5 228.5t-52.5 370t194 440t472 203.5q334 0 450.5 -164.5t145.5 -277.5h-180z" />
    <glyph glyph-name="gcircumflex" unicode="&#x11d;" horiz-adv-x="1247" 
d="M516 1530h131l234 -316h-152l-147 162l-148 -162h-149zM829.5 257q94.5 103 94.5 281t-94.5 284t-239 106t-238.5 -105.5t-94 -284.5t94 -281.5t238.5 -102.5t239 103zM600 -293q179 0 251.5 98t72.5 271v139q-47 -94 -141.5 -154.5t-208.5 -60.5q-217 0 -352.5 157
t-135.5 383t136 383.5t343 157.5q125 0 220.5 -65.5t144.5 -157.5v197h162v-979q0 -262 -128 -393.5t-364 -131.5q-184 0 -318 91t-169 245h184q68 -180 303 -180z" />
    <glyph glyph-name="Gbreve" unicode="&#x11e;" horiz-adv-x="1503" 
d="M757 1495q-132 0 -211 82t-89 207h125q14 -55 54 -98.5t121 -43.5t122 43.5t53 98.5h125q-10 -125 -89 -207t-211 -82zM1174 977q-86 285 -434 285q-86 0 -174.5 -40t-152 -113t-99 -177.5t-35.5 -297t133.5 -347t336.5 -154.5t333.5 120.5t138.5 297.5h-387v164h557
v-715h-168v231q-156 -256 -465 -256q-139 0 -260 53.5t-211 148.5t-142.5 228.5t-52.5 370t194 440t472 203.5q334 0 450.5 -164.5t145.5 -277.5h-180z" />
    <glyph glyph-name="gbreve" unicode="&#x11f;" horiz-adv-x="1247" 
d="M581 1214q-132 0 -211 82t-89 207h125q14 -55 54 -98t121 -43t121.5 43t53.5 98h125q-10 -125 -89 -207t-211 -82zM829.5 257q94.5 103 94.5 281t-94.5 284t-239 106t-238.5 -105.5t-94 -284.5t94 -281.5t238.5 -102.5t239 103zM600 -293q179 0 251.5 98t72.5 271v139
q-47 -94 -141.5 -154.5t-208.5 -60.5q-217 0 -352.5 157t-135.5 383t136 383.5t343 157.5q125 0 220.5 -65.5t144.5 -157.5v197h162v-979q0 -262 -128 -393.5t-364 -131.5q-184 0 -318 91t-169 245h184q68 -180 303 -180z" />
    <glyph glyph-name="Gcommaaccent" unicode="&#x122;" horiz-adv-x="1503" 
d="M756 -365v31h-107v215h211v-246q0 -152 -85 -184.5t-128 -34.5v95q49 4 79 34.5t30 89.5zM1174 977q-86 285 -434 285q-86 0 -174.5 -40t-152 -113t-99 -177.5t-35.5 -297t133.5 -347t336.5 -154.5t333.5 120.5t138.5 297.5h-387v164h557v-715h-168v231
q-156 -256 -465 -256q-139 0 -260 53.5t-211 148.5t-142.5 228.5t-52.5 370t194 440t472 203.5q334 0 450.5 -164.5t145.5 -277.5h-180z" />
    <glyph glyph-name="gcommaaccent" unicode="&#x123;" horiz-adv-x="1247" 
d="M1184 1997v-10h-105v10h105zM563 2120v-31h107v-215h-211v246q0 104 59.5 157t153.5 62v-94q-49 -4 -79 -35t-30 -90zM829.5 914q94.5 103 94.5 281q0 179 -95 284.5t-238.5 105.5t-238 -105t-94.5 -285t94 -282t238.5 -102t239 103zM600 365q179 0 251.5 97.5
t72.5 270.5v139q-47 -94 -141.5 -154.5t-208.5 -60.5q-217 0 -352.5 158t-135.5 383t135.5 383t343.5 158q125 0 220.5 -65.5t144.5 -157.5v196h162v-979q0 -262 -128 -393t-364 -131q-285 0 -377 128t-110 208h184q68 -180 303 -180zM971 94q100 9 108 115h105
q-2 -66 -32 -113q-55 -87 -181 -96v94z" />
    <glyph glyph-name="Hcircumflex" unicode="&#x124;" horiz-adv-x="1425" 
d="M649 1810h131l234 -315h-152l-147 162l-148 -162h-149zM176 1393h180v-580h713v580h180v-1393h-180v649h-713v-649h-180v1393z" />
    <glyph glyph-name="hcircumflex" unicode="&#x125;" horiz-adv-x="1169" 
d="M512 1898h131l234 -315h-152l-147 162l-148 -162h-149zM641 1081q170 0 271.5 -117.5t101.5 -316.5v-647h-168v653q0 123 -60.5 197t-181.5 74t-198.5 -74t-77.5 -193v-657h-168v1524h168v-615q111 172 313 172z" />
    <glyph glyph-name="Imacron" unicode="&#x12a;" horiz-adv-x="544" 
d="M4 1698h537v-144h-537v144zM182 1393h180v-1393h-180v1393z" />
    <glyph glyph-name="imacron" unicode="&#x12b;" horiz-adv-x="491" 
d="M-23 1499h537v-143h-537v143zM162 1055h168v-1055h-168v1055z" />
    <glyph glyph-name="Iogonek" unicode="&#x12e;" horiz-adv-x="544" 
d="M254 -379q66 0 92 57h129q-14 -70 -74.5 -115.5t-150.5 -45.5t-154.5 50t-64.5 140q0 125 89 199t120 94h-58v1393h180v-1393q-98 -94 -146 -160t-48 -118q0 -102 86 -101z" />
    <glyph glyph-name="iogonek" unicode="&#x12f;" horiz-adv-x="491" 
d="M154 1462h184v-207h-184v207zM221 -379q66 0 92 57h129q-14 -70 -74.5 -115.5t-150.5 -45.5t-154.5 50t-64.5 140q0 125 89 199t120 94h-45v1055h168v-1055q-98 -94 -146.5 -160t-48.5 -118q0 -102 86 -101z" />
    <glyph glyph-name="Idotaccent" unicode="&#x130;" horiz-adv-x="544" 
d="M178 1690h189v-195h-189v195zM182 1393h180v-1393h-180v1393z" />
    <glyph glyph-name="dotlessi" unicode="&#x131;" horiz-adv-x="491" 
d="M162 1055h168v-1055h-168v1055z" />
    <glyph glyph-name="Jcircumflex" unicode="&#x134;" horiz-adv-x="1093" 
d="M788 1810h132l233 -315h-152l-147 162l-147 -162h-150zM506 -25q-203 0 -326 129t-123 338h179q0 -211 96 -260t168 -49q145 0 204.5 87t59.5 247v926h180v-926q0 -351 -166 -421.5t-272 -70.5z" />
    <glyph glyph-name="jcircumflex" unicode="&#x135;" horiz-adv-x="491" 
d="M180 1612h131l234 -316h-152l-147 162l-148 -162h-149zM-29 -276h33q78 0 118 36.5t40 126.5v1168h168v-1170q0 -154 -88 -233.5t-238 -79.5h-33v152z" />
    <glyph glyph-name="Kcommaaccent" unicode="&#x136;" horiz-adv-x="1286" 
d="M659 -365v31h-106v215h211v-246q0 -152 -85 -184.5t-128 -34.5v95q49 4 78.5 34.5t29.5 89.5zM342 0h-166v1393h166v-717l686 717h201l-539 -562l555 -831h-196l-474 713l-233 -244v-469z" />
    <glyph glyph-name="kcommaaccent" unicode="&#x137;" horiz-adv-x="1079" 
d="M584 -365v31h-107v215h211v-246q0 -152 -85 -184.5t-128 -34.5v95q49 4 79 34.5t30 89.5zM328 0h-168v1524h168v-981l479 512h207l-391 -414l428 -641h-205l-344 514l-174 -184v-330z" />
    <glyph glyph-name="Lacute" unicode="&#x139;" horiz-adv-x="1089" 
d="M328 1796h223l-199 -301h-155zM176 1393h180v-1231h672v-162h-852v1393z" />
    <glyph glyph-name="lacute" unicode="&#x13a;" horiz-adv-x="495" 
d="M299 1884h223l-198 -301h-156zM164 1524h168v-1524h-168v1524z" />
    <glyph glyph-name="Lcommaaccent" unicode="&#x13b;" horiz-adv-x="1089" 
d="M592 -365v31h-107v215h211v-246q0 -152 -85 -184.5t-128 -34.5v95q49 4 79 34.5t30 89.5zM176 1393h180v-1231h672v-162h-852v1393z" />
    <glyph glyph-name="lcommaaccent" unicode="&#x13c;" horiz-adv-x="495" 
d="M246 -365v31h-107v215h211v-246q0 -152 -85 -184.5t-128 -34.5v95q49 4 79 34.5t30 89.5zM164 1524h168v-1524h-168v1524z" />
    <glyph glyph-name="Lcaron" unicode="&#x13d;" horiz-adv-x="1089" 
d="M883 1147v31h-107v215h211v-246q0 -103 -61 -159t-152 -60v94q49 4 79 34.5t30 90.5zM176 1393h180v-1231h672v-162h-852v1393z" />
    <glyph glyph-name="lcaron" unicode="&#x13e;" horiz-adv-x="573" 
d="M541 1278v31h-107v215h211v-246q0 -152 -85 -184.5t-128 -34.5v94q49 4 79 35t30 90zM164 1524h168v-1524h-168v1524z" />
    <glyph glyph-name="Lslash" unicode="&#x141;" horiz-adv-x="1089" 
d="M176 1393h180v-652l353 179v-156l-353 -178v-424h672v-162h-852v496l-170 -86v155l170 86v742z" />
    <glyph glyph-name="lslash" unicode="&#x142;" horiz-adv-x="579" 
d="M205 1524h168v-647l194 114v-157l-194 -115v-719h-168v621l-170 -99v158l170 98v746z" />
    <glyph glyph-name="Nacute" unicode="&#x143;" horiz-adv-x="1404" 
d="M786 1796h224l-199 -301h-156zM176 1393h199l690 -1112v1112h164v-1393h-182l-707 1137v-1137h-164v1393z" />
    <glyph glyph-name="nacute" unicode="&#x144;" horiz-adv-x="1169" 
d="M672 1516h223l-199 -302h-155zM641 1081q170 0 271.5 -117.5t101.5 -316.5v-647h-168v653q0 123 -60.5 197t-181.5 74t-198.5 -74t-77.5 -193v-657h-168v1055h162v-152q119 178 319 178z" />
    <glyph glyph-name="Ncommaaccent" unicode="&#x145;" horiz-adv-x="1404" 
d="M711 -365v31h-107v215h211v-246q0 -152 -85 -184.5t-128 -34.5v95q49 4 79 34.5t30 89.5zM176 1393h199l690 -1112v1112h164v-1393h-182l-707 1137v-1137h-164v1393z" />
    <glyph glyph-name="ncommaaccent" unicode="&#x146;" horiz-adv-x="1169" 
d="M592 -365v31h-107v215h211v-246q0 -152 -85 -184.5t-128 -34.5v95q49 4 79 34.5t30 89.5zM641 1081q170 0 271.5 -117.5t101.5 -316.5v-647h-168v653q0 123 -60.5 197t-181.5 74t-198.5 -74t-77.5 -193v-657h-168v1055h162v-152q119 178 319 178z" />
    <glyph glyph-name="Ncaron" unicode="&#x147;" horiz-adv-x="1404" 
d="M449 1804h151l148 -162l147 162h149l-231 -315h-131zM176 1393h199l690 -1112v1112h164v-1393h-182l-707 1137v-1137h-164v1393z" />
    <glyph glyph-name="ncaron" unicode="&#x148;" horiz-adv-x="1169" 
d="M299 1524h152l147 -162l147 162h150l-231 -316h-132zM641 1081q170 0 271.5 -117.5t101.5 -316.5v-647h-168v653q0 123 -60.5 197t-181.5 74t-198.5 -74t-77.5 -193v-657h-168v1055h162v-152q119 178 319 178z" />
    <glyph glyph-name="Omacron" unicode="&#x14c;" horiz-adv-x="1531" 
d="M496 1698h536v-144h-536v144zM1253 700q0 258 -134.5 410t-349.5 152t-352.5 -153.5t-137.5 -410t137.5 -411t349.5 -154.5t349.5 154.5t137.5 412.5zM766 -25q-139 0 -262 53.5t-214 148.5t-144.5 228.5t-53.5 293t53.5 291.5t144.5 227.5t214 148.5t263 53
q289 0 481 -201.5t192 -519.5q0 -160 -53.5 -293t-144.5 -228t-214 -148.5t-262 -53.5z" />
    <glyph glyph-name="omacron" unicode="&#x14d;" horiz-adv-x="1183" 
d="M326 1417h536v-143h-536v143zM828.5 820q-97.5 108 -235.5 108t-235.5 -107t-97.5 -293t96 -292.5t237 -106.5t237 107t96 291.5t-97.5 292.5zM591.5 -25q-106.5 0 -198.5 41t-160.5 115t-107.5 174.5t-39 219t39 221t107.5 177t160.5 116.5t198.5 42t200 -42t161 -116.5
t106.5 -177t39 -221t-39 -219t-106.5 -174.5t-161 -115t-200 -41z" />
    <glyph glyph-name="Ohungarumlaut" unicode="&#x150;" horiz-adv-x="1531" 
d="M602 1796h203l-160 -301h-156zM936 1796h203l-160 -301h-156zM1253 700q0 258 -134.5 410t-349.5 152t-352.5 -153.5t-137.5 -410t137.5 -411t349.5 -154.5t349.5 154.5t137.5 412.5zM766 -25q-139 0 -262 53.5t-214 148.5t-144.5 228.5t-53.5 293t53.5 291.5
t144.5 227.5t214 148.5t263 53q289 0 481 -201.5t192 -519.5q0 -160 -53.5 -293t-144.5 -228t-214 -148.5t-262 -53.5z" />
    <glyph glyph-name="ohungarumlaut" unicode="&#x151;" horiz-adv-x="1183" 
d="M432 1516h203l-160 -302h-156zM766 1516h203l-160 -302h-156zM828.5 820q-97.5 108 -235.5 108t-235.5 -107t-97.5 -293t96 -292.5t237 -106.5t237 107t96 291.5t-97.5 292.5zM591.5 -25q-106.5 0 -198.5 41t-160.5 115t-107.5 174.5t-39 219t39 221t107.5 177
t160.5 116.5t198.5 42t200 -42t161 -116.5t106.5 -177t39 -221t-39 -219t-106.5 -174.5t-161 -115t-200 -41z" />
    <glyph glyph-name="OE" unicode="&#x152;" horiz-adv-x="2279" 
d="M1253 700q0 258 -134.5 410t-349.5 152t-352.5 -153.5t-137.5 -410t137.5 -411t349.5 -154.5t349.5 154.5t137.5 412.5zM92 698.5q0 159.5 53.5 291.5t144.5 227.5t214 148.5t262 53q314 0 487 -243v217h918v-162h-737v-418h626v-162h-626v-489h747v-162h-928v227
q-176 -252 -487 -252q-139 0 -262 53.5t-214 148.5t-144.5 228.5t-53.5 293z" />
    <glyph glyph-name="oe" unicode="&#x153;" horiz-adv-x="2007" 
d="M1226.5 848q-94.5 -80 -120.5 -230h635q-15 150 -99 230t-202 80q-119 0 -213.5 -80zM828.5 820q-97.5 108 -235.5 108t-235.5 -107t-97.5 -293t96 -292.5t237 -106.5t237 107t96 291.5t-97.5 292.5zM1444 127q217 0 282 168h179q-36 -138 -160.5 -229t-284.5 -91
q-161 0 -273 72t-175 195q-61 -121 -169.5 -194t-232.5 -73t-216.5 41t-161 115t-107.5 174.5t-39 279t146 337.5t360 159q141 0 250.5 -74.5t169.5 -199.5q63 127 173.5 200.5t230.5 73.5q234 0 377.5 -161.5t135.5 -444.5h-829q11 -167 111.5 -257.5t232.5 -90.5z" />
    <glyph glyph-name="Racute" unicode="&#x154;" horiz-adv-x="1331" 
d="M709 1796h223l-199 -301h-155zM1024 983q0 248 -266 248h-408v-492h424q123 0 186.5 64.5t63.5 179.5zM1198 983q0 -223 -213 -317q90 -31 129 -96.5t51 -182.5l19 -170q13 -123 49 -217h-170q-35 73 -45 199l-14 166q-10 111 -59.5 160.5t-166.5 49.5h-428v-575h-174
v1393h582q200 0 320 -112.5t120 -297.5z" />
    <glyph glyph-name="racute" unicode="&#x155;" horiz-adv-x="739" 
d="M489 1516h224l-199 -302h-156zM160 1055h162v-178q90 159 197.5 176.5t150.5 11.5v-170q-233 20 -287.5 -92.5t-54.5 -192.5v-610h-168v1055z" />
    <glyph glyph-name="Rcommaaccent" unicode="&#x156;" horiz-adv-x="1331" 
d="M702 -365v31h-106v215h211v-246q0 -152 -85 -184.5t-128 -34.5v95q49 4 78.5 34.5t29.5 89.5zM1024 983q0 248 -266 248h-408v-492h424q123 0 186.5 64.5t63.5 179.5zM1198 983q0 -223 -213 -317q90 -31 129 -96.5t51 -182.5l19 -170q13 -123 49 -217h-170
q-35 73 -45 199l-14 166q-10 111 -59.5 160.5t-166.5 49.5h-428v-575h-174v1393h582q200 0 320 -112.5t120 -297.5z" />
    <glyph glyph-name="rcommaaccent" unicode="&#x157;" horiz-adv-x="739" 
d="M250 -365v31h-107v215h211v-246q0 -152 -85 -184.5t-128 -34.5v95q49 4 79 34.5t30 89.5zM160 1055h162v-178q90 159 197.5 176.5t150.5 11.5v-170q-233 20 -287.5 -92.5t-54.5 -192.5v-610h-168v1055z" />
    <glyph glyph-name="Rcaron" unicode="&#x158;" horiz-adv-x="1331" 
d="M344 1804h152l147 -162l148 162h149l-231 -315h-131zM1024 983q0 248 -266 248h-408v-492h424q123 0 186.5 64.5t63.5 179.5zM1198 983q0 -223 -213 -317q90 -31 129 -96.5t51 -182.5l19 -170q13 -123 49 -217h-170q-35 73 -45 199l-14 166q-10 111 -59.5 160.5
t-166.5 49.5h-428v-575h-174v1393h582q200 0 320 -112.5t120 -297.5z" />
    <glyph glyph-name="rcaron" unicode="&#x159;" horiz-adv-x="739" 
d="M125 1524h151l148 -162l147 162h150l-232 -316h-131zM160 1055h162v-178q90 159 197.5 176.5t150.5 11.5v-170q-233 20 -287.5 -92.5t-54.5 -192.5v-610h-168v1055z" />
    <glyph glyph-name="Sacute" unicode="&#x15a;" horiz-adv-x="1214" 
d="M651 1796h223l-198 -301h-156zM627 133q164 0 245.5 66.5t81.5 171.5t-69 163t-238 95q-168 37 -256 70.5t-175 103.5t-87 245t127 273t344 98t346 -108.5t148 -290.5h-176q-10 102 -90 172t-232 70t-222.5 -55.5t-70.5 -151.5t64 -146t228 -89q163 -38 254 -69.5
t184 -105.5t93 -268t-138.5 -298t-368.5 -104q-234 0 -383.5 130.5t-157.5 322.5h180q6 -135 105.5 -215t263.5 -80z" />
    <glyph glyph-name="sacute" unicode="&#x15b;" horiz-adv-x="1034" 
d="M567 1516h224l-199 -302h-156zM534 127q122 0 189.5 47t67.5 119t-56.5 109t-185.5 54t-281.5 61.5t-152.5 256.5q0 127 98.5 217t286.5 90t296.5 -84t129.5 -225h-170q-20 74 -86 115t-170 41t-160.5 -44t-56.5 -107t55 -96t173 -51q118 -19 193.5 -38t162.5 -71.5
t87 -214.5t-116 -247.5t-302.5 -85.5t-312 92.5t-145.5 243.5h170q20 -78 92 -130t194 -52z" />
    <glyph glyph-name="Scircumflex" unicode="&#x15c;" horiz-adv-x="1214" 
d="M520 1810h131l234 -315h-152l-147 162l-148 -162h-149zM627 133q164 0 245.5 66.5t81.5 171.5t-69 163t-238 95q-168 37 -256 70.5t-175 103.5t-87 245t127 273t344 98t346 -108.5t148 -290.5h-176q-10 102 -90 172t-232 70t-222.5 -55.5t-70.5 -151.5t64 -146t228 -89
q163 -38 254 -69.5t184 -105.5t93 -268t-138.5 -298t-368.5 -104q-234 0 -383.5 130.5t-157.5 322.5h180q6 -135 105.5 -215t263.5 -80z" />
    <glyph glyph-name="scircumflex" unicode="&#x15d;" horiz-adv-x="1034" 
d="M449 1530h131l233 -316h-151l-148 162l-147 -162h-150zM534 127q122 0 189.5 47t67.5 119t-56.5 109t-185.5 54t-281.5 61.5t-152.5 256.5q0 127 98.5 217t286.5 90t296.5 -84t129.5 -225h-170q-20 74 -86 115t-170 41t-160.5 -44t-56.5 -107t55 -96t173 -51
q118 -19 193.5 -38t162.5 -71.5t87 -214.5t-116 -247.5t-302.5 -85.5t-312 92.5t-145.5 243.5h170q20 -78 92 -130t194 -52z" />
    <glyph glyph-name="Scedilla" unicode="&#x15e;" horiz-adv-x="1214" 
d="M621 -207q-41 0 -76 -33l-72 58l90 159q-210 15 -345.5 144.5t-139.5 306.5h180q6 -135 105.5 -215t263.5 -80t245.5 66.5t81.5 171.5t-69 163t-238 95q-168 37 -256 70.5t-175 103.5t-87 245t127 273t344 98t346 -108.5t148 -290.5h-176q-10 102 -90 172t-232 70
t-222.5 -55.5t-70.5 -151.5t64 -146t228 -89q163 -38 254 -69.5t184 -105.5t93 -261t-116 -287.5t-316 -119.5l-59 -90q8 2 29 2q76 0 132 -48t56 -136t-64.5 -138t-155.5 -50t-158.5 44t-80.5 117h129q23 -57 99 -57q41 0 67.5 23.5t26.5 61.5t-26.5 62.5t-67.5 24.5z" />
    <glyph glyph-name="Scedilla" unicode="&#xf6c1;" horiz-adv-x="1214" 
d="M621 -207q-41 0 -76 -33l-72 58l90 159q-210 15 -345.5 144.5t-139.5 306.5h180q6 -135 105.5 -215t263.5 -80t245.5 66.5t81.5 171.5t-69 163t-238 95q-168 37 -256 70.5t-175 103.5t-87 245t127 273t344 98t346 -108.5t148 -290.5h-176q-10 102 -90 172t-232 70
t-222.5 -55.5t-70.5 -151.5t64 -146t228 -89q163 -38 254 -69.5t184 -105.5t93 -261t-116 -287.5t-316 -119.5l-59 -90q8 2 29 2q76 0 132 -48t56 -136t-64.5 -138t-155.5 -50t-158.5 44t-80.5 117h129q23 -57 99 -57q41 0 67.5 23.5t26.5 61.5t-26.5 62.5t-67.5 24.5z" />
    <glyph glyph-name="scedilla" unicode="&#x15f;" horiz-adv-x="1034" 
d="M518 -207q-39 0 -78 -33l-71 58l92 159q-160 16 -262.5 105.5t-120.5 226.5h170q20 -78 92 -130t194 -52t189.5 47t67.5 119t-56.5 109t-185.5 54t-281.5 61.5t-152.5 256.5q0 127 98.5 217t286.5 90t296.5 -84t129.5 -225h-170q-20 74 -86 115t-170 41t-160.5 -44
t-56.5 -107t55 -96t173 -51q118 -19 193.5 -38t162.5 -71.5t87 -225.5q0 -213 -143 -263t-223 -57l-58 -88q8 2 29 2q76 0 132.5 -48t56.5 -136t-65.5 -138t-155.5 -50q-91 0 -158.5 44t-79.5 117h129q23 -57 98 -57q41 0 67.5 23.5t26.5 61.5t-26.5 62.5t-65.5 24.5z" />
    <glyph glyph-name="scedilla" unicode="&#xf6c2;" horiz-adv-x="1034" 
d="M518 -207q-39 0 -78 -33l-71 58l92 159q-160 16 -262.5 105.5t-120.5 226.5h170q20 -78 92 -130t194 -52t189.5 47t67.5 119t-56.5 109t-185.5 54t-281.5 61.5t-152.5 256.5q0 127 98.5 217t286.5 90t296.5 -84t129.5 -225h-170q-20 74 -86 115t-170 41t-160.5 -44
t-56.5 -107t55 -96t173 -51q118 -19 193.5 -38t162.5 -71.5t87 -225.5q0 -213 -143 -263t-223 -57l-58 -88q8 2 29 2q76 0 132.5 -48t56.5 -136t-65.5 -138t-155.5 -50q-91 0 -158.5 44t-79.5 117h129q23 -57 98 -57q41 0 67.5 23.5t26.5 61.5t-26.5 62.5t-65.5 24.5z" />
    <glyph glyph-name="Scaron" unicode="&#x160;" horiz-adv-x="1214" 
d="M287 1804h151l148 -162l147 162h150l-232 -315h-131zM627 133q164 0 245.5 66.5t81.5 171.5t-69 163t-238 95q-168 37 -256 70.5t-175 103.5t-87 245t127 273t344 98t346 -108.5t148 -290.5h-176q-10 102 -90 172t-232 70t-222.5 -55.5t-70.5 -151.5t64 -146t228 -89
q163 -38 254 -69.5t184 -105.5t93 -268t-138.5 -298t-368.5 -104q-234 0 -383.5 130.5t-157.5 322.5h180q6 -135 105.5 -215t263.5 -80z" />
    <glyph glyph-name="scaron" unicode="&#x161;" horiz-adv-x="1034" 
d="M215 1524h152l147 -162l148 162h149l-231 -316h-131zM534 127q122 0 189.5 47t67.5 119t-56.5 109t-185.5 54t-281.5 61.5t-152.5 256.5q0 127 98.5 217t286.5 90t296.5 -84t129.5 -225h-170q-20 74 -86 115t-170 41t-160.5 -44t-56.5 -107t55 -96t173 -51
q118 -19 193.5 -38t162.5 -71.5t87 -214.5t-116 -247.5t-302.5 -85.5t-312 92.5t-145.5 243.5h170q20 -78 92 -130t194 -52z" />
    <glyph glyph-name="Tcommaaccent" unicode="&#x162;" horiz-adv-x="1122" 
d="M559 -365v31h-106v215h211v-246q0 -151 -85 -184t-128 -35v95q49 4 78.5 34.5t29.5 89.5zM471 1231h-420v162h1020v-162h-420v-1231h-180v1231z" />
    <glyph glyph-name="Tcommaaccent" unicode="&#x21a;" horiz-adv-x="1122" 
d="M559 -365v31h-106v215h211v-246q0 -151 -85 -184t-128 -35v95q49 4 78.5 34.5t29.5 89.5zM471 1231h-420v162h1020v-162h-420v-1231h-180v1231z" />
    <glyph glyph-name="tcommaaccent" unicode="&#x163;" horiz-adv-x="692" 
d="M399 -365v31h-106v215h211v-246q0 -152 -85 -184.5t-128 -34.5v95q49 4 78.5 34.5t29.5 89.5zM587 -18h-28q-166 0 -262 96t-96 291v530h-154v156h154v301h168v-301h239v-156h-239v-530q0 -131 56 -181.5t150 -50.5q36 0 50 4v-153q-24 -6 -38 -6z" />
    <glyph glyph-name="tcommaaccent" unicode="&#x21b;" horiz-adv-x="692" 
d="M399 -365v31h-106v215h211v-246q0 -152 -85 -184.5t-128 -34.5v95q49 4 78.5 34.5t29.5 89.5zM587 -18h-28q-166 0 -262 96t-96 291v530h-154v156h154v301h168v-301h239v-156h-239v-530q0 -131 56 -181.5t150 -50.5q36 0 50 4v-153q-24 -6 -38 -6z" />
    <glyph glyph-name="Tcaron" unicode="&#x164;" horiz-adv-x="1122" 
d="M262 1804h152l147 -162l148 162h149l-231 -315h-131zM471 1231h-420v162h1020v-162h-420v-1231h-180v1231z" />
    <glyph glyph-name="tcaron" unicode="&#x165;" horiz-adv-x="837" 
d="M805 1278v31h-107v215h211v-246q0 -152 -85 -184.5t-128 -34.5v94q49 4 79 35t30 90zM587 -18h-28q-166 0 -262 96t-96 291v530h-154v156h154v301h168v-301h239v-156h-239v-530q0 -131 56 -181.5t150 -50.5q36 0 50 4v-153q-24 -6 -38 -6z" />
    <glyph glyph-name="Umacron" unicode="&#x16a;" horiz-adv-x="1366" 
d="M416 1698h536v-144h-536v144zM150 518v875h180v-875q0 -188 92 -286.5t263 -98.5t261 98.5t90 286.5v875h181v-875q0 -254 -148 -398.5t-386 -144.5q-235 0 -384 143.5t-149 399.5z" />
    <glyph glyph-name="umacron" unicode="&#x16b;" horiz-adv-x="1169" 
d="M313 1417h537v-143h-537v143zM156 408v647h168v-654q0 -123 60 -195.5t180 -72.5t199 75t79 189v658h168v-1055h-162v152q-119 -177 -320 -177q-169 0 -270.5 117t-101.5 316z" />
    <glyph glyph-name="Ubreve" unicode="&#x16c;" horiz-adv-x="1366" 
d="M683 1495q-132 0 -211 82t-89 207h125q14 -55 54 -98.5t121 -43.5t122 43.5t53 98.5h125q-10 -125 -89 -207t-211 -82zM150 518v875h180v-875q0 -188 92 -286.5t263 -98.5t261 98.5t90 286.5v875h181v-875q0 -254 -148 -398.5t-386 -144.5q-235 0 -384 143.5t-149 399.5z
" />
    <glyph glyph-name="ubreve" unicode="&#x16d;" horiz-adv-x="1169" 
d="M581 1214q-132 0 -211 82t-89 207h125q14 -55 54 -98t121 -43t121.5 43t53.5 98h125q-10 -125 -89 -207t-211 -82zM156 408v647h168v-654q0 -123 60 -195.5t180 -72.5t199 75t79 189v658h168v-1055h-162v152q-119 -177 -320 -177q-169 0 -270.5 117t-101.5 316z" />
    <glyph glyph-name="Uring" unicode="&#x16e;" horiz-adv-x="1366" 
d="M682 1542q53 0 89 38t36 95.5t-36 96t-89 38.5t-89 -38.5t-36 -96t36 -95.5t89 -38zM518 1513.5q-67 65.5 -67 162.5q0 96 66.5 162.5t162.5 66.5t164.5 -66t68.5 -163t-68.5 -162.5t-164.5 -65.5q-95 0 -162 65.5zM150 518v875h180v-875q0 -188 92 -286.5t263 -98.5
t261 98.5t90 286.5v875h181v-875q0 -254 -148 -398.5t-386 -144.5q-235 0 -384 143.5t-149 399.5z" />
    <glyph glyph-name="uring" unicode="&#x16f;" horiz-adv-x="1169" 
d="M579.5 1262q53.5 0 89.5 37.5t36 95t-36 96.5t-89.5 39t-89 -39t-35.5 -96.5t35.5 -95t89 -37.5zM414 1234.5q-66 67.5 -66 161.5q0 95 66.5 161.5t163.5 66.5t165 -66t68 -162t-68 -162.5t-165 -66.5q-98 0 -164 67.5zM156 408v647h168v-654q0 -123 60 -195.5t180 -72.5
t199 75t79 189v658h168v-1055h-162v152q-119 -177 -320 -177q-169 0 -270.5 117t-101.5 316z" />
    <glyph glyph-name="Uhungarumlaut" unicode="&#x170;" horiz-adv-x="1366" 
d="M537 1796h202l-159 -301h-156zM870 1796h203l-160 -301h-155zM150 518v875h180v-875q0 -188 92 -286.5t263 -98.5t261 98.5t90 286.5v875h181v-875q0 -254 -148 -398.5t-386 -144.5q-235 0 -384 143.5t-149 399.5z" />
    <glyph glyph-name="uhungarumlaut" unicode="&#x171;" horiz-adv-x="1169" 
d="M440 1516h203l-160 -302h-155zM774 1516h203l-160 -302h-155zM156 408v647h168v-654q0 -123 60 -195.5t180 -72.5t199 75t79 189v658h168v-1055h-162v152q-119 -177 -320 -177q-169 0 -270.5 117t-101.5 316z" />
    <glyph glyph-name="Uogonek" unicode="&#x172;" horiz-adv-x="1366" 
d="M684 -379q66 0 92 57h129q-14 -70 -74.5 -115.5t-150.5 -45.5t-154.5 50t-64.5 140q0 136 176 270q-221 13 -354 157t-133 384v875h180v-875q0 -188 92 -286.5t263 -98.5t261 98.5t90 286.5v875h181v-875q0 -226 -122 -369t-321 -167q-88 -86 -132 -147t-44 -113
q0 -100 86 -101z" />
    <glyph glyph-name="uogonek" unicode="&#x173;" horiz-adv-x="1169" 
d="M901 -379q66 0 92 57h129q-14 -70 -74.5 -115.5t-150.5 -45.5t-154.5 50t-64.5 140q0 125 89 199t120 94h-39v152q-119 -177 -320 -177q-169 0 -270.5 117t-101.5 316v647h168v-654q0 -123 60 -195.5t180 -72.5t199 75t79 189v658h168v-1055q-98 -94 -146.5 -160
t-48.5 -118q0 -102 86 -101z" />
    <glyph glyph-name="Ydieresis" unicode="&#x178;" horiz-adv-x="1148" 
d="M291 1690h188v-195h-188v195zM670 1690h190v-195h-190v195zM664 0h-181v578l-460 815h188l364 -650l367 650h184l-462 -815v-578z" />
    <glyph glyph-name="Zacute" unicode="&#x179;" horiz-adv-x="1124" 
d="M631 1796h223l-199 -301h-155zM92 1231v162h963v-156l-768 -1075h772v-162h-993v141l778 1090h-752z" />
    <glyph glyph-name="zacute" unicode="&#x17a;" horiz-adv-x="948" 
d="M528 1516h224l-199 -302h-156zM96 899v156h766v-148l-575 -751h594v-156h-813v137l583 762h-555z" />
    <glyph glyph-name="Zdotaccent" unicode="&#x17b;" horiz-adv-x="1124" 
d="M471 1690h188v-195h-188v195zM92 1231v162h963v-156l-768 -1075h772v-162h-993v141l778 1090h-752z" />
    <glyph glyph-name="zdotaccent" unicode="&#x17c;" horiz-adv-x="948" 
d="M381 1409h188v-195h-188v195zM96 899v156h766v-148l-575 -751h594v-156h-813v137l583 762h-555z" />
    <glyph glyph-name="Zcaron" unicode="&#x17d;" horiz-adv-x="1124" 
d="M266 1804h152l147 -162l148 162h149l-231 -315h-131zM92 1231v162h963v-156l-768 -1075h772v-162h-993v141l778 1090h-752z" />
    <glyph glyph-name="zcaron" unicode="&#x17e;" horiz-adv-x="948" 
d="M176 1524h152l147 -162l148 162h149l-231 -316h-131zM96 899v156h766v-148l-575 -751h594v-156h-813v137l583 762h-555z" />
    <glyph glyph-name="florin" unicode="&#x192;" horiz-adv-x="786" 
d="M84 805h176l47 256q31 174 130.5 266t252.5 92q45 0 103 -10l-29 -158q-47 12 -86 13q-84 0 -129 -50.5t-66 -160.5l-45 -248h228v-152h-254l-117 -663q-29 -158 -112 -238t-212 -80q-41 0 -98 11l27 155q31 -6 59 -6q66 0 104.5 39t55.5 127l114 655h-149v152z" />
    <glyph glyph-name="Scommaaccent" unicode="&#x218;" horiz-adv-x="1214" 
d="M627 -365v31h-107v215h211v-246q0 -152 -85 -184.5t-128 -34.5v95q49 4 79 34.5t30 89.5zM627 133q164 0 245.5 66.5t81.5 171.5t-69 163t-238 95q-168 37 -256 70.5t-175 103.5t-87 245t127 273t344 98t346 -108.5t148 -290.5h-176q-10 102 -90 172t-232 70
t-222.5 -55.5t-70.5 -151.5t64 -146t228 -89q163 -38 254 -69.5t184 -105.5t93 -268t-138.5 -298t-368.5 -104q-234 0 -383.5 130.5t-157.5 322.5h180q6 -135 105.5 -215t263.5 -80z" />
    <glyph glyph-name="scommaaccent" unicode="&#x219;" horiz-adv-x="1034" 
d="M539 -365v31h-107v215h211v-246q0 -152 -85 -184.5t-128 -34.5v95q49 4 79 34.5t30 89.5zM534 127q122 0 189.5 47t67.5 119t-56.5 109t-185.5 54t-281.5 61.5t-152.5 256.5q0 127 98.5 217t286.5 90t296.5 -84t129.5 -225h-170q-20 74 -86 115t-170 41t-160.5 -44
t-56.5 -107t55 -96t173 -51q118 -19 193.5 -38t162.5 -71.5t87 -214.5t-116 -247.5t-302.5 -85.5t-312 92.5t-145.5 243.5h170q20 -78 92 -130t194 -52z" />
    <glyph glyph-name="circumflex" unicode="&#x2c6;" horiz-adv-x="1024" 
d="M446 1530h132l233 -316h-152l-147 162l-147 -162h-150z" />
    <glyph glyph-name="caron" unicode="&#x2c7;" horiz-adv-x="1024" 
d="M213 1524h152l147 -162l147 162h150l-231 -316h-132z" />
    <glyph glyph-name="breve" unicode="&#x2d8;" horiz-adv-x="1024" 
d="M511 1214q-132 0 -211 82t-89 207h125q14 -55 54 -98t121 -43t122 43t53 98h125q-10 -125 -89 -207t-211 -82z" />
    <glyph glyph-name="dotaccent" unicode="&#x2d9;" horiz-adv-x="1024" 
d="M418 1409h188v-195h-188v195z" />
    <glyph glyph-name="ring" unicode="&#x2da;" horiz-adv-x="1024" 
d="M510 1262q53 0 89 37.5t36 95t-36 96.5t-89 39t-89 -39t-36 -96.5t36 -95t89 -37.5zM345.5 1233.5q-66.5 66.5 -66.5 162.5t67 162t162 66q96 0 164.5 -65t68.5 -163q0 -97 -68 -163t-165 -66q-96 0 -162.5 66.5z" />
    <glyph glyph-name="ogonek" unicode="&#x2db;" horiz-adv-x="1024" 
d="M498 -379q66 0 92 57h129q-14 -70 -74.5 -115.5t-150.5 -45.5t-155 50t-65 140q0 154 209 293h123q-98 -94 -146 -160t-48 -118q0 -102 86 -101z" />
    <glyph glyph-name="tilde" unicode="&#x2dc;" horiz-adv-x="1024" 
d="M391 1454q59 0 117.5 -32.5t86 -48t59.5 -15.5t52.5 27.5t24.5 68.5h115q-10 -104 -66.5 -175t-146.5 -71q-61 0 -118.5 33t-86 48.5t-58.5 15.5t-51.5 -28t-25.5 -69h-115q10 104 66.5 175t146.5 71z" />
    <glyph glyph-name="hungarumlaut" unicode="&#x2dd;" horiz-adv-x="1024" 
d="M350 1516h203l-160 -302h-155zM684 1516h203l-160 -302h-156z" />
    <glyph glyph-name="Delta" unicode="&#x394;" horiz-adv-x="473" 
d="M131 801h211v-223h-211v223z" />
    <glyph glyph-name="Delta" unicode="&#x2206;" horiz-adv-x="473" 
d="M131 801h211v-223h-211v223z" />
    <glyph glyph-name="Omega" unicode="&#x3a9;" horiz-adv-x="473" 
d="M131 801h211v-223h-211v223z" />
    <glyph glyph-name="Omega" unicode="&#x2126;" horiz-adv-x="473" 
d="M131 801h211v-223h-211v223z" />
    <glyph glyph-name="pi" unicode="&#x3c0;" horiz-adv-x="473" 
d="M131 801h211v-223h-211v223z" />
    <glyph glyph-name="endash" unicode="&#x2013;" horiz-adv-x="1097" 
d="M102 649h893v-168h-893v168z" />
    <glyph glyph-name="emdash" unicode="&#x2014;" horiz-adv-x="1763" 
d="M102 649h1561v-168h-1561v168z" />
    <glyph glyph-name="quoteleft" unicode="&#x2018;" horiz-adv-x="452" 
d="M121 1188q0 104 62.5 160t158.5 65v-100q-49 -4 -83 -35t-34 -90v-58h107v-215h-211v273z" />
    <glyph glyph-name="quoteright" unicode="&#x2019;" horiz-adv-x="452" 
d="M227 1120v58h-106v215h211v-273q0 -153 -89 -188t-132 -37v100q49 4 82.5 35t33.5 90z" />
    <glyph glyph-name="quotesinglbase" unicode="&#x201a;" horiz-adv-x="452" 
d="M227 -57v57h-106v215h211v-272q0 -154 -89 -189t-132 -37v101q49 4 82.5 34.5t33.5 90.5z" />
    <glyph glyph-name="quotedblleft" unicode="&#x201c;" horiz-adv-x="813" 
d="M121 1188q0 104 62.5 160t158.5 65v-100q-49 -4 -83 -35t-34 -90v-58h107v-215h-211v273zM481 1188q0 104 63 160t158 65v-100q-49 -4 -82.5 -35t-33.5 -90v-58h106v-215h-211v273z" />
    <glyph glyph-name="quotedblright" unicode="&#x201d;" horiz-adv-x="813" 
d="M227 1120v58h-106v215h211v-273q0 -153 -89 -188t-132 -37v100q49 4 82.5 35t33.5 90zM588 1120v58h-107v215h211v-273q0 -154 -89 -188.5t-132 -36.5v100q49 4 83 35t34 90z" />
    <glyph glyph-name="quotedblbase" unicode="&#x201e;" horiz-adv-x="813" 
d="M227 -57v57h-106v215h211v-272q0 -154 -89 -189t-132 -37v101q49 4 82.5 34.5t33.5 90.5zM588 -57v57h-107v215h211v-272q0 -155 -89 -189.5t-132 -36.5v101q49 4 83 34.5t34 90.5z" />
    <glyph glyph-name="dagger" unicode="&#x2020;" horiz-adv-x="757" 
d="M305 995h-209v140h209v258h148v-258h206v-140h-206v-596h-148v596z" />
    <glyph glyph-name="daggerdbl" unicode="&#x2021;" horiz-adv-x="757" 
d="M305 662h-209v139h209v194h-209v140h209v258h148v-258h206v-140h-206v-194h206v-139h-206v-259h-148v259z" />
    <glyph glyph-name="bullet" unicode="&#x2022;" horiz-adv-x="651" 
d="M325 500q-84 0 -147 61.5t-63 154.5t62.5 156.5t148.5 63.5t148.5 -64t62.5 -153q0 -143 -84 -181t-128 -38z" />
    <glyph glyph-name="ellipsis" unicode="&#x2026;" horiz-adv-x="1435" 
d="M612 223h211v-223h-211v223zM121 223h211v-223h-211v223zM1104 223h211v-223h-211v223z" />
    <glyph glyph-name="perthousand" unicode="&#x2030;" horiz-adv-x="2377" 
d="M1040 317q0 -79 53.5 -136.5t128.5 -57.5t126 57t51 137t-52 138.5t-126.5 58.5t-127.5 -59.5t-53 -137.5zM569 1076q0 81 -51.5 138.5t-126 57.5t-127.5 -59.5t-53 -137.5t52.5 -136t128.5 -58q75 0 126 57t51 138zM1808 317q0 -79 53.5 -136.5t128.5 -57.5t126 57
t51 137t-52 138.5t-126.5 58.5t-127.5 -59.5t-53 -137.5zM1116 1393h160l-784 -1393h-158zM1988.5 -18q-67.5 0 -128 26.5t-104.5 71.5t-70.5 106.5t-26.5 131t26.5 132t70.5 107.5t104.5 71.5t128 26.5t127 -26.5t103.5 -71.5t70.5 -107.5t26.5 -132t-26.5 -131
t-70.5 -106.5t-103.5 -71.5t-127 -26.5zM1220.5 -18q-67.5 0 -128 26.5t-104.5 71.5t-70.5 106.5t-26.5 131t26.5 132t70.5 107.5t104.5 71.5t128 26.5t127 -26.5t103.5 -71.5t70.5 -107.5t26.5 -132t-26.5 -131t-70.5 -106.5t-103.5 -71.5t-127 -26.5zM391.5 739
q-67.5 0 -128 27t-104.5 72t-71 106.5t-27 131t27 132t71 107.5t104.5 71.5t128 26.5t127 -26.5t103.5 -71.5t70.5 -107.5t26.5 -132t-26.5 -131t-70.5 -106.5t-103.5 -72t-127 -27z" />
    <glyph glyph-name="guilsinglleft" unicode="&#x2039;" horiz-adv-x="514" 
d="M61 449v165l381 338v-221l-237 -199l237 -202v-219z" />
    <glyph glyph-name="guilsinglright" unicode="&#x203a;" horiz-adv-x="514" 
d="M72 332l237 198l-237 203v219l381 -338v-165l-381 -338v221z" />
    <glyph glyph-name="fraction" unicode="&#x2044;" horiz-adv-x="614" 
d="M618 1393h160l-784 -1393h-158z" />
    <glyph glyph-name="fraction" unicode="&#x2215;" horiz-adv-x="614" 
d="M618 1393h160l-784 -1393h-158z" />
    <glyph glyph-name="Euro" unicode="&#x20ac;" horiz-adv-x="1277" 
d="M756 133q208 0 278 199h185q-47 -180 -173 -268.5t-300 -88.5t-322.5 131t-196.5 375h-178v115h162q-4 25 -4 32v128h-158v114h170q38 265 188.5 407t346.5 142q255 0 346.5 -134t116.5 -226h-181q-31 104 -106.5 153.5t-175.5 49.5q-135 0 -227.5 -99.5t-120.5 -292.5
h618l-43 -114h-588v-68q0 -67 4 -92h527l-43 -115h-467q37 -172 125 -260t217 -88z" />
    <glyph glyph-name="trademark" unicode="&#x2122;" horiz-adv-x="1572" 
d="M279 1288h-195v105h514v-105h-195v-596h-124v596zM729 1393h152l198 -533l199 533h158v-701h-121v488l-180 -488h-109l-180 488v-488h-117v701z" />
    <glyph glyph-name="onethird" unicode="&#x2153;" horiz-adv-x="1675" 
d="M207 1174h-133v94q61 2 106 30.5t49 94.5h117v-836h-139v617zM1055 1393h159l-784 -1393h-158zM1604 244q0 -108 -80.5 -183t-219.5 -75t-215.5 76.5t-80.5 193.5h137q9 -143 162 -143q74 0 115.5 37.5t41.5 95t-33.5 93.5t-125.5 36h-48v121h25q92 0 124 30.5t32 81.5
t-33 81t-101 30t-101.5 -42t-35.5 -95h-135q0 113 76.5 187.5t202.5 74.5t195 -66.5t69 -159.5q0 -122 -113 -172q142 -48 142 -202z" />
    <glyph glyph-name="twothirds" unicode="&#x2154;" horiz-adv-x="1886" 
d="M1266 1393h159l-784 -1393h-158zM1815 244q0 -108 -80.5 -183t-219.5 -75t-215.5 76.5t-80.5 193.5h137q9 -143 162 -143q74 0 115.5 37.5t41.5 95t-33.5 93.5t-125.5 36h-48v121h25q92 0 124 30.5t32 81.5t-33.5 81t-101.5 30t-101 -42t-35 -95h-135q0 113 76.5 187.5
t202.5 74.5t195 -66.5t69 -159.5q0 -122 -113 -172q142 -48 142 -202zM72 621q0 182 102 249.5t156 97.5q107 59 140.5 97.5t33.5 87.5t-29 86t-103 37t-111.5 -46t-39.5 -118h-137q0 121 75.5 205t209.5 84t205 -72.5t71 -171.5q0 -151 -99.5 -210.5t-163.5 -95.5
t-110.5 -76t-50.5 -89h418v-129h-567v64z" />
    <glyph glyph-name="oneeighth" unicode="&#x215b;" horiz-adv-x="1685" 
d="M1315 508q49 0 87 29t38 83t-36 81.5t-89 27.5t-89 -27.5t-36 -81.5t38 -83t87 -29zM1316 106q62 0 111.5 34t49.5 104t-46.5 106.5t-114.5 36.5t-114.5 -36.5t-46.5 -106.5t49.5 -104t111.5 -34zM207 1174h-133v94q61 2 106 30.5t49 94.5h117v-836h-139v617zM1055 1393
h159l-784 -1393h-158zM1614 242q0 -111 -84 -183.5t-214 -72.5t-214 72.5t-84 183.5q0 136 135 213q-98 60 -98 164t74.5 167.5t187.5 63.5t184.5 -64t71.5 -168t-96 -163q137 -69 137 -213z" />
    <glyph glyph-name="threeeighths" unicode="&#x215c;" horiz-adv-x="1894" 
d="M1524 508q49 0 87 29t38 83t-36 81.5t-89.5 27.5t-89 -27.5t-35.5 -81.5t38 -83t87 -29zM1525 106q62 0 111.5 34t49.5 104t-47 106.5t-115 36.5t-114 -36.5t-46 -106.5t49.5 -104t111.5 -34zM1264 1393h159l-784 -1393h-158zM657 801q0 -107 -79.5 -182.5t-218.5 -75.5
t-216.5 76t-81.5 194h138q4 -66 43.5 -104.5t115.5 -38.5t118 37.5t42 95t-33.5 93.5t-126.5 36h-47v121h25q92 0 124 30.5t32 81.5t-33 81t-101 30t-101.5 -42t-35.5 -95h-135q0 113 76.5 187.5t201.5 74.5t195 -66t70 -159q0 -123 -113 -172q141 -48 141 -203zM1823 242
q0 -111 -84 -183.5t-214 -72.5t-214 72.5t-84 183.5q0 137 135 213q-98 60 -98 164t74.5 167.5t187.5 63.5t184.5 -64t71.5 -168t-96 -163q137 -69 137 -213z" />
    <glyph glyph-name="fiveeighths" unicode="&#x215d;" horiz-adv-x="1882" 
d="M1511.5 508q49.5 0 87 29t37.5 83t-35.5 81.5t-89 27.5t-89.5 -27.5t-36 -81.5t38 -83t87.5 -29zM1512 106q62 0 111.5 34t49.5 104t-46 106.5t-115 36.5t-114.5 -36.5t-45.5 -106.5t49 -104t111 -34zM1251 1393h160l-784 -1393h-158zM362 1112q126 0 204.5 -80.5
t78.5 -204.5t-83 -204t-205 -80t-203.5 68t-85.5 171h137q8 -47 47 -78.5t102 -31.5t107.5 41t44.5 115t-41 118.5t-107 44.5q-92 0 -143 -84l-121 39l51 447h451v-127h-342l-27 -207q67 53 135 53zM1810 242q0 -110 -83.5 -183t-214 -73t-214.5 72.5t-84 183.5
q0 136 136 213q-99 61 -99 165t75.5 167t187.5 63t183.5 -64t71.5 -168t-96 -163q137 -69 137 -213z" />
    <glyph glyph-name="seveneighths" unicode="&#x215e;" horiz-adv-x="1736" 
d="M1366 508q49 0 87 29t38 83t-36 81.5t-89 27.5t-89 -27.5t-36 -81.5t38 -83t87 -29zM1367 106q62 0 111.5 34t49.5 104t-46 106.5t-115 36.5t-115 -36.5t-46 -106.5t49.5 -104t111.5 -34zM53 1266v127h563v-119q-145 -121 -217.5 -307.5t-76.5 -409.5h-140
q4 211 69.5 398.5t194.5 310.5h-393zM1106 1393h160l-785 -1393h-157zM1665 242q0 -111 -84 -183.5t-214 -72.5t-214 72.5t-84 183.5q0 136 135 213q-98 60 -98 164t74.5 167.5t187.5 63.5t184.5 -64t71.5 -168t-96 -163q137 -69 137 -213z" />
    <glyph glyph-name="partialdiff" unicode="&#x2202;" horiz-adv-x="473" 
d="M131 801h211v-223h-211v223z" />
    <glyph glyph-name="product" unicode="&#x220f;" horiz-adv-x="473" 
d="M131 801h211v-223h-211v223z" />
    <glyph glyph-name="summation" unicode="&#x2211;" horiz-adv-x="473" 
d="M131 801h211v-223h-211v223z" />
    <glyph glyph-name="minus" unicode="&#x2212;" horiz-adv-x="958" 
d="M94 690h770v-147h-770v147z" />
    <glyph glyph-name="radical" unicode="&#x221a;" horiz-adv-x="473" 
d="M131 801h211v-223h-211v223z" />
    <glyph glyph-name="infinity" unicode="&#x221e;" horiz-adv-x="473" 
d="M131 801h211v-223h-211v223z" />
    <glyph glyph-name="integral" unicode="&#x222b;" horiz-adv-x="473" 
d="M131 801h211v-223h-211v223z" />
    <glyph glyph-name="approxequal" unicode="&#x2248;" horiz-adv-x="473" 
d="M131 801h211v-223h-211v223z" />
    <glyph glyph-name="notequal" unicode="&#x2260;" horiz-adv-x="473" 
d="M131 801h211v-223h-211v223z" />
    <glyph glyph-name="lessequal" unicode="&#x2264;" horiz-adv-x="473" 
d="M131 801h211v-223h-211v223z" />
    <glyph glyph-name="greaterequal" unicode="&#x2265;" horiz-adv-x="473" 
d="M131 801h211v-223h-211v223z" />
    <glyph glyph-name="lozenge" unicode="&#x25ca;" horiz-adv-x="425" 
d="M145 801h211v-223h-211v223z" />
    <glyph glyph-name="commaaccent" unicode="&#xf004;" horiz-adv-x="1024" 
d="M514 -365v31h-106v215h210v-246q0 -152 -84.5 -184.5t-127.5 -34.5v95q49 4 78.5 34.5t29.5 89.5z" />
    <glyph glyph-name="commaaccent" unicode="&#xf6c3;" horiz-adv-x="1024" 
d="M514 -365v31h-106v215h210v-246q0 -152 -84.5 -184.5t-127.5 -34.5v95q49 4 78.5 34.5t29.5 89.5z" />
    <glyph glyph-name="dotlessj" unicode="&#xf6be;" horiz-adv-x="491" 
d="M-29 -276h33q78 0 118 36.5t40 126.5v1168h168v-1170q0 -154 -88 -233.5t-238 -79.5h-33v152z" />
    <glyph glyph-name="dotlessj" unicode="&#xfb0f;" horiz-adv-x="491" 
d="M-29 -276h33q78 0 118 36.5t40 126.5v1168h168v-1170q0 -154 -88 -233.5t-238 -79.5h-33v152z" />
    <glyph glyph-name="slash.cap" horiz-adv-x="718" 
d="M522 1516h168l-495 -1639h-168z" />
    <glyph glyph-name="backslash.cap" horiz-adv-x="718" 
d="M29 1516h168l495 -1639h-168z" />
    <glyph glyph-name="parenleft.cap" horiz-adv-x="653" 
d="M129 678q0 467 309 817h150q-204 -311 -237.5 -503.5t-33.5 -313.5q0 -242 72 -446.5t199 -395.5h-150q-143 160 -226 378t-83 464z" />
    <glyph glyph-name="parenright.cap" horiz-adv-x="653" 
d="M524 653q0 -467 -309 -817h-149q201 300 235.5 498t34.5 319q0 242 -71.5 447t-198.5 395h149q143 -160 226 -378t83 -464z" />
    <glyph glyph-name="bracketleft.cap" horiz-adv-x="661" 
d="M168 1475h428v-150h-252v-1319h252v-149h-428v1618z" />
    <glyph glyph-name="bracketright.cap" horiz-adv-x="661" 
d="M66 6h251v1319h-251v150h428v-1618h-428v149z" />
    <glyph glyph-name="braceleft.cap" horiz-adv-x="706" 
d="M449 924q0 -197 -168 -248q86 -29 127 -88.5t41 -163.5v-244q0 -92 49 -135t159 -39v-149q-258 -21 -321.5 103t-63.5 220v250q0 104 -55 138t-147 34v143q92 0 147 34t55 139v231q0 178 111.5 257.5t273.5 66.5v-150q-109 4 -158.5 -39t-49.5 -135v-225z" />
    <glyph glyph-name="braceright.cap" horiz-adv-x="706" 
d="M258 180v244q0 102 41 161.5t127 86.5q-86 29 -127 88t-41 164v225q0 92 -49 135t-160 39v150q162 13 273.5 -66t111.5 -258v-231q0 -104 55.5 -138.5t147.5 -34.5v-143q-92 0 -147.5 -33.5t-55.5 -138.5v-250q0 -179 -112 -258.5t-273 -64.5v149q109 -4 159 39t50 135z
" />
    <glyph glyph-name="hyphen.cap" horiz-adv-x="700" 
d="M102 752h498v-168h-498v168z" />
    <glyph glyph-name="endash.cap" horiz-adv-x="1097" 
d="M102 752h893v-168h-893v168z" />
    <glyph glyph-name="emdash.cap" horiz-adv-x="1763" 
d="M102 752h1561v-168h-1561v168z" />
    <glyph glyph-name="nonbreakingspace" horiz-adv-x="604" 
 />
    <glyph glyph-name="apple" horiz-adv-x="1787" 
d="M1130 1333q125 -104 199 -299q86 29 166 84q-141 168 -365 215zM1130 61q227 50 365 215q-80 55 -166 84q-74 -195 -199 -299zM1051 61q68 39 130 120t103 194q-102 31 -233 39v-353zM1051 979q123 8 233 41q-41 113 -103.5 192.5t-129.5 120.5v-354zM1051 721h290
q-4 132 -43 252q-110 -31 -247 -39v-213zM1051 674v-213q144 -8 247 -41q39 124 43 254h-290zM1346 987q34 -126 38 -266h265q-8 201 -123 360q-79 -53 -180 -94zM1346 406q85 -29 180 -93q115 157 123 361h-265q-4 -137 -38 -268zM766 0q-297 0 -436.5 151.5t-187.5 278.5
t-48 266.5t48 266.5t187.5 278.5t436.5 151.5h182v-250h-182q-187 0 -301.5 -130.5t-114.5 -316.5t115 -316t301 -130h182v-250h-182zM1495 215q-199 -187 -469 -213l-22 -2v1395l22 -2q270 -26 469 -212.5t199 -482.5t-199 -483z" />
    <glyph glyph-name="A.sc" horiz-adv-x="1159" 
d="M580 1022q0 -4 -4.5 -20.5t-13 -56t-23.5 -79.5l-148 -417h373l-143 417q-41 137 -41 156zM487 1184h189l420 -1184h-176l-103 295h-481l-103 -295h-174z" />
    <glyph glyph-name="B.sc" horiz-adv-x="1175" 
d="M854 864q0 166 -172 166h-338v-332h340q68 0 119 40.5t51 125.5zM700 156q86 0 143.5 50t57.5 146t-56.5 143.5t-150.5 47.5h-350v-387h356zM1026 859q0 -153 -145 -224q98 -39 145 -116t47 -162q0 -161 -102 -259t-269 -98h-528v1184h508q160 0 252 -86t92 -239z" />
    <glyph glyph-name="C.sc" horiz-adv-x="1277" 
d="M678 -20q-234 0 -403 173t-169 439t122 395t226.5 175t221.5 46q205 0 336 -104.5t180 -284.5h-172q-39 104 -123 170t-236 66t-265 -128t-113 -334t114.5 -334t280.5 -128q125 0 217 67.5t127 178.5h176q-53 -184 -186 -290.5t-334 -106.5z" />
    <glyph glyph-name="D.sc" horiz-adv-x="1239" 
d="M578 154q184 0 281 116.5t97 327.5t-99 321.5t-279 110.5h-232v-876h232zM174 1184h404q253 0 404 -159t151 -433t-151 -433t-404 -159h-404v1184z" />
    <glyph glyph-name="E.sc" 
d="M174 1184h825v-156h-653v-328h559v-155h-559v-389h664v-156h-836v1184z" />
    <glyph glyph-name="F.sc" horiz-adv-x="1054" 
d="M174 1184h789v-156h-617v-336h537v-155h-537v-537h-172v1184z" />
    <glyph glyph-name="G.sc" horiz-adv-x="1347" 
d="M687 -20q-130 0 -233.5 45t-180 126.5t-122 194.5t-45.5 248t45.5 247.5t122 193.5t181.5 127t207 46q195 0 335.5 -96.5t190.5 -286.5h-178q-37 117 -126.5 173.5t-191.5 56.5q-189 0 -299 -127.5t-110 -335.5q0 -207 113.5 -334t275.5 -127q163 0 268 96t117 236h-326
v155h488v-618h-160v180q-53 -84 -147.5 -142t-224.5 -58z" />
    <glyph glyph-name="H.sc" horiz-adv-x="1271" 
d="M174 1184h172v-490h580v490h172v-1184h-172v539h-580v-539h-172v1184z" />
    <glyph glyph-name="I.sc" horiz-adv-x="530" 
d="M178 1184h172v-1184h-172v1184z" />
    <glyph glyph-name="J.sc" horiz-adv-x="991" 
d="M80 373v22h170v-24q0 -163 75.5 -200.5t131.5 -37.5q113 0 160 68.5t47 185.5v797h174v-795q0 -184 -97.5 -296.5t-276.5 -112.5t-281.5 108.5t-102.5 284.5z" />
    <glyph glyph-name="K.sc" horiz-adv-x="1165" 
d="M336 0h-162v1184h162v-578l549 578h205l-461 -479l477 -705h-199l-393 584l-178 -185v-399z" />
    <glyph glyph-name="L.sc" horiz-adv-x="1003" 
d="M174 1184h172v-1028h574v-156h-746v1184z" />
    <glyph glyph-name="M.sc" horiz-adv-x="1478" 
d="M174 1184h254l313 -955l314 955h252v-1184h-168v942l-314 -942h-172l-311 942v-942h-168v1184z" />
    <glyph glyph-name="N.sc" horiz-adv-x="1263" 
d="M174 1184h197l555 -918v918h164v-1184h-189l-563 932v-932h-164v1184z" />
    <glyph glyph-name="O.sc" horiz-adv-x="1361" 
d="M1079 597q0 206 -112.5 331t-284 125t-284.5 -128t-113 -334t112.5 -332t283.5 -126q170 0 284 129t114 335zM681 -20q-120 0 -224.5 46t-182 126.5t-123 193.5t-45.5 248t45.5 247.5t123 193.5t182 127t287 46t347 -172t164.5 -438t-121.5 -396t-227 -176t-225.5 -46z
" />
    <glyph glyph-name="P.sc" horiz-adv-x="1126" 
d="M866 868.5q0 159.5 -209 159.5h-311v-418h311q96 0 152.5 49.5t56.5 209zM174 1184h483q177 0 279 -100t102 -264t-101.5 -263.5t-277.5 -99.5h-313v-457h-172v1184z" />
    <glyph glyph-name="Q.sc" horiz-adv-x="1361" 
d="M991 293q88 127 88 318t-112.5 316.5t-284 125.5t-284.5 -128t-113 -334t112.5 -332t284.5 -126q113 0 199 55l-209 226h207zM682 -20q-241 0 -408.5 174t-167.5 439.5t167 440t410 174.5t407.5 -172t164.5 -433t-151 -433l162 -170h-207l-68 72q-139 -92 -309 -92z" />
    <glyph glyph-name="R.sc" horiz-adv-x="1202" 
d="M895 829q0 199 -215 199h-338v-393h350q82 0 142.5 47t60.5 147zM1063 831q0 -189 -178 -268q74 -29 107.5 -86t41.5 -155l10 -148q6 -85 39 -174h-168q-28 70 -34 158l-9 151q-6 90 -47 131t-135 41h-348v-481h-168v1184h506q180 0 281.5 -96.5t101.5 -256.5z" />
    <glyph glyph-name="S.sc" horiz-adv-x="1120" 
d="M773 182q73 51 73 137t-59 132t-197 75q-137 29 -293 83.5t-156 275.5q0 154 112 238.5t301 84.5t301.5 -96.5t125.5 -255.5h-168q-6 86 -70.5 142.5t-187.5 56.5t-185.5 -44t-62.5 -121t56.5 -117.5t190.5 -71.5q134 -30 214 -56.5t162 -89t82 -227.5t-121.5 -256.5
t-320.5 -91.5t-332.5 109t-137.5 282h170q4 -112 88 -176t213 -64t202 51z" />
    <glyph glyph-name="T.sc" horiz-adv-x="1013" 
d="M420 1028h-346v156h864v-156h-346v-1028h-172v1028z" />
    <glyph glyph-name="U.sc" horiz-adv-x="1216" 
d="M154 449v735h172v-738q0 -154 73.5 -233.5t210.5 -79.5t209 80t72 233v738h172v-735q0 -218 -124 -343.5t-332 -125.5q-204 0 -328.5 124.5t-124.5 344.5z" />
    <glyph glyph-name="V.sc" horiz-adv-x="1114" 
d="M53 1184h183l268 -805q10 -31 19 -67t17 -70t17 -70q28 130 53 207l269 805h176l-410 -1184h-178z" />
    <glyph glyph-name="W.sc" horiz-adv-x="1589" 
d="M797 977q0 -4 -4.5 -24.5t-10.5 -49.5t-13 -59.5t-13 -57.5l-207 -786h-174l-322 1184h178l191 -733q15 -67 27 -108q12 -42 20 -73q8 31 16 60t15.5 59.5t15.5 56.5l195 738h178l196 -738q11 -48 25 -96q14 -49 23 -80l16 62t15 61.5t16 57.5l188 733h166l-320 -1184
h-172l-204 786q-6 25 -23.5 96t-17.5 95z" />
    <glyph glyph-name="X.sc" horiz-adv-x="1075" 
d="M428 608l-358 576h190l279 -451l278 451h189l-363 -576l381 -608h-193l-296 489l-295 -489h-189z" />
    <glyph glyph-name="Y.sc" horiz-adv-x="1056" 
d="M612 0h-170v479l-395 705h186l295 -539l297 539h183l-396 -705v-479z" />
    <glyph glyph-name="Z.sc" horiz-adv-x="1040" 
d="M109 1028v156h837v-150l-649 -876h653v-158h-864v141l655 887h-632z" />
    <glyph glyph-name="AE.sc" horiz-adv-x="1771" 
d="M856 467v561h-119l-280 -561h399zM1653 1184v-156h-625v-328h531v-155h-531v-389h635v-156h-807v313h-475l-156 -313h-180l590 1184h1018z" />
    <glyph glyph-name="Oslash.sc" horiz-adv-x="1361" 
d="M285 570q0 -126 53 -228l596 619q-104 92 -263 92t-272.5 -128t-113.5 -355zM1079 594q0 148 -59 256l-598 -621q106 -96 267 -96t275.5 129t114.5 332zM106 594q0 265 167 439.5t394 174.5t380 -133l137 144l98 -97l-143 -147q116 -165 116 -381q0 -262 -121.5 -392
t-227 -176t-224.5 -46q-218 0 -369 135l-147 -152l-98 96l151 158q-113 166 -113 377z" />
    <glyph glyph-name="OE.sc" horiz-adv-x="2023" 
d="M1079 597q0 206 -112.5 331t-284 125t-284.5 -128t-113 -334t112.5 -332t283.5 -126q170 0 284 129t114 335zM1079 180q-147 -200 -393 -200t-413 174t-167 439.5t167 440t415 174.5t391 -198v174h826v-156h-654v-328h559v-155h-559v-389h664v-156h-836v180z" />
    <glyph glyph-name="Eth.sc" horiz-adv-x="1239" 
d="M578 154q184 0 281 116.5t97 327.5t-99 321.5t-279 110.5h-232v-334h295v-153h-295v-389h232zM57 696h117v488h404q253 0 404 -159t151 -433t-151 -433t-404 -159h-404v543h-117v153z" />
    <glyph glyph-name="Lslash.sc" horiz-adv-x="1003" 
d="M174 1184h172v-545l322 162v-148l-322 -161v-336h574v-156h-746v403l-141 -69v147l141 70v633z" />
    <glyph glyph-name="Thorn.sc" horiz-adv-x="1126" 
d="M866 661.5q0 159.5 -209 159.5h-311v-418h311q96 0 152.5 49.5t56.5 209zM174 1184h172v-207h311q178 0 279.5 -100t101.5 -264t-101.5 -263.5t-277.5 -99.5h-313v-250h-172v1184z" />
    <glyph glyph-name="zero.sc" horiz-adv-x="1144" 
d="M573.5 127q75.5 0 130 36t88 98.5t50 148.5t16.5 184t-16.5 182t-50 147.5t-88 99.5t-130 36t-130 -36t-89.5 -99.5t-51 -147.5t-16 -182t16 -184t51 -148.5t89.5 -98.5t130 -36zM113 594q0 298 130 456t331 158t329.5 -158t128.5 -456t-129 -456t-329 -158
q-201 0 -331 158t-130 456z" />
    <glyph glyph-name="one.sc" horiz-adv-x="702" 
d="M467 1184v-1184h-172v905h-197v131q202 4 217 148h152z" />
    <glyph glyph-name="two.sc" horiz-adv-x="1028" 
d="M104 80q0 254 146.5 350t223.5 141q155 90 203 147t48 143t-47.5 141t-154.5 55q-108 0 -169 -73t-65 -193h-164q0 172 106 294.5t287 122.5t282 -101t101 -248t-84 -233.5t-276 -191.5q-111 -63 -183.5 -128.5t-81.5 -147.5h617v-158h-789v80z" />
    <glyph glyph-name="three.sc" horiz-adv-x="1040" 
d="M934 348q0 -156 -113.5 -262t-305.5 -106t-299.5 103.5t-115.5 264.5h170q18 -215 250 -215q115 0 176.5 61.5t61.5 153.5q0 203 -250 203h-59v149h14q145 0 202.5 47.5t57.5 127.5t-48 129t-153 49t-158 -59t-53 -152h-168q0 161 105.5 262.5t277.5 101.5t270.5 -92.5
t98.5 -230.5q0 -176 -170 -244q209 -62 209 -291z" />
    <glyph glyph-name="four.sc" horiz-adv-x="1019" 
d="M643 422v536l-385 -536h385zM643 268h-563v142l545 774h190v-762h141v-154h-141v-268h-172v268z" />
    <glyph glyph-name="five.sc" horiz-adv-x="1017" 
d="M499 135q108 0 170 66.5t62 182.5t-61.5 183.5t-163.5 67.5q-66 0 -124 -34t-97 -93l-144 51l74 625h627v-156h-496l-43 -348q35 53 99.5 79.5t138.5 26.5q153 0 258.5 -115t105.5 -293t-117.5 -288t-293.5 -110q-172 0 -276.5 96t-117.5 237h170q10 -72 65.5 -125
t163.5 -53z" />
    <glyph glyph-name="six.sc" horiz-adv-x="1077" 
d="M556 129q108 0 175.5 66.5t67.5 179.5t-63.5 183.5t-172.5 70.5t-182.5 -69t-73.5 -179q0 -111 70.5 -181.5t178.5 -70.5zM573 1053q-125 0 -198.5 -121t-89.5 -326q37 74 114.5 124t165.5 50q175 0 289.5 -111t114.5 -290q0 -178 -116 -290t-305 -112t-312 146t-123 412
q0 321 123.5 497t336.5 176q147 0 247 -78.5t124 -224.5h-170q-47 148 -201 148z" />
    <glyph glyph-name="seven.sc" horiz-adv-x="966" 
d="M76 1026v158h805v-148q-304 -250 -367 -562t-68 -474h-174q8 293 118 567.5t302 458.5h-616z" />
    <glyph glyph-name="eight.sc" horiz-adv-x="1075" 
d="M539 715q90 0 153.5 43t63.5 125t-58.5 127t-159.5 45t-158.5 -45t-57.5 -127t63.5 -125t153.5 -43zM568 133q83 0 162 54.5t79 157.5t-72.5 161.5t-197.5 58.5t-199 -58t-74 -159q0 -155 109.5 -185t192.5 -30zM309 645q-153 80 -153 242q0 139 106 230t276.5 91
t277 -91.5t106.5 -223.5q0 -167 -154 -248q207 -92 207 -303q0 -153 -123.5 -257.5t-314.5 -104.5t-314 105t-123 257q0 210 209 303z" />
    <glyph glyph-name="nine.sc" horiz-adv-x="1077" 
d="M770 805q0 111 -70 181.5t-178 70.5t-175.5 -66.5t-67.5 -179.5t63 -183.5t173 -70.5t182.5 68.5t72.5 179.5zM512 406q-173 0 -288 109.5t-115 289.5t115.5 291.5t304.5 111.5t312.5 -147t123.5 -410q0 -322 -110.5 -498t-350.5 -176q-147 0 -247.5 74t-125.5 211h174
q45 -129 188 -129q290 0 300 447q-37 -74 -115 -124t-166 -50z" />
    <glyph glyph-name="exclam.sc" horiz-adv-x="548" 
d="M174 215h199v-215h-199v215zM182 1184h185l-25 -809h-135z" />
    <glyph glyph-name="numbersign.sc" horiz-adv-x="1040" 
d="M406 565h194l31 221h-195zM123 932h192l37 252h142l-37 -252h194l37 252h141l-36 -252h200l-20 -146h-201l-31 -221h197l-20 -145h-197l-35 -246h-141l35 246h-195l-35 -246h-141l35 246h-197l21 145h196l31 221h-193z" />
    <glyph glyph-name="dollar.sc" horiz-adv-x="991" 
d="M270 864q0 -61 38 -98t149 -66v322q-187 -11 -187 -158zM748 322q0 70 -41 108.5t-154 73.5v-354q92 10 143.5 56t51.5 116zM457 1309h96v-146q158 -20 237.5 -112.5t90.5 -221.5h-162q-6 66 -47 117t-119 68v-338q176 -39 266 -115t90 -226t-97 -234.5t-259 -94.5v-149
h-96v149q-167 12 -276 115t-113 256h163q4 -92 65.5 -153.5t160.5 -73.5v378q-179 45 -265 117.5t-86 214.5q0 141 96.5 221t254.5 86v142z" />
    <glyph glyph-name="percent.sc" horiz-adv-x="1454" 
d="M1085.5 115q61.5 0 104.5 45t43 112.5t-43 114.5t-104.5 47t-104.5 -47t-43 -114.5t43 -112.5t104.5 -45zM368.5 754q61.5 0 104.5 45t43 112.5t-43 114.5t-104.5 47t-104.5 -47t-43 -114.5t43 -112.5t104.5 -45zM985 1184h145l-661 -1184h-145zM884.5 477.5
q83.5 85.5 201.5 85.5t201 -85.5t83 -206.5t-84.5 -204t-201.5 -83q-114 0 -198.5 83t-84.5 204t83.5 206.5zM167 1116.5q83 85.5 201 85.5t201.5 -85.5t83.5 -206.5t-84.5 -204t-200.5 -83t-200 83t-84 204t83 206.5z" />
    <glyph glyph-name="ampersand.sc" horiz-adv-x="1148" 
d="M406 942q0 -59 53 -131l41 -51q90 45 116.5 95t26.5 99t-31.5 82t-85 33t-87 -34t-33.5 -93zM533 127q126 0 215 82l-310 381q-138 -81 -150 -149t-12 -99q0 -98 65.5 -156.5t191.5 -58.5zM100 340q0 117 70 202t186 150l-18 23q-92 111 -92 228t83.5 191t199.5 74
t194 -70.5t78 -172.5q0 -101 -51.5 -172.5t-169.5 -133.5l254 -313q25 68 24 158v110h152v-110q0 -160 -72 -285l178 -219h-196l-80 96q-129 -116 -312 -116t-305.5 100.5t-122.5 259.5z" />
    <glyph glyph-name="plus.sc" horiz-adv-x="1019" 
d="M432 502h-338v147h338v344h156v-344h338v-147h-338v-344h-156v344z" />
    <glyph glyph-name="less.sc" horiz-adv-x="911" 
d="M74 420v186l753 348v-172l-602 -270v-2l602 -268v-172z" />
    <glyph glyph-name="equal.sc" horiz-adv-x="985" 
d="M94 438h797v-147h-797v147zM94 815h797v-147h-797v147z" />
    <glyph glyph-name="greater.sc" horiz-adv-x="911" 
d="M838 604v-186l-754 -348v172l602 270v2l-602 268v172z" />
    <glyph glyph-name="minus.sc" horiz-adv-x="958" 
d="M94 649h770v-147h-770v147z" />
    <glyph glyph-name="multiply.sc" horiz-adv-x="1019" 
d="M219 958l291 -290l291 290l100 -100l-291 -291l291 -291l-100 -100l-291 291l-291 -291l-100 100l291 291l-291 291z" />
    <glyph glyph-name="question.sc" horiz-adv-x="960" 
d="M338 215h199v-215h-199v215zM367 385q0 122 41.5 178.5t126.5 121.5q84 64 113.5 106.5t29.5 112.5t-52.5 113.5t-153.5 43.5t-156.5 -59.5t-57.5 -145.5h-162q0 145 103.5 248.5t274.5 103.5t272.5 -84t101.5 -229t-77 -211t-111 -90q-81 -58 -113.5 -97t-32.5 -112v-10
h-147v10z" />
    <glyph glyph-name="slash.sc" horiz-adv-x="681" 
d="M469 1288h162l-414 -1392h-164z" />
    <glyph glyph-name="backslash.sc" horiz-adv-x="681" 
d="M51 1288h164l414 -1392h-162z" />
    <glyph glyph-name="parenleft.sc" horiz-adv-x="622" 
d="M309 573q0 -375 238 -712h-141q-123 131 -198 315t-75 490t273 606h141q-111 -160 -174.5 -326t-63.5 -373z" />
    <glyph glyph-name="parenright.sc" horiz-adv-x="622" 
d="M313 557q0 371 -235 715h139q123 -133 199 -317.5t76 -396.5t-76 -388t-199 -309h-139q106 156 170.5 324.5t64.5 371.5z" />
    <glyph glyph-name="bracketleft.sc" horiz-adv-x="632" 
d="M170 1253h377v-141h-213v-1092h213v-143h-377v1376z" />
    <glyph glyph-name="bracketright.sc" horiz-adv-x="632" 
d="M86 20h215v1092h-215v141h379v-1376h-379v143z" />
    <glyph glyph-name="braceleft.sc" horiz-adv-x="667" 
d="M424 162q0 -152 168 -144v-141q-231 -14 -281.5 93.5t-50.5 189.5v188q0 92 -46 124t-128 32v133q82 0 128 32.5t46 127.5v174q0 155 94 224t238 56v-139q-168 8 -168 -143v-176q0 -90 -35 -142.5t-113 -77.5q78 -27 113 -80t35 -145v-186z" />
    <glyph glyph-name="braceright.sc" horiz-adv-x="667" 
d="M242 162v186q0 174 149 221q-78 27 -113.5 79t-35.5 145v176q0 151 -166 143v139q225 20 277.5 -89t52.5 -191v-174q0 -94 47 -127t127 -33v-133q-80 0 -127 -32t-47 -124v-188q0 -155 -92 -223.5t-238 -59.5v141q166 -8 166 144z" />
    <glyph glyph-name="degree.sc" horiz-adv-x="763" 
d="M382 713q77 0 125 54t48 133t-48 134.5t-125 55.5t-126 -55.5t-49 -134.5t49 -133t126 -54zM380.5 592q-61.5 0 -116.5 24.5t-97 66.5t-66.5 98.5t-24.5 120t24.5 118.5t66.5 97t97 66.5t116.5 24.5t118 -24.5t98.5 -66.5t66.5 -97t24.5 -118.5t-24.5 -120t-66.5 -98.5
t-98.5 -66.5t-118 -24.5z" />
    <glyph glyph-name="cent.sc" horiz-adv-x="948" 
d="M240 446q0 -178 112 -256l178 564q-6 2 -8 2h-18q-113 0 -188.5 -83.5t-75.5 -226.5zM74 426q0 211 125.5 342t300.5 131q39 0 73 -6l62 194h106l-69 -219q167 -69 217 -250h-164q-31 76 -98 109l-183 -577q27 -6 60 -7q84 0 140 40t81 104h164q-31 -127 -134.5 -207
t-254.5 -80q-53 0 -99 12l-63 -205h-107l76 240q-104 53 -168.5 159t-64.5 220z" />
    <glyph glyph-name="sterling.sc" horiz-adv-x="946" 
d="M264 385q0 74 -22 129h-164v127h102q-57 112 -57 204q0 170 106 266.5t267 96.5t263.5 -98t106.5 -246h-159q-4 86 -56.5 140.5t-152.5 54.5t-152.5 -54.5t-52.5 -128.5t21.5 -126t45.5 -109h287v-127h-241q12 -75 12 -121t-30 -117t-99 -131q72 35 125 35
q70 0 148.5 -24.5t135.5 -24.5q58 0 119 49l80 -123q-84 -77 -199 -77q-77 0 -144 24.5t-102.5 35.5t-78.5 11q-95 0 -191 -71l-86 131q168 118 168 274z" />
    <glyph glyph-name="section.sc" horiz-adv-x="956" 
d="M633 375q82 37 82 99t-44.5 96t-163.5 63t-179 57q-82 -39 -82 -100t49 -96.5t156 -59.5q108 -25 182 -59zM801 115q0 -109 -80 -184.5t-223 -75.5t-236.5 76t-97.5 194h164q23 -123 166 -123t143 119q0 55 -39 88.5t-137 59.5q-203 52 -289 114t-86 188t131 199
q-57 63 -57 175t86 187.5t231 75.5t236.5 -75t91.5 -199h-162q-6 51 -45 89t-115 38t-117.5 -31t-41.5 -89t41.5 -90t138.5 -54q192 -44 282.5 -108t90.5 -194t-136 -202q60 -69 60 -178z" />
    <glyph glyph-name="germandbls.sc" horiz-adv-x="2240" 
d="M773 182q73 51 73 137t-59 132t-197 75q-137 29 -293 83.5t-156 275.5q0 154 112 238.5t301 84.5t301.5 -96.5t125.5 -255.5h-168q-6 86 -70.5 142.5t-187.5 56.5t-185.5 -44t-62.5 -121t56.5 -117.5t190.5 -71.5q134 -30 214 -56.5t162 -89t82 -227.5t-121.5 -256.5
t-320.5 -91.5t-332.5 109t-137.5 282h170q4 -112 88 -176t213 -64t202 51zM1893.5 182q72.5 51 72.5 137t-59.5 132t-196.5 75t-213 55.5t-155.5 87.5t-79.5 216q0 154 111.5 238.5t300.5 84.5t301.5 -95.5t125.5 -256.5h-168q-6 86 -70.5 142.5t-187.5 56.5t-185.5 -44
t-62.5 -121t57.5 -118t190.5 -71t213 -56.5t162 -88.5t82 -228q0 -165 -120.5 -256.5t-320.5 -91.5t-333 108.5t-137 282.5h170q4 -112 88 -176t213 -64t201.5 51z" />
    <glyph glyph-name="yen.sc" horiz-adv-x="1024" 
d="M109 592h262l-322 592h187l278 -533l281 533h180l-324 -592h262v-111h-317v-141h317v-109h-317v-231h-170v231h-317v109h317v141h-317v111z" />
    <glyph glyph-name="ordfeminine.sc" horiz-adv-x="888" 
d="M223 776q0 -112 139 -112q114 0 191.5 53.5t77.5 152.5v123q-52 -42 -136 -59q-162 -34 -217 -64t-55 -94zM633 666q-90 -131 -280 -131q-191 0 -237 87.5t-46 151.5q0 122 90.5 178.5t236.5 81.5q146 26 189 48t43 79q0 125 -176 125q-78 0 -125 -36t-56 -97h-161
q6 119 99 192.5t252 73.5t241.5 -68.5t82.5 -189.5v-436q0 -88 33 -170h-155q-25 57 -31 111z" />
    <glyph glyph-name="ordmasculine.sc" horiz-adv-x="950" 
d="M476 670q108 0 178.5 77.5t70.5 226.5t-70.5 229.5t-178.5 80.5t-179.5 -81t-71.5 -229t71.5 -226t179.5 -78zM66 974q0 189 119 317t292 128q172 0 290 -127.5t118 -317.5q0 -189 -117.5 -314t-291.5 -125q-172 0 -291 125t-119 314z" />
    <glyph glyph-name="questiondown.sc" horiz-adv-x="960" 
d="M424 1184h199v-215h-199v215zM214 59q-101 84 -101 230t76.5 211t110.5 90q85 62 115.5 97.5t30.5 111.5v10h148v-10q0 -164 -72 -223.5t-126 -100.5t-83.5 -83t-29.5 -112t52 -113.5t153 -43.5t156.5 59.5t57.5 145.5h162q0 -146 -103.5 -249.5t-274.5 -103.5t-272 84z
" />
    <glyph glyph-name="exclamdown.sc" horiz-adv-x="548" 
d="M176 1184h199v-215h-199v215zM207 809h135l25 -809h-185z" />
    <glyph glyph-name="florin.sc" horiz-adv-x="774" 
d="M628 1061q-57 0 -93.5 -40t-53.5 -134l-37 -201h193v-135h-219l-105 -563q-27 -135 -103.5 -202t-191.5 -67q-23 0 -46 3.5t-50 7.5l25 143q33 -6 75 -6q92 0 119 141l101 543h-129v135h155l41 221q29 147 114 224t220 77q30 0 105 -12l-29 -145q-34 10 -91 10z" />
    <glyph glyph-name="Euro.sc" horiz-adv-x="1155" 
d="M899 891q-49 168 -241 168q-96 0 -169 -80t-98 -229h502l-39 -109h-475v-55q0 -54 2 -74h428l-39 -109h-371q29 -135 100.5 -204.5t174.5 -69.5q174 0 225 164h176q-41 -158 -147.5 -235.5t-261.5 -77.5t-277.5 108.5t-167.5 314.5h-145v109h131q-4 40 -4 86v43h-127v109
h137q34 216 161.5 337t281.5 121q155 0 263.5 -78.5t149.5 -238.5h-170z" />
    <glyph glyph-name="fi.sc" horiz-adv-x="1585" 
d="M1233 1184h172v-1184h-172v1184zM174 1184h789v-156h-617v-336h537v-155h-537v-537h-172v1184z" />
    <glyph glyph-name="fl.sc" horiz-adv-x="2058" 
d="M1229 1184h172v-1028h573v-156h-745v1184zM174 1184h789v-156h-617v-336h537v-155h-537v-537h-172v1184z" />
    <glyph glyph-name="ff.sc" horiz-adv-x="2109" 
d="M174 1184h789v-156h-617v-336h537v-155h-537v-537h-172v1184zM1229 1184h788v-156h-616v-336h536v-155h-536v-537h-172v1184z" />
    <glyph glyph-name="ffi.sc" horiz-adv-x="2639" 
d="M2288 1184h172v-1184h-172v1184zM174 1184h789v-156h-617v-336h537v-155h-537v-537h-172v1184zM1229 1184h788v-156h-616v-336h536v-155h-536v-537h-172v1184z" />
    <glyph glyph-name="ffl.sc" horiz-adv-x="3112" 
d="M2284 1184h172v-1028h573v-156h-745v1184zM174 1184h789v-156h-617v-336h537v-155h-537v-537h-172v1184zM1229 1184h788v-156h-616v-336h536v-155h-536v-537h-172v1184z" />
    <glyph glyph-name="perthousand.sc" horiz-adv-x="2134" 
d="M1085.5 115q61.5 0 104.5 45t43 112.5t-43 114.5t-104.5 47t-104.5 -47t-43 -114.5t43 -112.5t104.5 -45zM368.5 754q61.5 0 104.5 45t43 112.5t-43 114.5t-104.5 47t-104.5 -47t-43 -114.5t43 -112.5t104.5 -45zM1765.5 115q61.5 0 104.5 45t43 112.5t-43 114.5
t-104.5 47t-104.5 -47t-43 -114.5t43 -112.5t104.5 -45zM985 1184h145l-661 -1184h-145zM1564.5 477.5q83.5 85.5 201.5 85.5t201 -85.5t83 -206.5t-84.5 -204t-201.5 -83q-114 0 -198.5 83t-84.5 204t83.5 206.5zM884.5 477.5q83.5 85.5 201.5 85.5t201 -85.5t83 -206.5
t-84.5 -204t-201.5 -83q-114 0 -198.5 83t-84.5 204t83.5 206.5zM167 1116.5q83 85.5 201 85.5t201.5 -85.5t83.5 -206.5t-84.5 -204t-200.5 -83t-200 83t-84 204t83 206.5z" />
    <glyph glyph-name="zero.numerator" horiz-adv-x="759" 
d="M381 668q51 0 85 27.5t54.5 71.5t28.5 98.5t8 105.5t-8 105t-28.5 99.5t-54.5 73t-85 27.5t-86 -27.5t-55.5 -73t-28.5 -99.5t-8 -105t8 -105.5t28.5 -98.5t55.5 -71.5t86 -27.5zM380.5 541q-61.5 0 -118.5 24.5t-101 76.5t-72 133t-28 195.5t28 196.5t72 134.5t101 76
t118.5 23.5t118 -23.5t100.5 -76t70.5 -134.5t26.5 -196.5t-26.5 -195.5t-70.5 -133t-100.5 -76.5t-118 -24.5z" />
    <glyph glyph-name="one.numerator" horiz-adv-x="495" 
d="M195 1174h-134v94q61 2 106.5 30.5t49.5 94.5h117v-836h-139v617z" />
    <glyph glyph-name="two.numerator" horiz-adv-x="706" 
d="M59 621q0 181 102.5 249t156.5 98q107 60 140.5 98.5t33.5 87.5q0 48 -29 85t-103 37t-111.5 -46t-39.5 -118h-137q0 120 75 204.5t208 84.5q134 0 206 -72t72 -176t-57 -161t-164 -117t-153 -100t-50 -89h418v-129h-568v64z" />
    <glyph glyph-name="three.numerator" horiz-adv-x="704" 
d="M645 801q0 -108 -80.5 -183t-218.5 -75t-215.5 76t-81.5 194h137q9 -143 162 -143q74 0 116 37.5t42 95t-34 93.5t-126 36h-47v121h25q92 0 123.5 30.5t31.5 81.5t-32.5 81t-101.5 30t-101.5 -42t-34.5 -95h-135q0 113 76 187.5t201 74.5q126 0 195.5 -65.5t69.5 -159.5
q0 -123 -112 -172q141 -48 141 -203z" />
    <glyph glyph-name="four.numerator" horiz-adv-x="708" 
d="M430 860v359l-242 -359h242zM430 737h-383v119l359 537h157v-533h88v-123h-88v-180h-133v180z" />
    <glyph glyph-name="five.numerator" horiz-adv-x="692" 
d="M349 1112q127 0 205.5 -80.5t78.5 -204.5t-83 -204t-205 -80t-204 68t-86 171h138q8 -47 47 -78.5t102 -31.5t107.5 41t44.5 115t-41 118.5t-107 44.5q-92 0 -143 -84l-121 39l51 447h451v-127h-342l-27 -207q66 53 134 53z" />
    <glyph glyph-name="six.numerator" horiz-adv-x="716" 
d="M372.5 666q69.5 0 110.5 46t41 111.5t-41 113.5t-113 48t-112.5 -47t-40.5 -115t43 -112.5t112.5 -44.5zM508 1180q-26 100 -136 100q-68 0 -114.5 -68.5t-56.5 -185.5q67 80 185 80t197 -79t79 -199t-83.5 -202.5t-211.5 -82.5t-217 99.5t-89 308.5q0 208 87.5 331
t232.5 123q104 0 176 -59.5t88 -165.5h-137z" />
    <glyph glyph-name="seven.numerator" horiz-adv-x="649" 
d="M41 1266v127h563v-119q-145 -121 -218 -307.5t-77 -409.5h-139q4 211 69.5 398.5t194.5 310.5h-393z" />
    <glyph glyph-name="eight.numerator" horiz-adv-x="714" 
d="M356.5 1065q49.5 0 87 28.5t37.5 82.5t-35.5 82t-89 28t-89.5 -27.5t-36 -81.5t38 -83t87.5 -29zM357 664q62 0 111.5 33.5t49.5 103.5t-46 106.5t-115 36.5t-114.5 -37t-45.5 -107t49 -103t111 -33zM655 799q0 -111 -84 -183.5t-214 -72.5t-214 72.5t-84 183.5
q0 136 136 213q-99 61 -99 165t75.5 167t187.5 63t183.5 -63.5t71.5 -167.5t-96 -164q137 -69 137 -213z" />
    <glyph glyph-name="nine.numerator" horiz-adv-x="718" 
d="M366 956q71 0 112.5 47.5t41.5 117t-42 116.5t-112 47t-111.5 -47t-41.5 -116t41 -117t112 -48zM360 668q164 0 179 258q-27 -41 -77 -65.5t-108 -24.5t-109.5 21.5t-88.5 59t-58.5 91t-21.5 115t22.5 112.5t61.5 89t92 59.5t152 21.5t183.5 -99t84.5 -292
q4 -471 -314 -471q-100 0 -170.5 52t-91.5 148h146q24 -75 118 -75z" />
    <glyph glyph-name="zero.denominator" horiz-adv-x="759" 
d="M381 111q51 0 85 27.5t54.5 71.5t28.5 98t8 105.5t-8 105.5t-28.5 99.5t-54.5 73t-85 27.5t-86 -27.5t-55.5 -73t-28.5 -99.5t-8 -105.5t8 -105.5t28.5 -98t55.5 -71.5t86 -27.5zM380.5 -16q-61.5 0 -118.5 24.5t-101 76.5t-72 133t-28 195.5t28 196.5t72 134.5t101 76
t118.5 23.5t118 -23.5t100.5 -76t70.5 -134.5t26.5 -196.5t-26.5 -195.5t-70.5 -133t-100.5 -76.5t-118 -24.5z" />
    <glyph glyph-name="one.denominator" horiz-adv-x="495" 
d="M195 616h-134v95q61 2 106.5 30.5t49.5 94.5h117v-836h-139v616z" />
    <glyph glyph-name="two.denominator" horiz-adv-x="706" 
d="M59 63q0 180 102.5 249t156.5 99q109 61 141.5 98.5t32.5 86.5t-29 86t-103 37t-111.5 -46t-39.5 -118h-137q0 120 75 204.5t208 84.5q134 0 206 -72t72 -176t-57 -161t-164 -117t-153 -100t-50 -89h418v-129h-568v63z" />
    <glyph glyph-name="three.denominator" horiz-adv-x="704" 
d="M645 244q0 -108 -80.5 -183t-218.5 -75t-215.5 76t-81.5 194h137q9 -143 162 -143q74 0 116 37.5t42 95t-34 93.5t-126 36h-47v121h25q92 0 123.5 30.5t31.5 81.5t-32.5 81t-101.5 30t-101.5 -42t-34.5 -95h-135q0 113 76 187.5t201 74.5q126 0 195.5 -65.5t69.5 -160.5
q0 -121 -112 -172q141 -48 141 -202z" />
    <glyph glyph-name="four.denominator" horiz-adv-x="708" 
d="M430 303v359l-242 -359h242zM430 180h-383v119l359 537h157v-533h88v-123h-88v-180h-133v180z" />
    <glyph glyph-name="five.denominator" horiz-adv-x="692" 
d="M349 555q127 0 205.5 -80.5t78.5 -204.5t-83 -204t-205 -80t-204 68t-86 171h138q8 -47 47 -78.5t102 -31.5t107.5 40.5t44.5 114.5t-41 119t-107 45q-92 0 -143 -84l-121 39l51 447h451v-127h-342l-27 -207q66 53 134 53z" />
    <glyph glyph-name="six.denominator" horiz-adv-x="716" 
d="M372.5 109q69.5 0 110.5 46t41 111.5t-41 113.5t-113 48t-112.5 -47t-40.5 -115t43 -112.5t112.5 -44.5zM508 623q-26 100 -136 100q-68 0 -114.5 -68.5t-56.5 -185.5q67 80 185 80t197 -79t79 -200t-83.5 -202.5t-211.5 -81.5t-217 99.5t-89 308.5q0 208 87.5 331
t232.5 123q104 0 176 -59.5t88 -165.5h-137z" />
    <glyph glyph-name="seven.denominator" horiz-adv-x="649" 
d="M41 709v127h563v-119q-145 -121 -218 -307.5t-77 -409.5h-139q4 211 69.5 398.5t194.5 310.5h-393z" />
    <glyph glyph-name="eight.denominator" horiz-adv-x="714" 
d="M356.5 508q49.5 0 87 29t37.5 83t-35.5 81.5t-89 27.5t-89.5 -27.5t-36 -81.5t38 -83t87.5 -29zM357 106q62 0 111.5 34t49.5 104t-46 106.5t-115 36.5t-114.5 -36.5t-45.5 -106.5t49 -104t111 -34zM655 242q0 -111 -84 -183.5t-214 -72.5t-214 72.5t-84 183.5
q0 136 136 213q-99 61 -99 165t75.5 167t187.5 63t183.5 -64t71.5 -168t-96 -163q137 -69 137 -213z" />
    <glyph glyph-name="nine.denominator" horiz-adv-x="718" 
d="M347 399q71 0 113 47.5t42 117t-42 116.5t-113 47t-111.5 -47t-40.5 -116t40.5 -117t111.5 -48zM335 279q-58 0 -109.5 21.5t-88.5 59t-58.5 91t-21.5 115t22.5 112.5t61.5 89t92.5 59.5t152 21.5t183 -99t84.5 -292q4 -471 -313 -471q-100 0 -171 52t-91 148h145
q24 -75 119 -75q164 0 178 258q-27 -41 -77 -65.5t-108 -24.5z" />
    <glyph glyph-name="zero.superior" horiz-adv-x="679" 
d="M340 817q41 0 68.5 21.5t44 55.5t23.5 76t7 85t-7 86t-23.5 76.5t-44 54t-68.5 20.5t-68.5 -20.5t-44 -54t-23.5 -76.5t-7 -86t7 -85t23.5 -76t44 -55.5t68.5 -21.5zM339 713q-108 0 -184.5 87t-76.5 256.5t77 255t184 85.5t185 -86.5t78 -254t-77.5 -255.5t-185.5 -88z
" />
    <glyph glyph-name="one.superior" horiz-adv-x="471" 
d="M305 1393v-668h-119v473h-125v88q139 5 146 107h98z" />
    <glyph glyph-name="two.superior" horiz-adv-x="626" 
d="M76 778q0 145 84 198.5t127 77.5q84 47 108.5 77t24.5 68t-22.5 65.5t-80 27.5t-86 -32.5t-30.5 -79.5h-115q7 147 90.5 183t139.5 36q104 0 163.5 -59.5t59.5 -121.5q0 -104 -45 -149t-128 -89t-122 -78t-39 -71h330v-106h-459v53z" />
    <glyph glyph-name="three.superior" horiz-adv-x="622" 
d="M293 1120q117 0 117 86q0 39 -28 61.5t-78 22.5t-78.5 -28.5t-30.5 -63.5h-113q2 82 62.5 141.5t161.5 59.5t159.5 -53t58.5 -138t-88 -129q53 -20 82 -62t29 -89q0 -91 -64 -153t-182 -62q-117 0 -176 63.5t-64 153.5h117q2 -51 34 -80t92 -29t93 29t33 100.5t-121 71.5
h-39v98h23z" />
    <glyph glyph-name="four.superior" horiz-adv-x="624" 
d="M369 967v288l-203 -288h203zM369 866h-322v99l297 428h135v-426h70v-101h-70v-141h-110v141z" />
    <glyph glyph-name="five.superior" horiz-adv-x="614" 
d="M331 1167q80 0 144 -63.5t64 -163.5q0 -152 -92.5 -189.5t-143.5 -37.5q-104 0 -168.5 54t-68.5 136h114q20 -82 123 -82q49 0 84 31t35 88t-33 92t-95 35t-104 -63l-102 30l39 359h371v-105h-279l-20 -166q52 45 132 45z" />
    <glyph glyph-name="six.superior" horiz-adv-x="630" 
d="M327.5 815q53.5 0 84 36t30.5 87t-30.5 88t-84.5 37t-86 -37t-32 -88t32.5 -87t86 -36zM338 1163q94 0 157.5 -62.5t63.5 -160.5t-65.5 -162.5t-167.5 -64.5q-165 0 -206.5 114.5t-41.5 198.5q0 180 68.5 278.5t189.5 98.5q86 0 141 -45t70 -129h-115q-14 67 -85 67
q-137 0 -150 -200q47 67 141 67z" />
    <glyph glyph-name="seven.superior" horiz-adv-x="581" 
d="M61 1286v107h455v-101q-229 -191 -233 -567h-119q2 170 54 317.5t155 243.5h-312z" />
    <glyph glyph-name="eight.superior" horiz-adv-x="626" 
d="M412 1219q0 86 -101 86q-41 0 -70.5 -21.5t-29.5 -63.5t30.5 -66t71.5 -24t70 24t29 65zM438 924q0 108 -127 108q-53 0 -90 -27.5t-37 -81.5t38 -81t91 -27t89 26.5t36 82.5zM555 928q0 -98 -69 -156.5t-174 -58.5t-174.5 59t-69.5 156q0 96 106 159q-76 50 -76 133
t61.5 133t152.5 50t152.5 -50t61.5 -134t-75 -132q104 -61 104 -159z" />
    <glyph glyph-name="nine.superior" horiz-adv-x="628" 
d="M305 1047q53 0 85 37.5t32 89.5t-32 90.5t-85 38.5t-85 -37t-32 -90.5t32 -91t85 -37.5zM301 819q127 0 135 195q-20 -31 -59 -48.5t-80 -17.5q-96 0 -160.5 63.5t-64.5 164.5q0 152 92 189.5t169.5 37.5t147.5 -80t70 -249t-61.5 -265t-188.5 -96q-84 0 -140.5 42
t-72.5 117h123q18 -53 90 -53z" />
    <glyph glyph-name="zero.inferior" horiz-adv-x="679" 
d="M340 -72q41 0 68.5 21.5t44 55.5t23.5 76t7 85t-7 86t-23.5 76.5t-44 54t-68.5 20.5t-68.5 -20.5t-44 -54t-23.5 -76.5t-7 -86t7 -85t23.5 -76t44 -55.5t68.5 -21.5zM155 422.5q77 85.5 184 85.5t185 -86.5t78 -254t-77.5 -255.5t-185.5 -88t-184.5 87t-76.5 256.5
t77 255z" />
    <glyph glyph-name="one.inferior" horiz-adv-x="471" 
d="M305 504v-668h-119v473h-125v88q139 5 146 107h98z" />
    <glyph glyph-name="two.inferior" horiz-adv-x="626" 
d="M76 -111q0 145 84 198.5t127 77.5q84 47 108.5 77t24.5 68t-22.5 65.5t-80 27.5t-86 -32.5t-30.5 -79.5h-115q7 147 90.5 183t139.5 36q104 0 163.5 -60t59.5 -122q0 -102 -44.5 -147t-128.5 -90q-83 -44 -122 -77.5t-39 -70.5h330v-107h-459v53z" />
    <glyph glyph-name="three.inferior" horiz-adv-x="622" 
d="M293 231q117 0 117 86q0 39 -28 61.5t-78 22.5t-78.5 -28.5t-30.5 -63.5h-113q2 82 62.5 141.5t161.5 59.5t159.5 -53t58.5 -138t-88 -129q53 -20 82 -62t29 -89q0 -91 -64 -153t-182 -62q-117 0 -176 63.5t-64 153.5h117q2 -51 34 -80t92 -29t93 29t33 100.5t-121 71.5
h-39v98h23z" />
    <glyph glyph-name="four.inferior" horiz-adv-x="624" 
d="M369 78v289l-203 -289h203zM369 -23h-322v99l297 428h135v-426h70v-101h-70v-141h-110v141z" />
    <glyph glyph-name="five.inferior" horiz-adv-x="614" 
d="M331 279q80 0 144 -63.5t64 -164.5q0 -152 -92.5 -189.5t-143.5 -37.5q-104 0 -168.5 54t-68.5 136h114q20 -82 123 -82q49 0 84 31t35 88t-33 92t-95 35t-104 -63l-102 30l39 359h371v-105h-279l-20 -166q52 46 132 46z" />
    <glyph glyph-name="six.inferior" horiz-adv-x="630" 
d="M327.5 -74q53.5 0 84 36t30.5 87t-30.5 88t-84.5 37t-86 -37t-32 -88t32.5 -87t86 -36zM559 51.5q0 -98.5 -65.5 -163t-167.5 -64.5q-165 0 -206.5 114.5t-41.5 198.5q0 180 68.5 278.5t189.5 98.5q86 0 141 -45t70 -129h-115q-14 68 -86 68q-137 0 -149 -201
q48 67 141 67q94 0 157.5 -62t63.5 -160.5z" />
    <glyph glyph-name="seven.inferior" horiz-adv-x="581" 
d="M61 397v107h455v-101q-229 -191 -233 -567h-119q2 170 54 317.5t155 243.5h-312z" />
    <glyph glyph-name="eight.inferior" horiz-adv-x="626" 
d="M412 330q0 86 -101 86q-41 0 -70.5 -21.5t-29.5 -63.5t30.5 -65.5t71.5 -23.5t70 23.5t29 64.5zM438 35q0 108 -127 108q-53 0 -90 -27.5t-37 -81.5t38 -81t91 -27t89 27t36 82zM555 39q0 -98 -69 -156.5t-173 -58.5t-174.5 59t-70.5 155t106 161q-76 50 -76 132
q0 83 61.5 133t152.5 50t152.5 -50t61.5 -134t-75 -131q104 -62 104 -160z" />
    <glyph glyph-name="nine.inferior" horiz-adv-x="628" 
d="M305 158q53 0 85 38t32 90t-32 90t-85 38t-85 -37t-32 -90.5t32 -91t85 -37.5zM297 59q-96 0 -160.5 63.5t-64.5 164.5q0 152 92 189.5t169.5 37.5t147.5 -80t70 -249t-61.5 -265t-188.5 -96q-84 0 -140.5 42t-72.5 118h123q19 -54 90 -54q127 0 135 195
q-20 -31 -59 -48.5t-80 -17.5z" />
    <glyph glyph-name="onesixteenth" horiz-adv-x="2203" 
d="M1847.5 109q69.5 0 110.5 46t41 111.5t-41 113.5t-113 48t-112.5 -47t-40.5 -115t43 -112.5t112.5 -44.5zM1174 616h-134v95q61 2 106.5 30.5t49.5 94.5h117v-836h-139v616zM207 1174h-133v94q61 2 106 30.5t49 94.5h117v-836h-139v617zM1055 1393h159l-784 -1393h-158z
M1982 623q-27 100 -136 100q-69 0 -114.5 -68.5t-56.5 -185.5q67 80 185 80t197 -79t79 -201t-84 -202.5t-211.5 -80.5t-216 99t-88.5 308t87 332t232 123q104 0 176 -59.5t89 -165.5h-138z" />
    <glyph glyph-name="threesixteenths" horiz-adv-x="2412" 
d="M2056.5 109q69.5 0 110.5 46t41 111.5t-41 113.5t-113 48t-112.5 -47t-40.5 -115t43 -112.5t112.5 -44.5zM1382 616h-133v95q61 2 106.5 30.5t49.5 94.5h117v-836h-140v616zM1264 1393h159l-784 -1393h-158zM657 801q0 -107 -79.5 -182.5t-218.5 -75.5t-216.5 76
t-81.5 194h138q4 -66 43.5 -104.5t115.5 -38.5t118 37.5t42 95t-33.5 93.5t-126.5 36h-47v121h25q92 0 124 30.5t32 81.5t-33 81t-101 30t-101.5 -42t-35.5 -95h-135q0 113 76.5 187.5t201.5 74.5t195 -66t70 -159q0 -123 -113 -172q141 -48 141 -203zM2191 623
q-27 100 -136 100q-69 0 -115 -68.5t-56 -185.5q67 80 185 80t197 -79t79 -201t-84 -202.5t-211.5 -80.5t-216 99t-88.5 308t87 332t232 123q104 0 176 -59.5t89 -165.5h-138z" />
    <glyph glyph-name="fivesixteenths" horiz-adv-x="2400" 
d="M2044 109q70 0 110.5 46t40.5 111.5t-40.5 113.5t-112.5 48t-113 -47t-41 -115t43 -112.5t113 -44.5zM1370 616h-133v95q61 2 106.5 30.5t49.5 94.5h116v-836h-139v616zM1251 1393h160l-784 -1393h-158zM362 1112q126 0 204.5 -80.5t78.5 -204.5t-83 -204t-205 -80
t-203.5 68t-85.5 171h137q8 -47 47 -78.5t102 -31.5t107.5 41t44.5 115t-41 118.5t-107 44.5q-92 0 -143 -84l-121 39l51 447h451v-127h-342l-27 -207q67 53 135 53zM2179 623q-27 100 -137 100q-68 0 -114 -68.5t-56 -185.5q67 80 185 80t197 -79t79 -201t-84 -202.5
t-211.5 -80.5t-216 99t-88.5 308t87 332t232 123q104 0 176 -59.5t88 -165.5h-137z" />
    <glyph glyph-name="sevensixteenths" horiz-adv-x="2254" 
d="M1898.5 109q69.5 0 110.5 46t41 111.5t-41 113.5t-113 48t-112.5 -47t-40.5 -115t43 -112.5t112.5 -44.5zM1225 616h-133v95q61 2 106 30.5t49 94.5h117v-836h-139v616zM53 1266v127h563v-119q-145 -121 -217.5 -307.5t-76.5 -409.5h-140q4 211 69.5 398.5t194.5 310.5
h-393zM1106 1393h160l-785 -1393h-157zM2034 623q-26 100 -136 100q-68 0 -114.5 -68.5t-57.5 -185.5q67 80 186 80t197 -79.5t78 -200.5q0 -122 -84 -202.5t-211.5 -80.5t-216 99t-88.5 308t87 332t233 123q104 0 175.5 -59.5t88.5 -165.5h-137z" />
    <glyph glyph-name="ninesixteenths" horiz-adv-x="2426" 
d="M2070.5 109q69.5 0 110.5 46t41 111.5t-41 113.5t-113 48t-112.5 -47t-40.5 -115t43 -112.5t112.5 -44.5zM378 956q71 0 112.5 47.5t41.5 117t-41.5 116.5t-112.5 47t-112 -47t-41 -116t41 -117t112 -48zM1397 616h-133v95q61 2 106 30.5t49 94.5h117v-836h-139v616z
M1278 1393h160l-785 -1393h-157zM373 668q164 0 178 258q-27 -41 -77 -65.5t-108 -24.5t-109.5 21.5t-88.5 59t-58.5 91t-21.5 115t22.5 112.5t61.5 89t92 59.5t152 21.5t183.5 -99t84.5 -292q4 -471 -313 -471q-100 0 -171 52t-91 148h145q24 -75 119 -75zM2206 623
q-26 100 -136 100q-68 0 -114.5 -68.5t-57.5 -185.5q67 80 186 80t197 -79.5t78 -200.5q0 -122 -84 -202.5t-211.5 -80.5t-216 99t-88.5 308t87 332t233 123q104 0 176 -59.5t88 -165.5h-137z" />
    <glyph glyph-name="elevensixteenths" horiz-adv-x="2699" 
d="M2343 109q70 0 110.5 46t40.5 111.5t-40.5 113.5t-112.5 48t-113 -47t-41 -115t43 -112.5t113 -44.5zM207 1174h-133v94q61 2 106 30.5t49 94.5h117v-836h-139v617zM1669 616h-133v95q61 2 106.5 30.5t49.5 94.5h116v-836h-139v616zM702 1174h-133v94q61 2 106.5 30.5
t49.5 94.5h117v-836h-140v617zM1550 1393h160l-784 -1393h-158zM2478 623q-26 100 -136 100q-68 0 -114.5 -68.5t-56.5 -185.5q67 80 185 80t197 -79t79 -201t-84 -202.5t-211.5 -80.5t-216 99t-88.5 308t87 332t232 123q104 0 176 -59.5t88 -165.5h-137z" />
    <glyph glyph-name="thirteensixteenths" horiz-adv-x="2908" 
d="M2551.5 109q69.5 0 110.5 46t41 111.5t-40.5 113.5t-112.5 48t-113 -47t-41 -115t43 -112.5t112.5 -44.5zM207 1174h-133v94q61 2 106 30.5t49 94.5h117v-836h-139v617zM2017 836v-836h-139v616h-133v95q147 5 156 125h116zM1759 1393h160l-784 -1393h-158zM1153 801
q0 -108 -80.5 -183t-218.5 -75t-215.5 76t-81.5 194h137q9 -143 162 -143q74 0 116 37.5t42 95t-34 93.5t-126 36h-47v121h24q92 0 124 30.5t32 81.5t-32.5 81t-101.5 30t-101.5 -42t-34.5 -95h-135q0 113 76 187.5t201 74.5q126 0 195.5 -65.5t69.5 -159.5
q0 -123 -112 -172q141 -48 141 -203zM2687 623q-27 100 -137 100q-68 0 -114 -68.5t-56 -185.5q67 80 185 80t197 -79t79 -201t-84 -202.5t-211.5 -80.5t-216 99t-88.5 308t87 332t232 123q104 0 176 -59.5t88 -165.5h-137z" />
    <glyph glyph-name="fifteensixteenths" horiz-adv-x="2895" 
d="M2539.5 109q69.5 0 110.5 46t41 111.5t-41 113.5t-113 48t-112.5 -47t-40.5 -115t43 -112.5t112.5 -44.5zM207 1174h-133v94q61 2 106 30.5t49 94.5h117v-836h-139v617zM1866 616h-133v95q61 2 106 30.5t49 94.5h117v-836h-139v616zM1747 1393h160l-785 -1393h-157z
M857 1112q127 0 205.5 -80.5t78.5 -204.5t-83 -204t-205 -80t-204 68t-86 171h137q8 -47 47 -78.5t103 -31.5t107.5 41t43.5 115t-40.5 118.5t-106.5 44.5q-92 0 -143 -84l-121 39l51 447h451v-127h-342l-27 -207q66 53 134 53zM2675 623q-27 100 -137 100q-68 0 -114 -68.5
t-57 -185.5q67 80 186 80t197 -79.5t78 -200.5q0 -122 -84 -202.5t-211.5 -80.5t-216 99t-88.5 308t87 332t233 123q104 0 176 -59.5t88 -165.5h-137z" />
    <glyph glyph-name="Aacute.sc" horiz-adv-x="1159" 
d="M645 1573h223l-198 -301h-156zM580 1022q0 -4 -4.5 -20.5t-13 -56t-23.5 -79.5l-148 -417h373l-143 417q-41 137 -41 156zM487 1184h189l420 -1184h-176l-103 295h-481l-103 -295h-174z" />
    <glyph glyph-name="Abreve.sc" horiz-adv-x="1159" 
d="M579 1272q-132 0 -211 82t-89 207h124q14 -55 54.5 -98.5t121.5 -43.5t121.5 43t53.5 99h125q-10 -125 -89 -207t-211 -82zM580 1022q0 -4 -4.5 -20.5t-13 -56t-23.5 -79.5l-148 -417h373l-143 417q-41 137 -41 156zM487 1184h189l420 -1184h-176l-103 295h-481
l-103 -295h-174z" />
    <glyph glyph-name="Acircumflex.sc" horiz-adv-x="1159" 
d="M514 1587h131l234 -315h-152l-147 162l-148 -162h-149zM580 1022q0 -4 -4.5 -20.5t-13 -56t-23.5 -79.5l-148 -417h373l-143 417q-41 137 -41 156zM487 1184h189l420 -1184h-176l-103 295h-481l-103 -295h-174z" />
    <glyph glyph-name="Adieresis.sc" horiz-adv-x="1159" 
d="M295 1466h188v-194h-188v194zM674 1466h190v-194h-190v194zM580 1022q0 -4 -4.5 -20.5t-13 -56t-23.5 -79.5l-148 -417h373l-143 417q-41 137 -41 156zM487 1184h189l420 -1184h-176l-103 295h-481l-103 -295h-174z" />
    <glyph glyph-name="Agrave.sc" horiz-adv-x="1159" 
d="M291 1573h223l131 -301h-156zM580 1022q0 -4 -4.5 -20.5t-13 -56t-23.5 -79.5l-148 -417h373l-143 417q-41 137 -41 156zM487 1184h189l420 -1184h-176l-103 295h-481l-103 -295h-174z" />
    <glyph glyph-name="Amacron.sc" horiz-adv-x="1159" 
d="M311 1475h537v-144h-537v144zM580 1022q0 -4 -4.5 -20.5t-13 -56t-23.5 -79.5l-148 -417h373l-143 417q-41 137 -41 156zM487 1184h189l420 -1184h-176l-103 295h-481l-103 -295h-174z" />
    <glyph glyph-name="Aogonek.sc" horiz-adv-x="1159" 
d="M391 449h373l-143 417q-14 41 -25.5 90.5t-15.5 63.5q-6 -17 -13.5 -51.5t-14.5 -58t-13 -44.5zM958 -379q64 0 93 57h129q-14 -70 -75 -115.5t-151 -45.5t-154.5 50t-64.5 140q0 123 89 198t120 95h-24l-103 295h-481l-103 -295h-174l428 1184h189l420 -1184h-29
q-98 -94 -146.5 -160t-48.5 -118q0 -102 86 -101z" />
    <glyph glyph-name="Aring.sc" horiz-adv-x="1159" 
d="M577.5 1319q53.5 0 89 38t35.5 95t-35.5 96t-89 39t-89 -39t-35.5 -96t35.5 -95t89 -38zM412.5 1291.5q-66.5 66.5 -66.5 161.5t65.5 161.5t164.5 66.5q98 0 165.5 -66t67.5 -162t-68 -162t-165 -66t-163.5 66.5zM580 1022q0 -4 -4.5 -20.5t-13 -56t-23.5 -79.5
l-148 -417h373l-143 417q-41 137 -41 156zM487 1184h189l420 -1184h-176l-103 295h-481l-103 -295h-174z" />
    <glyph glyph-name="Atilde.sc" horiz-adv-x="1159" 
d="M459 1511q61 0 118.5 -32.5t85 -48t59.5 -15.5t52.5 27.5t24.5 68.5h114q-10 -104 -66 -174.5t-147 -70.5q-61 0 -118.5 32.5t-85 48t-58.5 15.5t-52 -27.5t-26 -68.5h-114q10 104 66.5 174.5t146.5 70.5zM580 1022q0 -4 -4.5 -20.5t-13 -56t-23.5 -79.5l-148 -417h373
l-143 417q-41 137 -41 156zM487 1184h189l420 -1184h-176l-103 295h-481l-103 -295h-174z" />
    <glyph glyph-name="Cacute.sc" horiz-adv-x="1277" 
d="M721 1573h223l-199 -301h-155zM678 -20q-234 0 -403 173t-169 439t122 395t226.5 175t221.5 46q205 0 336 -104.5t180 -284.5h-172q-39 104 -123 170t-236 66t-265 -128t-113 -334t114.5 -334t280.5 -128q125 0 217 67.5t127 178.5h176q-53 -184 -186 -290.5t-334 -106.5
z" />
    <glyph glyph-name="Ccaron.sc" horiz-adv-x="1277" 
d="M369 1581h151l148 -162l147 162h150l-232 -315h-131zM678 -20q-234 0 -403 173t-169 439t122 395t226.5 175t221.5 46q205 0 336 -104.5t180 -284.5h-172q-39 104 -123 170t-236 66t-265 -128t-113 -334t114.5 -334t280.5 -128q125 0 217 67.5t127 178.5h176
q-53 -184 -186 -290.5t-334 -106.5z" />
    <glyph glyph-name="Ccedilla.sc" horiz-adv-x="1277" 
d="M654 -207q-40 0 -76 -33l-72 58l94 168q-212 29 -353 198.5t-141 421.5t122 381t226.5 175t221.5 46q205 0 336 -104.5t180 -284.5h-172q-39 104 -123 170t-236 66t-265 -128t-113 -334t114.5 -334t280.5 -128q125 0 217 67.5t127 178.5h176q-51 -172 -170 -276.5
t-299 -118.5l-61 -95q8 2 28 2q76 0 132.5 -48t56.5 -136t-65.5 -138t-155.5 -50t-158 44t-80 117h129q23 -57 98 -57q41 0 68 23.5t27 61.5t-27 62.5t-67 24.5z" />
    <glyph glyph-name="Ccircumflex.sc" horiz-adv-x="1277" 
d="M610 1587h131l234 -315h-152l-147 162l-148 -162h-149zM678 -20q-234 0 -403 173t-169 439t122 395t226.5 175t221.5 46q205 0 336 -104.5t180 -284.5h-172q-39 104 -123 170t-236 66t-265 -128t-113 -334t114.5 -334t280.5 -128q125 0 217 67.5t127 178.5h176
q-53 -184 -186 -290.5t-334 -106.5z" />
    <glyph glyph-name="Dcaron.sc" horiz-adv-x="1239" 
d="M272 1581h152l147 -162l148 162h149l-231 -315h-131zM578 154q184 0 281 116.5t97 327.5t-99 321.5t-279 110.5h-232v-876h232zM174 1184h404q253 0 404 -159t151 -433t-151 -433t-404 -159h-404v1184z" />
    <glyph glyph-name="Eacute.sc" 
d="M627 1573h223l-199 -301h-155zM174 1184h825v-156h-653v-328h559v-155h-559v-389h664v-156h-836v1184z" />
    <glyph glyph-name="Ecaron.sc" 
d="M293 1581h151l148 -162l147 162h150l-232 -315h-131zM174 1184h825v-156h-653v-328h559v-155h-559v-389h664v-156h-836v1184z" />
    <glyph glyph-name="Ecircumflex.sc" 
d="M518 1587h131l234 -315h-152l-147 162l-148 -162h-149zM174 1184h825v-156h-653v-328h559v-155h-559v-389h664v-156h-836v1184z" />
    <glyph glyph-name="Edieresis.sc" 
d="M309 1466h189v-194h-189v194zM688 1466h191v-194h-191v194zM174 1184h825v-156h-653v-328h559v-155h-559v-389h664v-156h-836v1184z" />
    <glyph glyph-name="Edotaccent.sc" 
d="M504 1466h188v-194h-188v194zM174 1184h825v-156h-653v-328h559v-155h-559v-389h664v-156h-836v1184z" />
    <glyph glyph-name="Egrave.sc" 
d="M322 1573h223l131 -301h-156zM174 1184h825v-156h-653v-328h559v-155h-559v-389h664v-156h-836v1184z" />
    <glyph glyph-name="Emacron.sc" 
d="M317 1475h537v-144h-537v144zM174 1184h825v-156h-653v-328h559v-155h-559v-389h664v-156h-836v1184z" />
    <glyph glyph-name="Eogonek.sc" 
d="M854 -379q66 0 92 57h129q-14 -70 -74.5 -115.5t-150.5 -45.5t-154.5 50t-64.5 140q0 125 89 199t120 94h-666v1184h825v-156h-653v-328h559v-155h-559v-389h664v-156h-47q-98 -94 -146.5 -160t-48.5 -118q0 -102 86 -101z" />
    <glyph glyph-name="Gbreve.sc" horiz-adv-x="1347" 
d="M667 1272q-132 0 -211 82t-89 207h125q14 -55 54 -98.5t121 -43.5t121.5 43t53.5 99h125q-10 -125 -89 -207t-211 -82zM687 -20q-130 0 -233.5 45t-180 126.5t-122 194.5t-45.5 248t45.5 247.5t122 193.5t181.5 127t207 46q195 0 335.5 -96.5t190.5 -286.5h-178
q-37 117 -126.5 173.5t-191.5 56.5q-189 0 -299 -127.5t-110 -335.5q0 -207 113.5 -334t275.5 -127q163 0 268 96t117 236h-326v155h488v-618h-160v180q-53 -84 -147.5 -142t-224.5 -58z" />
    <glyph glyph-name="Gcircumflex.sc" horiz-adv-x="1347" 
d="M621 1587h131l233 -315h-151l-148 162l-147 -162h-150zM687 -20q-130 0 -233.5 45t-180 126.5t-122 194.5t-45.5 248t45.5 247.5t122 193.5t181.5 127t207 46q195 0 335.5 -96.5t190.5 -286.5h-178q-37 117 -126.5 173.5t-191.5 56.5q-189 0 -299 -127.5t-110 -335.5
q0 -207 113.5 -334t275.5 -127q163 0 268 96t117 236h-326v155h488v-618h-160v180q-53 -84 -147.5 -142t-224.5 -58z" />
    <glyph glyph-name="Gcommaaccent.sc" horiz-adv-x="1347" 
d="M672 -365v31h-107v215h211v-246q0 -152 -85 -184.5t-128 -34.5v95q49 4 79 34.5t30 89.5zM687 -20q-130 0 -233.5 45t-180 126.5t-122 194.5t-45.5 248t45.5 247.5t122 193.5t181.5 127t207 46q195 0 335.5 -96.5t190.5 -286.5h-178q-37 117 -126.5 173.5t-191.5 56.5
q-189 0 -299 -127.5t-110 -335.5q0 -207 113.5 -334t275.5 -127q163 0 268 96t117 236h-326v155h488v-618h-160v180q-53 -84 -147.5 -142t-224.5 -58z" />
    <glyph glyph-name="Hcircumflex.sc" horiz-adv-x="1271" 
d="M573 1587h132l233 -315h-152l-147 162l-147 -162h-150zM174 1184h172v-490h580v490h172v-1184h-172v539h-580v-539h-172v1184z" />
    <glyph glyph-name="Iacute.sc" horiz-adv-x="530" 
d="M332 1573h223l-199 -301h-155zM178 1184h172v-1184h-172v1184z" />
    <glyph glyph-name="Icircumflex.sc" horiz-adv-x="530" 
d="M201 1587h131l233 -315h-151l-148 162l-147 -162h-150zM178 1184h172v-1184h-172v1184z" />
    <glyph glyph-name="Idieresis.sc" horiz-adv-x="530" 
d="M-18 1466h188v-194h-188v194zM360 1466h191v-194h-191v194zM178 1184h172v-1184h-172v1184z" />
    <glyph glyph-name="Idotaccent.sc" horiz-adv-x="530" 
d="M172 1466h188v-194h-188v194zM178 1184h172v-1184h-172v1184z" />
    <glyph glyph-name="Igrave.sc" horiz-adv-x="530" 
d="M-23 1573h224l131 -301h-156zM178 1184h172v-1184h-172v1184z" />
    <glyph glyph-name="Imacron.sc" horiz-adv-x="530" 
d="M-2 1475h537v-144h-537v144zM178 1184h172v-1184h-172v1184z" />
    <glyph glyph-name="Iogonek.sc" horiz-adv-x="530" 
d="M242 -379q66 0 92 57h129q-14 -70 -74.5 -115.5t-150.5 -45.5t-155 50t-65 140q0 154 209 293h-49v1184h172v-1184q-98 -94 -146 -160t-48 -118q0 -102 86 -101z" />
    <glyph glyph-name="Jcircumflex.sc" horiz-adv-x="991" 
d="M684 1587h131l234 -315h-152l-147 162l-148 -162h-149zM80 373v22h170v-24q0 -163 75.5 -200.5t131.5 -37.5q113 0 160 68.5t47 185.5v797h174v-795q0 -184 -97.5 -296.5t-276.5 -112.5t-281.5 108.5t-102.5 284.5z" />
    <glyph glyph-name="Kcommaaccent.sc" horiz-adv-x="1165" 
d="M592 -365v31h-107v215h211v-246q0 -152 -85 -184.5t-128 -34.5v95q49 4 79 34.5t30 89.5zM336 0h-162v1184h162v-578l549 578h205l-461 -479l477 -705h-199l-393 584l-178 -185v-399z" />
    <glyph glyph-name="Lacute.sc" horiz-adv-x="1003" 
d="M315 1573h224l-199 -301h-156zM174 1184h172v-1028h574v-156h-746v1184z" />
    <glyph glyph-name="Lcommaaccent.sc" horiz-adv-x="1003" 
d="M543 -365v31h-107v215h211v-246q0 -152 -85 -184.5t-128 -34.5v95q49 4 79 34.5t30 89.5zM174 1184h172v-1028h574v-156h-746v1184z" />
    <glyph glyph-name="Nacute.sc" horiz-adv-x="1263" 
d="M702 1573h224l-199 -301h-156zM174 1184h197l555 -918v918h164v-1184h-189l-563 932v-932h-164v1184z" />
    <glyph glyph-name="Ncaron.sc" horiz-adv-x="1263" 
d="M342 1581h152l147 -162l147 162h150l-231 -315h-132zM174 1184h197l555 -918v918h164v-1184h-189l-563 932v-932h-164v1184z" />
    <glyph glyph-name="Ncommaaccent.sc" horiz-adv-x="1263" 
d="M625 -365v31h-107v215h211v-246q0 -152 -85 -184.5t-128 -34.5v95q49 4 79 34.5t30 89.5zM174 1184h197l555 -918v918h164v-1184h-189l-563 932v-932h-164v1184z" />
    <glyph glyph-name="Ntilde.sc" horiz-adv-x="1263" 
d="M790 1415q32 0 52 27.5t24 68.5h115q-10 -104 -66.5 -174.5t-132.5 -70.5t-133 32.5t-84.5 48t-58.5 15.5t-52.5 -27.5t-25.5 -68.5h-115q10 104 66.5 174.5t132.5 70.5t133 -32.5t85 -48t60 -15.5zM174 1184h197l555 -918v918h164v-1184h-189l-563 932v-932h-164v1184z
" />
    <glyph glyph-name="Oacute.sc" horiz-adv-x="1361" 
d="M750 1573h223l-199 -301h-156zM1079 597q0 206 -112.5 331t-284 125t-284.5 -128t-113 -334t112.5 -332t283.5 -126q170 0 284 129t114 335zM681 -20q-120 0 -224.5 46t-182 126.5t-123 193.5t-45.5 248t45.5 247.5t123 193.5t182 127t287 46t347 -172t164.5 -438
t-121.5 -396t-227 -176t-225.5 -46z" />
    <glyph glyph-name="Ocircumflex.sc" horiz-adv-x="1361" 
d="M618 1587h132l233 -315h-152l-147 162l-147 -162h-150zM1079 597q0 206 -112.5 331t-284 125t-284.5 -128t-113 -334t112.5 -332t283.5 -126q170 0 284 129t114 335zM681 -20q-120 0 -224.5 46t-182 126.5t-123 193.5t-45.5 248t45.5 247.5t123 193.5t182 127t287 46
t347 -172t164.5 -438t-121.5 -396t-227 -176t-225.5 -46z" />
    <glyph glyph-name="Odieresis.sc" horiz-adv-x="1361" 
d="M399 1466h189v-194h-189v194zM778 1466h191v-194h-191v194zM1079 597q0 206 -112.5 331t-284 125t-284.5 -128t-113 -334t112.5 -332t283.5 -126q170 0 284 129t114 335zM681 -20q-120 0 -224.5 46t-182 126.5t-123 193.5t-45.5 248t45.5 247.5t123 193.5t182 127t287 46
t347 -172t164.5 -438t-121.5 -396t-227 -176t-225.5 -46z" />
    <glyph glyph-name="Ograve.sc" horiz-adv-x="1361" 
d="M395 1573h223l132 -301h-156zM1079 597q0 206 -112.5 331t-284 125t-284.5 -128t-113 -334t112.5 -332t283.5 -126q170 0 284 129t114 335zM681 -20q-120 0 -224.5 46t-182 126.5t-123 193.5t-45.5 248t45.5 247.5t123 193.5t182 127t287 46t347 -172t164.5 -438
t-121.5 -396t-227 -176t-225.5 -46z" />
    <glyph glyph-name="Ohungarumlaut.sc" horiz-adv-x="1361" 
d="M543 1573h202l-159 -301h-156zM877 1573h202l-159 -301h-156zM1079 597q0 206 -112.5 331t-284 125t-284.5 -128t-113 -334t112.5 -332t283.5 -126q170 0 284 129t114 335zM681 -20q-120 0 -224.5 46t-182 126.5t-123 193.5t-45.5 248t45.5 247.5t123 193.5t182 127
t287 46t347 -172t164.5 -438t-121.5 -396t-227 -176t-225.5 -46z" />
    <glyph glyph-name="Omacron.sc" horiz-adv-x="1361" 
d="M416 1475h536v-144h-536v144zM1079 597q0 206 -112.5 331t-284 125t-284.5 -128t-113 -334t112.5 -332t283.5 -126q170 0 284 129t114 335zM681 -20q-120 0 -224.5 46t-182 126.5t-123 193.5t-45.5 248t45.5 247.5t123 193.5t182 127t287 46t347 -172t164.5 -438
t-121.5 -396t-227 -176t-225.5 -46z" />
    <glyph glyph-name="Otilde.sc" horiz-adv-x="1361" 
d="M826 1415q32 0 52.5 27.5t24.5 68.5h115q-10 -104 -66.5 -174.5t-132.5 -70.5t-133 32.5t-85.5 48t-58.5 15.5t-51.5 -27.5t-25.5 -68.5h-115q10 104 66.5 174.5t132.5 70.5t133 -32.5t84.5 -48t59.5 -15.5zM1079 597q0 206 -112.5 331t-284 125t-284.5 -128t-113 -334
t112.5 -332t283.5 -126q170 0 284 129t114 335zM681 -20q-120 0 -224.5 46t-182 126.5t-123 193.5t-45.5 248t45.5 247.5t123 193.5t182 127t287 46t347 -172t164.5 -438t-121.5 -396t-227 -176t-225.5 -46z" />
    <glyph glyph-name="Racute.sc" horiz-adv-x="1202" 
d="M635 1573h223l-199 -301h-155zM895 829q0 199 -215 199h-338v-393h350q82 0 142.5 47t60.5 147zM1063 831q0 -189 -178 -268q74 -29 107.5 -86t41.5 -155l10 -148q6 -85 39 -174h-168q-28 70 -34 158l-9 151q-6 90 -47 131t-135 41h-348v-481h-168v1184h506
q180 0 281.5 -96.5t101.5 -256.5z" />
    <glyph glyph-name="Rcaron.sc" horiz-adv-x="1202" 
d="M287 1581h151l148 -162l147 162h150l-232 -315h-131zM895 829q0 199 -215 199h-338v-393h350q82 0 142.5 47t60.5 147zM1063 831q0 -189 -178 -268q74 -29 107.5 -86t41.5 -155l10 -148q6 -85 39 -174h-168q-28 70 -34 158l-9 151q-6 90 -47 131t-135 41h-348v-481h-168
v1184h506q180 0 281.5 -96.5t101.5 -256.5z" />
    <glyph glyph-name="Rcommaaccent.sc" horiz-adv-x="1202" 
d="M631 -365v31h-107v215h211v-246q0 -152 -85 -184.5t-128 -34.5v95q49 4 79 34.5t30 89.5zM895 829q0 199 -215 199h-338v-393h350q82 0 142.5 47t60.5 147zM1063 831q0 -189 -178 -268q74 -29 107.5 -86t41.5 -155l10 -148q6 -85 39 -174h-168q-28 70 -34 158l-9 151
q-6 90 -47 131t-135 41h-348v-481h-168v1184h506q180 0 281.5 -96.5t101.5 -256.5z" />
    <glyph glyph-name="Sacute.sc" horiz-adv-x="1120" 
d="M606 1573h223l-198 -301h-156zM773 182q73 51 73 137t-59 132t-197 75q-137 29 -293 83.5t-156 275.5q0 154 112 238.5t301 84.5t301.5 -96.5t125.5 -255.5h-168q-6 86 -70.5 142.5t-187.5 56.5t-185.5 -44t-62.5 -121t56.5 -117.5t190.5 -71.5q134 -30 214 -56.5
t162 -89t82 -227.5t-121.5 -256.5t-320.5 -91.5t-332.5 109t-137.5 282h170q4 -112 88 -176t213 -64t202 51z" />
    <glyph glyph-name="Scaron.sc" horiz-adv-x="1120" 
d="M250 1581h151l148 -162l147 162h150l-232 -315h-131zM773 182q73 51 73 137t-59 132t-197 75q-137 29 -293 83.5t-156 275.5q0 154 112 238.5t301 84.5t301.5 -96.5t125.5 -255.5h-168q-6 86 -70.5 142.5t-187.5 56.5t-185.5 -44t-62.5 -121t56.5 -117.5t190.5 -71.5
q134 -30 214 -56.5t162 -89t82 -227.5t-121.5 -256.5t-320.5 -91.5t-332.5 109t-137.5 282h170q4 -112 88 -176t213 -64t202 51z" />
    <glyph glyph-name="Scedilla.sc" horiz-adv-x="1120" 
d="M567 -207q-39 0 -78 -33l-71 58l94 166q-180 16 -294 123t-118 264h170q4 -112 88 -176t213 -64t202 51t73 137t-59 132t-197 75q-137 29 -293 83.5t-156 275.5q0 154 112 238.5t301 84.5t301.5 -96.5t125.5 -255.5h-168q-6 86 -70.5 142.5t-187.5 56.5t-185.5 -44
t-62.5 -121t56.5 -117.5t190.5 -71.5q134 -30 214 -56.5t162 -89t82 -223.5q0 -160 -102.5 -246t-268.5 -102l-61 -97q8 2 28 2q76 0 132.5 -48t56.5 -136t-65.5 -138t-155.5 -50q-91 0 -158.5 44t-79.5 117h129q23 -57 98 -57q41 0 67.5 23.5t26.5 61.5t-26.5 62.5
t-65.5 24.5z" />
    <glyph glyph-name="Scircumflex.sc" horiz-adv-x="1120" 
d="M483 1587h131l234 -315h-152l-147 162l-148 -162h-149zM773 182q73 51 73 137t-59 132t-197 75q-137 29 -293 83.5t-156 275.5q0 154 112 238.5t301 84.5t301.5 -96.5t125.5 -255.5h-168q-6 86 -70.5 142.5t-187.5 56.5t-185.5 -44t-62.5 -121t56.5 -117.5t190.5 -71.5
q134 -30 214 -56.5t162 -89t82 -227.5t-121.5 -256.5t-320.5 -91.5t-332.5 109t-137.5 282h170q4 -112 88 -176t213 -64t202 51z" />
    <glyph glyph-name="Scommaaccent.sc" horiz-adv-x="1120" 
d="M571 -365v31h-106v215h211v-246q0 -152 -85 -184.5t-128 -34.5v95q49 4 78.5 34.5t29.5 89.5zM773 182q73 51 73 137t-59 132t-197 75q-137 29 -293 83.5t-156 275.5q0 154 112 238.5t301 84.5t301.5 -96.5t125.5 -255.5h-168q-6 86 -70.5 142.5t-187.5 56.5t-185.5 -44
t-62.5 -121t56.5 -117.5t190.5 -71.5q134 -30 214 -56.5t162 -89t82 -227.5t-121.5 -256.5t-320.5 -91.5t-332.5 109t-137.5 282h170q4 -112 88 -176t213 -64t202 51z" />
    <glyph glyph-name="Tcaron.sc" horiz-adv-x="1013" 
d="M205 1581h151l148 -162l147 162h150l-232 -315h-131zM420 1028h-346v156h864v-156h-346v-1028h-172v1028z" />
    <glyph glyph-name="Tcommaaccent.sc" horiz-adv-x="1013" 
d="M504 -365v31h-107v215h211v-246q0 -152 -85 -184.5t-128 -34.5v95q49 4 79 34.5t30 89.5zM420 1028h-346v156h864v-156h-346v-1028h-172v1028z" />
    <glyph glyph-name="Uacute.sc" horiz-adv-x="1216" 
d="M668 1573h223l-199 -301h-155zM154 449v735h172v-738q0 -154 73.5 -233.5t210.5 -79.5t209 80t72 233v738h172v-735q0 -218 -124 -343.5t-332 -125.5q-204 0 -328.5 124.5t-124.5 344.5z" />
    <glyph glyph-name="Ubreve.sc" horiz-adv-x="1216" 
d="M609 1272q-132 0 -211 82t-89 207h125q14 -55 54 -98.5t121 -43.5t122 43t53 99h125q-10 -125 -89 -207t-211 -82zM154 449v735h172v-738q0 -154 73.5 -233.5t210.5 -79.5t209 80t72 233v738h172v-735q0 -218 -124 -343.5t-332 -125.5q-204 0 -328.5 124.5t-124.5 344.5z
" />
    <glyph glyph-name="Ucircumflex.sc" horiz-adv-x="1216" 
d="M545 1587h131l233 -315h-151l-148 162l-147 -162h-150zM154 449v735h172v-738q0 -154 73.5 -233.5t210.5 -79.5t209 80t72 233v738h172v-735q0 -218 -124 -343.5t-332 -125.5q-204 0 -328.5 124.5t-124.5 344.5z" />
    <glyph glyph-name="Udieresis.sc" horiz-adv-x="1216" 
d="M326 1466h188v-194h-188v194zM705 1466h190v-194h-190v194zM154 449v735h172v-738q0 -154 73.5 -233.5t210.5 -79.5t209 80t72 233v738h172v-735q0 -218 -124 -343.5t-332 -125.5q-204 0 -328.5 124.5t-124.5 344.5z" />
    <glyph glyph-name="Ugrave.sc" horiz-adv-x="1216" 
d="M342 1573h223l131 -301h-155zM154 449v735h172v-738q0 -154 73.5 -233.5t210.5 -79.5t209 80t72 233v738h172v-735q0 -218 -124 -343.5t-332 -125.5q-204 0 -328.5 124.5t-124.5 344.5z" />
    <glyph glyph-name="Uhungarumlaut.sc" horiz-adv-x="1216" 
d="M473 1573h203l-160 -301h-156zM807 1573h203l-160 -301h-156zM154 449v735h172v-738q0 -154 73.5 -233.5t210.5 -79.5t209 80t72 233v738h172v-735q0 -218 -124 -343.5t-332 -125.5q-204 0 -328.5 124.5t-124.5 344.5z" />
    <glyph glyph-name="Umacron.sc" horiz-adv-x="1216" 
d="M342 1475h537v-144h-537v144zM154 449v735h172v-738q0 -154 73.5 -233.5t210.5 -79.5t209 80t72 233v738h172v-735q0 -218 -124 -343.5t-332 -125.5q-204 0 -328.5 124.5t-124.5 344.5z" />
    <glyph glyph-name="Uogonek.sc" horiz-adv-x="1216" 
d="M588 -379q66 0 92 57h129q-14 -70 -74.5 -115.5t-150.5 -45.5t-154.5 50t-64.5 140q0 140 184 277q-182 16 -288.5 140t-106.5 325v735h172v-738q0 -154 73.5 -233.5t210.5 -79.5t209 80t72 233v738h172v-735q0 -199 -105.5 -322t-277.5 -143q-90 -86 -134 -148t-44 -114
q0 -100 86 -101z" />
    <glyph glyph-name="Uring.sc" horiz-adv-x="1216" 
d="M608.5 1319q53.5 0 89 38t35.5 95t-35.5 96t-89 39t-89.5 -39t-36 -96t36 -95t89.5 -38zM443.5 1291.5q-66.5 66.5 -66.5 161.5t65.5 161.5t163.5 66.5t166 -66t68 -162t-69 -162t-165 -66t-162.5 66.5zM154 449v735h172v-738q0 -154 73.5 -233.5t210.5 -79.5t209 80
t72 233v738h172v-735q0 -218 -124 -343.5t-332 -125.5q-204 0 -328.5 124.5t-124.5 344.5z" />
    <glyph glyph-name="Yacute.sc" horiz-adv-x="1056" 
d="M594 1573h223l-199 -301h-155zM612 0h-170v479l-395 705h186l295 -539l297 539h183l-396 -705v-479z" />
    <glyph glyph-name="Ydieresis.sc" horiz-adv-x="1056" 
d="M244 1466h188v-194h-188v194zM623 1466h190v-194h-190v194zM612 0h-170v479l-395 705h186l295 -539l297 539h183l-396 -705v-479z" />
    <glyph glyph-name="Zacute.sc" horiz-adv-x="1040" 
d="M580 1573h223l-199 -301h-155zM109 1028v156h837v-150l-649 -876h653v-158h-864v141l655 887h-632z" />
    <glyph glyph-name="Zcaron.sc" horiz-adv-x="1040" 
d="M215 1581h152l147 -162l148 162h149l-231 -315h-131zM109 1028v156h837v-150l-649 -876h653v-158h-864v141l655 887h-632z" />
    <glyph glyph-name="Zdotaccent.sc" horiz-adv-x="1040" 
d="M420 1466h188v-194h-188v194zM109 1028v156h837v-150l-649 -876h653v-158h-864v141l655 887h-632z" />
    <glyph glyph-name="Lcaron.sc" horiz-adv-x="1003" 
d="M805 938v31h-107v215h211v-246q0 -152 -85 -184.5t-128 -34.5v94q49 4 79 35t30 90zM174 1184h172v-1028h574v-156h-746v1184z" />
    <glyph glyph-name="Dcroat.sc" horiz-adv-x="1239" 
d="M578 154q184 0 281 116.5t97 327.5t-99 321.5t-279 110.5h-232v-334h295v-153h-295v-389h232zM57 696h117v488h404q253 0 404 -159t151 -433t-151 -433t-404 -159h-404v543h-117v153z" />
    <glyph glyph-name="idotaccent" horiz-adv-x="491" 
d="M154 1462h184v-207h-184v207zM162 1055h168v-1055h-168v1055z" />
    </font>
</defs>
</svg>
